<svg width="60" height="32" viewBox="0 0 60 32" fill="none" xmlns="http://www.w3.org/2000/svg">
<path d="M16 4.66666C13.8051 4.66656 11.6573 5.30384 9.81769 6.50108C7.97803 7.69833 6.52562 9.40401 5.63685 11.411C4.74809 13.4179 4.46124 15.6397 4.81113 17.8066C5.16102 19.9735 6.13259 21.9921 7.60785 23.6173C9.08311 25.2426 10.9986 26.4044 13.1215 26.9618C15.2445 27.5192 17.4837 27.4481 19.567 26.7572C21.6504 26.0663 23.4883 24.7853 24.8575 23.0697C26.2267 21.3542 27.0683 19.278 27.28 17.0933C27.2921 16.9628 27.2654 16.8317 27.2033 16.7162C27.1412 16.6008 27.0465 16.5062 26.931 16.4444C26.8155 16.3825 26.6843 16.356 26.5538 16.3683C26.4233 16.3805 26.2993 16.431 26.1973 16.5133C25.5083 17.0709 24.715 17.4855 23.8638 17.7328C23.0126 17.9801 22.1207 18.0552 21.2401 17.9537C20.3596 17.8521 19.5081 17.576 18.7355 17.1415C17.963 16.707 17.2848 16.1227 16.7407 15.423C16.1966 14.7232 15.7976 13.922 15.5668 13.0662C15.3361 12.2103 15.2784 11.3171 15.397 10.4387C15.5156 9.56026 15.8082 8.71432 16.2577 7.95034C16.7072 7.18637 17.3045 6.5197 18.0147 5.98932C18.1201 5.91059 18.1998 5.80243 18.2438 5.67847C18.2879 5.55452 18.2943 5.4203 18.2622 5.29272C18.2301 5.16514 18.161 5.0499 18.0636 4.96151C17.9662 4.87312 17.8448 4.81553 17.7147 4.79599C17.1472 4.71002 16.574 4.66679 16 4.66666Z" fill="black"/>
<g clip-path="url(#clip0_2075_7)">
<path d="M44.4444 3.55556C44.4444 3.55556 44.4444 2 46 2C47.5556 2 47.5556 3.55556 47.5556 3.55556V5.11111C47.5556 5.11111 47.5556 6.66667 46 6.66667C44.4444 6.66667 44.4444 5.11111 44.4444 5.11111V3.55556ZM58.4444 14.4444C58.4444 14.4444 60 14.4444 60 16C60 17.5556 58.4444 17.5556 58.4444 17.5556H56.8889C56.8889 17.5556 55.3333 17.5556 55.3333 16C55.3333 14.4444 56.8889 14.4444 56.8889 14.4444H58.4444ZM35.1111 14.4444C35.1111 14.4444 36.6667 14.4444 36.6667 16C36.6667 17.5556 35.1111 17.5556 35.1111 17.5556H33.5556C33.5556 17.5556 32 17.5556 32 16C32 14.4444 33.5556 14.4444 33.5556 14.4444H35.1111ZM39.0941 7.67233C39.0941 7.67233 40.1939 8.77211 39.0941 9.87189C37.9943 10.9717 36.8946 9.87189 36.8946 9.87189L35.794 8.77289C35.794 8.77289 34.6942 7.67311 35.794 6.57256C36.8946 5.47278 37.9943 6.57256 37.9943 6.57256L39.0941 7.67233ZM55.4274 24.0057C55.4274 24.0057 56.5272 25.1054 55.4274 26.2052C54.3277 27.305 53.2279 26.2052 53.2279 26.2052L52.1281 25.1054C52.1281 25.1054 51.0283 24.0057 52.1281 22.9059C53.2279 21.8061 54.3277 22.9059 54.3277 22.9059L55.4274 24.0057ZM55.1062 9.87189C55.1062 9.87189 54.0064 10.9717 52.9067 9.87189C51.8069 8.77211 52.9067 7.67233 52.9067 7.67233L54.0064 6.57256C54.0064 6.57256 55.1062 5.47278 56.206 6.57256C57.3058 7.67233 56.206 8.77211 56.206 8.77211L55.1062 9.87189ZM38.7729 26.2052C38.7729 26.2052 37.6731 27.305 36.5733 26.2052C35.4736 25.1054 36.5733 24.0057 36.5733 24.0057L37.6731 22.9059C37.6731 22.9059 38.7729 21.8061 39.8727 22.9059C40.9724 24.0057 39.8727 25.1054 39.8727 25.1054L38.7729 26.2052ZM44.4444 26.8889C44.4444 26.8889 44.4444 25.3333 46 25.3333C47.5556 25.3333 47.5556 26.8889 47.5556 26.8889V28.4444C47.5556 28.4444 47.5556 30 46 30C44.4444 30 44.4444 28.4444 44.4444 28.4444V26.8889Z" fill="#FFAC33"/>
<path d="M46 23.7778C50.2956 23.7778 53.7778 20.2956 53.7778 16C53.7778 11.7045 50.2956 8.22223 46 8.22223C41.7045 8.22223 38.2222 11.7045 38.2222 16C38.2222 20.2956 41.7045 23.7778 46 23.7778Z" fill="#FFAC33"/>
</g>
<defs>
<clipPath id="clip0_2075_7">
<rect width="28" height="28" fill="white" transform="translate(32 2)"/>
</clipPath>
</defs>
</svg>
