<svg width="48" height="48" viewBox="0 0 48 48" fill="none" xmlns="http://www.w3.org/2000/svg">
<g clip-path="url(#clip0_2087_954)">
<path d="M43.5 24H4.5C3.30653 24 2.16193 24.4741 1.31802 25.318C0.474106 26.1619 0 27.3065 0 28.5C0 29.6935 0.474106 30.8381 1.31802 31.682C2.16193 32.5259 3.30653 33 4.5 33H43.5C44.6935 33 45.8381 32.5259 46.682 31.682C47.5259 30.8381 48 29.6935 48 28.5C48 27.3065 47.5259 26.1619 46.682 25.318C45.8381 24.4741 44.6935 24 43.5 24ZM45 36H3C2.60218 36 2.22064 36.158 1.93934 36.4393C1.65804 36.7206 1.5 37.1022 1.5 37.5V39C1.5 40.5913 2.13214 42.1174 3.25736 43.2426C4.38258 44.3679 5.9087 45 7.5 45H40.5C42.0913 45 43.6174 44.3679 44.7426 43.2426C45.8679 42.1174 46.5 40.5913 46.5 39V37.5C46.5 37.1022 46.342 36.7206 46.0607 36.4393C45.7794 36.158 45.3978 36 45 36ZM5.4975 21H42.5025C45.7434 21 47.6231 16.8844 45.7669 13.8862C42 7.8 33.7078 3.00938 24 3C14.2931 3.00938 6 7.8 2.23312 13.8853C0.375 16.8834 2.25656 21 5.4975 21ZM36 10.5C36.2967 10.5 36.5867 10.588 36.8334 10.7528C37.08 10.9176 37.2723 11.1519 37.3858 11.426C37.4994 11.7001 37.5291 12.0017 37.4712 12.2926C37.4133 12.5836 37.2704 12.8509 37.0607 13.0607C36.8509 13.2704 36.5836 13.4133 36.2926 13.4712C36.0017 13.5291 35.7001 13.4994 35.426 13.3858C35.1519 13.2723 34.9176 13.08 34.7528 12.8334C34.588 12.5867 34.5 12.2967 34.5 12C34.5 11.6022 34.658 11.2206 34.9393 10.9393C35.2206 10.658 35.6022 10.5 36 10.5ZM24 7.5C24.2967 7.5 24.5867 7.58797 24.8334 7.7528C25.08 7.91762 25.2723 8.15189 25.3858 8.42598C25.4994 8.70006 25.5291 9.00166 25.4712 9.29264C25.4133 9.58361 25.2704 9.85088 25.0607 10.0607C24.8509 10.2704 24.5836 10.4133 24.2926 10.4712C24.0017 10.5291 23.7001 10.4994 23.426 10.3858C23.1519 10.2723 22.9176 10.08 22.7528 9.83336C22.588 9.58668 22.5 9.29667 22.5 9C22.5 8.60218 22.658 8.22064 22.9393 7.93934C23.2206 7.65804 23.6022 7.5 24 7.5ZM12 10.5C12.2967 10.5 12.5867 10.588 12.8334 10.7528C13.08 10.9176 13.2723 11.1519 13.3858 11.426C13.4994 11.7001 13.5291 12.0017 13.4712 12.2926C13.4133 12.5836 13.2704 12.8509 13.0607 13.0607C12.8509 13.2704 12.5836 13.4133 12.2926 13.4712C12.0017 13.5291 11.7001 13.4994 11.426 13.3858C11.1519 13.2723 10.9176 13.08 10.7528 12.8334C10.588 12.5867 10.5 12.2967 10.5 12C10.5 11.6022 10.658 11.2206 10.9393 10.9393C11.2206 10.658 11.6022 10.5 12 10.5Z" fill="#772A8C"/>
</g>
<defs>
<clipPath id="clip0_2087_954">
<rect width="48" height="48" fill="white"/>
</clipPath>
</defs>
</svg>
