<svg width="56" height="56" viewBox="0 0 56 56" fill="none" xmlns="http://www.w3.org/2000/svg">
<path d="M51.3101 15.2764C51.2884 14.2755 51.2081 13.2767 51.0697 12.2851C50.9024 11.4032 50.6176 10.5478 50.2228 9.74175C49.3595 8.03649 47.9748 6.65102 46.2701 5.78675C45.469 5.3941 44.6192 5.11004 43.7431 4.94208C42.7439 4.80123 41.7372 4.71942 40.7284 4.69708C40.3014 4.68075 39.7484 4.67375 39.4917 4.67375L16.5131 4.66675C16.2564 4.66675 15.7034 4.67375 15.2764 4.69008C14.2755 4.71178 13.2767 4.79203 12.2851 4.93041C11.4032 5.09771 10.5478 5.38259 9.74175 5.77741C8.0365 6.64068 6.65102 8.02534 5.78675 9.73008C5.3941 10.5311 5.11004 11.3809 4.94208 12.2571C4.80044 13.2562 4.71786 14.2629 4.69475 15.2717C4.68075 15.6987 4.67141 16.2517 4.67141 16.5084L4.66675 39.4871C4.66675 39.7437 4.67375 40.2967 4.69008 40.7237C4.71178 41.7247 4.79203 42.7235 4.93041 43.7151C5.09771 44.5969 5.38259 45.4523 5.77741 46.2584C6.64068 47.9637 8.02534 49.3491 9.73008 50.2134C10.5311 50.6061 11.3809 50.8901 12.2571 51.0581C13.2563 51.1989 14.2629 51.2807 15.2717 51.3031C15.6987 51.3194 16.2517 51.3264 16.5084 51.3264L39.4871 51.3311C39.7438 51.3311 40.2967 51.3241 40.7237 51.3077C41.7247 51.286 42.7235 51.2058 43.7151 51.0674C44.5969 50.9001 45.4523 50.6152 46.2584 50.2204C47.9645 49.3575 49.3509 47.9728 50.2158 46.2677C50.6084 45.4667 50.8925 44.6169 51.0604 43.7407C51.2021 42.7416 51.2846 41.735 51.3078 40.7261C51.3218 40.2991 51.3311 39.7461 51.3311 39.4894L51.3334 16.5131C51.3334 16.2564 51.3264 15.7034 51.3101 15.2764ZM28.5064 44.2331H28.4994C25.7216 44.2351 22.9879 43.5387 20.5497 42.2077L11.7297 44.5201L14.0911 35.9031C12.2628 32.7305 11.5323 29.0433 12.0128 25.4133C12.4933 21.7833 14.1579 18.4132 16.7487 15.8255C19.3394 13.2379 22.7115 11.5772 26.3421 11.101C29.9727 10.6248 33.659 11.3598 36.8294 13.1918C39.9998 15.0238 42.4773 17.8507 43.8776 21.234C45.2779 24.6174 45.523 28.3682 44.5747 31.905C43.6264 35.4417 41.5377 38.5668 38.6326 40.7958C35.7274 43.0247 32.1681 44.2329 28.5064 44.2331Z" fill="#A74EBF"/>
<path d="M28.5134 13.7689C26.0426 13.7682 23.6167 14.4294 21.488 15.6839C19.3594 16.9383 17.6056 18.7401 16.4092 20.9019C15.2128 23.0637 14.6173 25.5066 14.6849 27.9765C14.7524 30.4463 15.4803 32.853 16.7931 34.9463L17.1221 35.4689L15.7244 40.5696L20.9581 39.1976L21.4621 39.4963C23.5918 40.76 26.023 41.4258 28.4994 41.4236H28.5064C32.1739 41.4242 35.6915 39.9679 38.2853 37.375C40.8791 34.7821 42.3366 31.265 42.3372 27.5974C42.3379 23.9299 40.8815 20.4123 38.2886 17.8185C35.6957 15.2247 32.1786 13.7672 28.5111 13.7666L28.5134 13.7689ZM36.6427 33.5323C36.3373 34.0377 35.9304 34.4743 35.4476 34.8145C34.9649 35.1547 34.4168 35.391 33.8381 35.5086C32.9646 35.6587 32.0681 35.6027 31.2201 35.3453C30.4154 35.0958 29.6248 34.8029 28.8517 34.4679C25.9811 33.0273 23.5343 30.8652 21.7514 28.1936C20.7785 26.9571 20.188 25.4632 20.0527 23.8956C20.042 23.2487 20.1658 22.6065 20.4165 22.01C20.6671 21.4135 21.0391 20.8757 21.5087 20.4306C21.6481 20.2727 21.8183 20.145 22.009 20.0556C22.1996 19.9661 22.4066 19.9166 22.6171 19.9103C22.8924 19.9103 23.1701 19.9103 23.4127 19.9243C23.6694 19.9359 24.0101 19.8263 24.3461 20.6383C24.6961 21.4689 25.5267 23.5153 25.6294 23.7229C25.6949 23.832 25.7324 23.9555 25.7385 24.0825C25.7446 24.2096 25.7191 24.3361 25.6644 24.4509C25.5602 24.7008 25.4203 24.9342 25.2491 25.1439C25.0391 25.3866 24.8127 25.6853 24.6261 25.8719C24.4161 26.0796 24.2014 26.3036 24.4417 26.7189C25.0669 27.7871 25.8461 28.7573 26.7541 29.5983C27.7413 30.4736 28.8725 31.1715 30.0977 31.6609C30.5131 31.8709 30.7557 31.8336 30.9984 31.5559C31.2411 31.2783 32.0367 30.3426 32.3144 29.9273C32.5921 29.5119 32.8674 29.5819 33.2477 29.7196C33.6281 29.8573 35.6744 30.8629 36.0897 31.0729C36.5051 31.2829 36.7827 31.3833 36.8854 31.5559C36.9976 32.2243 36.9133 32.9109 36.6427 33.5323Z" fill="#A74EBF"/>
</svg>
