<svg width="48" height="48" viewBox="0 0 48 48" fill="none" xmlns="http://www.w3.org/2000/svg">
<path d="M42 24.26C41.7 24.28 41.42 24.38 41.22 24.6L39.22 26.6L43.32 30.6L45.32 28.6C45.76 28.18 45.76 27.48 45.32 27.06L42.84 24.6C42.6398 24.3932 42.3676 24.2715 42.08 24.26M38.08 27.76L26 39.88V44H30.12L42.24 31.86M40 8H8C6.93913 8 5.92172 8.42143 5.17157 9.17157C4.42143 9.92172 4 10.9391 4 12V36C4 37.0609 4.42143 38.0783 5.17157 38.8284C5.92172 39.5786 6.93913 40 8 40H22V38.22L38.48 21.78C39.42 20.8 40.72 20.26 42.08 20.26C42.76 20.26 43.44 20.38 44.08 20.64V12C44.08 9.76 42.24 8 40 8ZM40 16L24 26L8 16V12L24 22L40 12" fill="#A74EBF"/>
</svg>
