<svg width="52" height="52" viewBox="0 0 52 52" fill="none" xmlns="http://www.w3.org/2000/svg">
<path fill-rule="evenodd" clip-rule="evenodd" d="M9.75 3.25C8.02609 3.25 6.37279 3.93482 5.15381 5.15381C3.93482 6.37279 3.25 8.02609 3.25 9.75V42.25C3.25 43.9739 3.93482 45.6272 5.15381 46.8462C6.37279 48.0652 8.02609 48.75 9.75 48.75H42.25C43.9739 48.75 45.6272 48.0652 46.8462 46.8462C48.0652 45.6272 48.75 43.9739 48.75 42.25V9.75C48.75 8.02609 48.0652 6.37279 46.8462 5.15381C45.6272 3.93482 43.9739 3.25 42.25 3.25H9.75ZM13.3315 17.2153C14.3615 17.2153 15.3494 16.8061 16.0777 16.0777C16.8061 15.3494 17.2153 14.3615 17.2153 13.3315C17.2153 12.3015 16.8061 11.3136 16.0777 10.5853C15.3494 9.85693 14.3615 9.44775 13.3315 9.44775C12.3015 9.44775 11.3136 9.85693 10.5853 10.5853C9.85693 11.3136 9.44775 12.3015 9.44775 13.3315C9.44775 14.3615 9.85693 15.3494 10.5853 16.0777C11.3136 16.8061 12.3015 17.2153 13.3315 17.2153ZM16.5815 41.6423V20.2605H10.0815V41.6423H16.5815ZM20.8975 20.2605H27.3975V23.1237C28.3563 21.6222 30.4622 19.6007 34.3785 19.6007C39.052 19.6007 41.5902 22.698 41.5902 28.5903C41.5902 28.873 41.6162 30.1632 41.6162 30.1632V41.639H35.1163V30.1665C35.1163 28.5902 34.7847 25.493 31.2812 25.493C27.7745 25.493 27.4788 29.3865 27.3975 31.9345V41.639H20.8975V20.2605Z" fill="#A74EBF"/>
</svg>
