<svg width="36" height="36" viewBox="0 0 36 36" fill="none" xmlns="http://www.w3.org/2000/svg">
<path fill-rule="evenodd" clip-rule="evenodd" d="M4.5 4C3.30653 4 2.16193 4.47411 1.31802 5.31802C0.474106 6.16193 0 7.30653 0 8.5V31C0 32.1935 0.474106 33.3381 1.31802 34.182C2.16193 35.0259 3.30653 35.5 4.5 35.5H27C28.1935 35.5 29.3381 35.0259 30.182 34.182C31.0259 33.3381 31.5 32.1935 31.5 31V8.5C31.5 7.30653 31.0259 6.16193 30.182 5.31802C29.3381 4.47411 28.1935 4 27 4H4.5ZM6.9795 13.6683C7.6926 13.6683 8.37649 13.385 8.88073 12.8807C9.38497 12.3765 9.66825 11.6926 9.66825 10.9795C9.66825 10.2664 9.38497 9.58251 8.88073 9.07827C8.37649 8.57403 7.6926 8.29075 6.9795 8.29075C6.2664 8.29075 5.58251 8.57403 5.07827 9.07827C4.57403 9.58251 4.29075 10.2664 4.29075 10.9795C4.29075 11.6926 4.57403 12.3765 5.07827 12.8807C5.58251 13.385 6.2664 13.6683 6.9795 13.6683ZM9.2295 30.5793V15.7765H4.7295V30.5793H9.2295ZM12.2175 15.7765H16.7175V17.7587C17.3813 16.7192 18.8393 15.3197 21.5505 15.3197C24.786 15.3197 26.5432 17.464 26.5432 21.5432C26.5432 21.739 26.5613 22.6322 26.5613 22.6322V30.577H22.0613V22.6345C22.0613 21.5432 21.8317 19.399 19.4062 19.399C16.9785 19.399 16.7738 22.0945 16.7175 23.8585V30.577H12.2175V15.7765Z" fill="#FFFCF8"/>
</svg>
