<svg width="36" height="36" viewBox="0 0 36 36" fill="none" xmlns="http://www.w3.org/2000/svg">
<g clip-path="url(#clip0_2004_494)">
<path fill-rule="evenodd" clip-rule="evenodd" d="M18 3C17.6022 3 17.2206 3.15804 16.9393 3.43934C16.658 3.72064 16.5 4.10218 16.5 4.5V7.5H7.5C6.70435 7.5 5.94129 7.81607 5.37868 8.37868C4.81607 8.94129 4.5 9.70435 4.5 10.5V30C4.5 30.7956 4.81607 31.5587 5.37868 32.1213C5.94129 32.6839 6.70435 33 7.5 33H28.5C29.2956 33 30.0587 32.6839 30.6213 32.1213C31.1839 31.5587 31.5 30.7956 31.5 30V10.5C31.5 9.70435 31.1839 8.94129 30.6213 8.37868C30.0587 7.81607 29.2956 7.5 28.5 7.5H19.5V4.5C19.5 4.10218 19.342 3.72064 19.0607 3.43934C18.7794 3.15804 18.3978 3 18 3ZM19.5 7.5V20.742L22.242 18C22.5233 17.7185 22.9048 17.5603 23.3027 17.5602C23.7006 17.5601 24.0823 17.718 24.3638 17.9993C24.6452 18.2805 24.8034 18.6621 24.8036 19.06C24.8037 19.4579 24.6458 19.8395 24.3645 20.121L19.3245 25.1595C18.9729 25.5108 18.4962 25.7081 17.9993 25.7081C17.5023 25.7081 17.0256 25.5108 16.674 25.1595L11.6355 20.121C11.4962 19.9816 11.3858 19.8162 11.3104 19.6342C11.2351 19.4521 11.1964 19.257 11.1964 19.06C11.1965 18.8629 11.2354 18.6679 11.3109 18.4859C11.3863 18.3039 11.4969 18.1385 11.6363 17.9993C11.7756 17.86 11.941 17.7495 12.1231 17.6742C12.3052 17.5989 12.5003 17.5601 12.6973 17.5602C12.8943 17.5603 13.0894 17.5991 13.2714 17.6746C13.4534 17.7501 13.6187 17.8606 13.758 18L16.5 20.742V7.5H19.5Z" fill="#FFFCF8"/>
</g>
<defs>
<clipPath id="clip0_2004_494">
<rect width="36" height="36" fill="white"/>
</clipPath>
</defs>
</svg>
