<svg width="32" height="32" viewBox="0 0 32 32" fill="none" xmlns="http://www.w3.org/2000/svg">
<path d="M23 2L17 8L18.415 9.402L22 5.818V28H6V12H4V28C4.00079 28.5302 4.21176 29.0384 4.58666 29.4133C4.96156 29.7882 5.46981 29.9992 6 30H22C22.5302 29.9992 23.0384 29.7882 23.4133 29.4133C23.7882 29.0384 23.9992 28.5302 24 28V5.815L27.586 9.402L29 8L23 2Z" fill="#FFFCF8"/>
<path d="M16 24H12C11.4696 24 10.9609 23.7893 10.5858 23.4142C10.2107 23.0391 10 22.5304 10 22V18C10 17.4696 10.2107 16.9609 10.5858 16.5858C10.9609 16.2107 11.4696 16 12 16H16C16.5304 16 17.0391 16.2107 17.4142 16.5858C17.7893 16.9609 18 17.4696 18 18V22C18 22.5304 17.7893 23.0391 17.4142 23.4142C17.0391 23.7893 16.5304 24 16 24ZM12 18V22H16V18H12Z" fill="#FFFCF8"/>
</svg>
