<svg width="48" height="48" viewBox="0 0 48 48" fill="none" xmlns="http://www.w3.org/2000/svg">
<path d="M38.1 9.82011C36.2661 7.96832 34.082 6.50004 31.675 5.50083C29.268 4.50162 26.6862 3.99147 24.08 4.00011C13.16 4.00011 4.26 12.9001 4.26 23.8201C4.26 27.3201 5.18 30.7201 6.9 33.7201L4.1 44.0001L14.6 41.2401C17.5 42.8201 20.76 43.6601 24.08 43.6601C35 43.6601 43.9 34.7601 43.9 23.8401C43.9 18.5401 41.84 13.5601 38.1 9.82011ZM24.08 40.3001C21.12 40.3001 18.22 39.5001 15.68 38.0001L15.08 37.6401L8.84 39.2801L10.5 33.2001L10.1 32.5801C8.45509 29.9542 7.58185 26.9187 7.58 23.8201C7.58 14.7401 14.98 7.34011 24.06 7.34011C28.46 7.34011 32.6 9.06011 35.7 12.1801C37.2352 13.7078 38.4518 15.5252 39.2792 17.5268C40.1067 19.5283 40.5284 21.6743 40.52 23.8401C40.56 32.9201 33.16 40.3001 24.08 40.3001ZM33.12 27.9801C32.62 27.7401 30.18 26.5401 29.74 26.3601C29.28 26.2001 28.96 26.1201 28.62 26.6001C28.28 27.1001 27.34 28.2201 27.06 28.5401C26.78 28.8801 26.48 28.9201 25.98 28.6601C25.48 28.4201 23.88 27.8801 22 26.2001C20.52 24.8801 19.54 23.2601 19.24 22.7601C18.96 22.2601 19.2 22.0001 19.46 21.7401C19.68 21.5201 19.96 21.1601 20.2 20.8801C20.44 20.6001 20.54 20.3801 20.7 20.0601C20.86 19.7201 20.78 19.4401 20.66 19.2001C20.54 18.9601 19.54 16.5201 19.14 15.5201C18.74 14.5601 18.32 14.6801 18.02 14.6601H17.06C16.72 14.6601 16.2 14.7801 15.74 15.2801C15.3 15.7801 14.02 16.9801 14.02 19.4201C14.02 21.8601 15.8 24.2201 16.04 24.5401C16.28 24.8801 19.54 29.8801 24.5 32.0201C25.68 32.5401 26.6 32.8401 27.32 33.0601C28.5 33.4401 29.58 33.3801 30.44 33.2601C31.4 33.1201 33.38 32.0601 33.78 30.9001C34.2 29.7401 34.2 28.7601 34.06 28.5401C33.92 28.3201 33.62 28.2201 33.12 27.9801Z" fill="white"/>
</svg>
