<svg width="611" height="468" viewBox="0 0 611 468" fill="none" xmlns="http://www.w3.org/2000/svg">
<g clip-path="url(#clip0_2013_33)">
<path d="M214.562 468H186.566L264.297 365.104H292.293L214.562 468Z" fill="#AF6031"/>
<path d="M483.448 327.378H452.889V468H483.448V327.378Z" fill="#AF6031"/>
<path d="M481.748 468H451.19L357.661 327.378H388.221L481.748 468Z" fill="#AF6031"/>
<path d="M113.803 468H90.9353L43.5126 348.445H66.3807L113.803 468Z" fill="#AF6031"/>
<path d="M0 356.198L298.297 377.349L565.324 326.396V307.291L371.435 302.882L0 337.093V356.198Z" fill="#CC7746"/>
<path d="M0 337.093L298.297 358.244L565.324 307.291L345.563 290.06L0 337.093Z" fill="#DB8653"/>
<path d="M372.597 300.935C380.544 300.935 386.987 300.168 386.987 299.222C386.987 298.276 380.544 297.51 372.597 297.51C364.65 297.51 358.207 298.276 358.207 299.222C358.207 300.168 364.65 300.935 372.597 300.935Z" fill="#91E0F2"/>
<path d="M351.636 256.454C351.636 256.454 350.337 283.053 358.207 299.224H386.987C386.987 299.224 394.278 288.91 393.558 256.454H351.637H351.636Z" fill="#91E0F2"/>
<path d="M372.597 258.949C384.173 258.949 393.558 257.832 393.558 256.454C393.558 255.076 384.173 253.959 372.597 253.959C361.021 253.959 351.636 255.076 351.636 256.454C351.636 257.832 361.021 258.949 372.597 258.949Z" fill="#772A8C"/>
<path d="M392.599 292.263H387.753V288.937H392.599C394.92 288.937 396.891 287.357 397.392 285.095L400.38 271.609C400.704 270.152 400.351 268.647 399.414 267.483C398.477 266.319 397.082 265.652 395.586 265.652H390.572V262.325H395.586C398.097 262.325 400.44 263.446 402.013 265.401C403.585 267.356 404.177 269.88 403.634 272.328L400.645 285.814C400.241 287.636 399.216 289.283 397.758 290.452C396.301 291.62 394.467 292.264 392.597 292.264L392.599 292.263Z" fill="#91E0F2"/>
<path d="M115.927 15.9214L180.46 196.686C180.885 197.94 182.136 198.721 183.452 198.554L285.593 185.452C287.333 185.23 288.438 183.475 287.88 181.813L224.89 1.89804C224.473 0.648381 223.233 -0.135775 221.923 0.0193933L118.238 12.2722C116.481 12.48 115.362 14.2478 115.927 15.9214Z" fill="#F5FFBA"/>
<path d="M227.882 10.485L224.89 1.89804C224.473 0.648381 223.233 -0.135775 221.923 0.0193933L118.238 12.2722C116.481 12.48 115.362 14.2478 115.927 15.9214L118.584 23.3612L227.882 10.4836V10.485Z" fill="#FFD03C"/>
<path d="M149.021 45.1569L138.398 46.4703C137.76 46.5492 137.152 46.1807 136.928 45.578L133.088 35.2565C132.775 34.4184 133.331 33.5095 134.219 33.4014L144.965 32.0881C145.608 32.0091 146.22 32.3859 146.438 32.9941L150.155 43.3156C150.456 44.151 149.902 45.0488 149.021 45.1569Z" fill="#FFD03C"/>
<path d="M157.621 69.0515L147.246 70.2956C146.607 70.3718 145.999 70.0005 145.777 69.3964L142.011 59.1096C141.705 58.2728 142.26 57.3695 143.145 57.26L153.572 55.9868C154.215 55.9078 154.827 56.2847 155.045 56.8929L158.761 67.2088C159.062 68.0456 158.506 68.9448 157.621 69.0515Z" fill="#FFD03C"/>
<path d="M165.261 91.4637L155.435 92.6094C154.795 92.6842 154.187 92.3088 153.969 91.7033L150.281 81.4733C149.98 80.6392 150.533 79.7415 151.414 79.6307L161.215 78.4073C161.859 78.327 162.473 78.7024 162.692 79.312L166.404 89.6196C166.706 90.4578 166.147 91.3597 165.26 91.4623L165.261 91.4637Z" fill="#FFD03C"/>
<path d="M173.008 113.902L162.244 115.217C161.601 115.296 160.989 114.919 160.771 114.311L157.054 103.992C156.752 103.157 157.306 102.258 158.19 102.15L168.955 100.835C169.597 100.756 170.21 101.133 170.428 101.741L174.145 112.06C174.446 112.895 173.892 113.794 173.008 113.902Z" fill="#FFD03C"/>
<path d="M223.579 22.5992L156.634 30.6638C155.75 30.7705 155.195 31.6697 155.496 32.5065L159.212 42.8238C159.431 43.432 160.042 43.8075 160.683 43.7299L227.687 35.6168C228.576 35.5087 229.131 34.604 228.823 33.7658L225.046 23.4956C224.824 22.8929 224.217 22.5216 223.577 22.5978L223.579 22.5992Z" fill="#FFD03C"/>
<path d="M196.251 64.3354L169.294 67.6286C168.651 67.7076 168.039 67.3308 167.821 66.7226L164.104 56.4038C163.802 55.5684 164.356 54.6693 165.24 54.5612L192.198 51.268C192.84 51.189 193.453 51.5659 193.67 52.1741L197.388 62.4928C197.689 63.3282 197.135 64.2274 196.251 64.3354Z" fill="#FFD03C"/>
<path d="M232.316 46.4966L200.246 50.2927C199.36 50.398 198.802 51.2971 199.105 52.1353L202.82 62.4513C203.04 63.0581 203.649 63.4335 204.29 63.3573L236.443 59.5003C237.333 59.3936 237.89 58.4848 237.579 57.6466L233.781 47.3916C233.559 46.7917 232.954 46.4218 232.316 46.4966Z" fill="#FFD03C"/>
<path d="M207.568 109.774L185.445 112.477C184.802 112.556 184.19 112.179 183.972 111.57L180.255 101.252C179.954 100.416 180.508 99.5172 181.392 99.4091L203.514 96.7062C204.157 96.6272 204.769 97.004 204.987 97.6122L208.704 107.931C209.006 108.766 208.452 109.666 207.568 109.774Z" fill="#FFD03C"/>
<path d="M248.768 91.2614L211.56 95.7266C210.675 95.8333 210.119 96.7325 210.42 97.5693L214.139 107.895C214.357 108.499 214.96 108.874 215.599 108.802L252.932 104.607C253.823 104.508 254.385 103.603 254.081 102.76L250.238 92.1633C250.018 91.5579 249.409 91.1838 248.768 91.26V91.2614Z" fill="#FFD03C"/>
<path d="M216.829 85.2929L177.366 90.0491C176.724 90.1267 176.114 89.7513 175.895 89.143L172.179 78.8243C171.878 77.9875 172.433 77.0884 173.317 76.9817L212.78 72.2255C213.422 72.1479 214.032 72.5234 214.251 73.1316L217.967 83.4503C218.268 84.2871 217.713 85.1862 216.829 85.2929Z" fill="#FFD03C"/>
<path d="M240.56 68.9697L220.832 71.2557C219.945 71.3582 219.384 72.2601 219.687 73.0983L223.401 83.4129C223.619 84.0183 224.227 84.3938 224.867 84.319L244.647 82.0122C245.536 81.9083 246.096 81.0022 245.788 80.1627L242.022 69.8703C241.801 69.269 241.197 68.8963 240.559 68.9697H240.56Z" fill="#FFD03C"/>
<path d="M180.501 114.203C180.291 114.203 180.094 114.073 180.018 113.865L150.578 32.1269C150.483 31.8608 150.621 31.5671 150.888 31.4715C151.154 31.3759 151.449 31.5145 151.544 31.7805L180.984 113.518C181.079 113.784 180.941 114.078 180.674 114.174C180.617 114.194 180.558 114.204 180.501 114.204V114.203Z" fill="#FFD03C"/>
<path d="M190.857 185.987L71.2459 200.5C69.6482 200.699 68.1172 199.797 67.5189 198.305L35.3911 118.104C34.5194 115.926 35.9741 113.521 38.3116 113.278L157.342 101.154C158.894 100.994 160.37 101.865 160.974 103.302L193.682 181.115C194.588 183.272 193.183 185.696 190.857 185.987Z" fill="#65E8EF"/>
<path d="M164.78 112.355L160.974 103.299C160.37 101.863 158.894 100.991 157.342 101.152L38.3116 113.276C35.9741 113.518 34.5194 115.925 35.3911 118.101L38.1978 125.109L164.78 112.355Z" fill="#91E0F2"/>
<path d="M81.8256 171.946L157.091 163.569C162.574 162.958 164.473 156.526 160.599 151.615C157.581 147.79 152.921 144.813 145.913 146.434C145.913 146.434 137.989 120.698 106.994 124.147C75.9986 127.597 84.2713 154.562 84.2713 154.562C84.2713 154.562 76.9757 154.476 73.4487 158.286C68.7974 163.312 74.6091 172.749 81.8242 171.945L81.8256 171.946Z" fill="white"/>
<path d="M49.9879 161.687C49.4618 161.687 49.0135 161.284 48.9676 160.751C48.9191 160.187 49.3369 159.692 49.9018 159.644L52.3281 159.436C52.8903 159.387 53.3886 159.804 53.4372 160.368C53.4858 160.932 53.0679 161.427 52.503 161.475L50.0767 161.683C50.0475 161.686 50.017 161.687 49.9879 161.687Z" fill="#91E0F2"/>
<path d="M40.023 234.447C39.4623 234.447 39.0042 233.997 38.9973 233.436C38.9903 232.871 39.4442 232.407 40.0106 232.401C40.1174 232.401 40.2257 232.393 40.3326 232.379L44.6938 231.826C45.2546 231.756 45.7696 232.152 45.8404 232.713C45.9112 233.274 45.5142 233.787 44.952 233.857L40.588 234.41C40.402 234.434 40.2174 234.446 40.0342 234.447C40.03 234.447 40.0258 234.447 40.0217 234.447H40.023ZM49.62 233.256C49.1106 233.256 48.6692 232.878 48.604 232.361C48.5332 231.8 48.9302 231.287 49.4923 231.217L54.2908 230.608C54.8516 230.538 55.3665 230.934 55.4373 231.495C55.5081 232.056 55.1111 232.569 54.549 232.64L49.7505 233.248C49.7061 233.253 49.663 233.256 49.62 233.256ZM59.2184 232.04C58.709 232.04 58.2676 231.661 58.2023 231.145C58.1315 230.584 58.5285 230.071 59.0907 230L63.8892 229.392C64.4513 229.321 64.9649 229.718 65.0357 230.279C65.1065 230.84 64.7095 231.352 64.1473 231.423L59.3489 232.031C59.3044 232.037 59.2614 232.04 59.2184 232.04ZM36.3378 231.829C35.9186 231.829 35.5244 231.57 35.3731 231.154L33.7241 226.616C33.5311 226.084 33.806 225.498 34.339 225.305C34.872 225.112 35.4591 225.387 35.6521 225.919L37.3011 230.457C37.494 230.989 37.2192 231.575 36.6862 231.768C36.571 231.81 36.453 231.829 36.3364 231.829H36.3378ZM68.8154 230.823C68.3059 230.823 67.8645 230.445 67.7993 229.928C67.7285 229.367 68.1255 228.854 68.6877 228.784L73.4861 228.176C74.0483 228.105 74.5619 228.501 74.6327 229.062C74.7035 229.623 74.3065 230.136 73.7443 230.207L68.9458 230.815C68.9014 230.82 68.8584 230.823 68.8154 230.823ZM78.4123 229.607C77.9029 229.607 77.4615 229.229 77.3963 228.712C77.3255 228.151 77.7225 227.638 78.2846 227.567L83.0831 226.959C83.6453 226.889 84.1589 227.285 84.2296 227.846C84.3004 228.407 83.9035 228.92 83.3413 228.99L78.5428 229.598C78.4984 229.604 78.4554 229.607 78.4123 229.607ZM88.0093 228.39C87.4999 228.39 87.0585 228.012 86.9932 227.495C86.9225 226.934 87.3194 226.422 87.8816 226.351L92.6801 225.743C93.2423 225.672 93.7558 226.068 93.8266 226.629C93.8974 227.191 93.5004 227.703 92.9383 227.774L88.1398 228.382C88.0954 228.388 88.0523 228.39 88.0093 228.39ZM97.6063 227.174C97.0969 227.174 96.6555 226.796 96.5902 226.279C96.5194 225.718 96.9164 225.205 97.4786 225.135L102.277 224.526C102.839 224.456 103.353 224.852 103.424 225.413C103.494 225.974 103.097 226.487 102.535 226.557L97.7368 227.166C97.6923 227.171 97.6493 227.174 97.6063 227.174ZM107.203 225.958C106.694 225.958 106.252 225.579 106.187 225.063C106.116 224.501 106.513 223.989 107.076 223.918L111.874 223.31C112.435 223.239 112.95 223.636 113.021 224.197C113.091 224.758 112.694 225.27 112.132 225.341L107.334 225.949C107.289 225.955 107.246 225.958 107.203 225.958ZM33.0398 222.752C32.6206 222.752 32.2264 222.493 32.0751 222.077L30.4261 217.538C30.2331 217.006 30.508 216.42 31.041 216.228C31.574 216.035 32.1611 216.309 32.3541 216.841L34.0031 221.38C34.196 221.912 33.9212 222.498 33.3882 222.691C33.273 222.732 33.155 222.752 33.0384 222.752H33.0398ZM29.7418 213.674C29.3226 213.674 28.9284 213.415 28.7771 213L27.1281 208.461C26.9351 207.929 27.21 207.343 27.743 207.15C28.276 206.958 28.8631 207.232 29.0561 207.764L30.7051 212.303C30.898 212.835 30.6232 213.421 30.0902 213.613C29.975 213.655 29.857 213.674 29.7404 213.674H29.7418ZM26.4438 204.597C26.0246 204.597 25.6304 204.338 25.4791 203.922L23.8301 199.384C23.6371 198.852 23.912 198.265 24.445 198.073C24.978 197.88 25.5651 198.155 25.7581 198.687L27.4071 203.225C27.6 203.757 27.3252 204.343 26.7922 204.536C26.6769 204.578 26.559 204.597 26.4424 204.597H26.4438ZM23.1457 195.52C22.7266 195.52 22.3324 195.26 22.1811 194.845L20.5321 190.306C20.3391 189.774 20.6139 189.188 21.147 188.996C21.68 188.803 22.2671 189.077 22.4601 189.609L24.1091 194.148C24.302 194.68 24.0272 195.266 23.4941 195.459C23.3789 195.5 23.261 195.52 23.1444 195.52H23.1457ZM19.8477 186.442C19.4286 186.442 19.0343 186.183 18.883 185.767L17.234 181.229C17.0411 180.697 17.3159 180.111 17.849 179.918C18.382 179.726 18.9691 180 19.162 180.532L20.811 185.071C21.004 185.603 20.7292 186.189 20.1961 186.381C20.0809 186.423 19.963 186.442 19.8464 186.442H19.8477ZM16.5497 177.365C16.1305 177.365 15.7363 177.106 15.585 176.69L13.936 172.151C13.7431 171.619 14.0179 171.033 14.5509 170.841C15.084 170.648 15.6711 170.923 15.864 171.455L17.513 175.993C17.706 176.525 17.4311 177.111 16.8981 177.304C16.7829 177.345 16.6649 177.365 16.5483 177.365H16.5497ZM13.5099 168.228C13.5016 168.228 13.4919 168.228 13.4835 168.228C12.9172 168.214 12.4703 167.744 12.4841 167.179C12.5369 165.091 13.9735 163.225 15.9779 162.642C16.522 162.484 17.0911 162.796 17.2493 163.337C17.4076 163.88 17.0952 164.448 16.5525 164.606C15.3949 164.943 14.5648 166.022 14.5343 167.23C14.5204 167.787 14.0637 168.228 13.5099 168.228ZM21.072 164.16C20.5459 164.16 20.0976 163.757 20.0518 163.224C20.0032 162.66 20.421 162.165 20.9859 162.117L25.8053 161.704C26.3688 161.655 26.8657 162.074 26.9143 162.636C26.9629 163.199 26.5451 163.695 25.9801 163.743L21.1608 164.156C21.1317 164.159 21.1012 164.16 21.072 164.16ZM30.7106 163.336C30.1845 163.336 29.7362 162.933 29.6904 162.399C29.6418 161.835 30.0596 161.341 30.6246 161.292L35.4439 160.879C36.0074 160.831 36.5043 161.248 36.5529 161.812C36.6015 162.376 36.1837 162.87 35.6188 162.919L30.7995 163.332C30.7703 163.334 30.7398 163.336 30.7106 163.336ZM40.3492 162.512C39.8218 162.512 39.3748 162.108 39.329 161.575C39.2804 161.011 39.6982 160.517 40.2632 160.468L45.0825 160.055C45.646 160.007 46.143 160.425 46.1915 160.988C46.2401 161.551 45.8223 162.046 45.2574 162.095L40.4381 162.507C40.4089 162.51 40.3784 162.512 40.3492 162.512ZM116.807 224.74C116.298 224.74 115.856 224.362 115.791 223.845C115.72 223.284 116.117 222.771 116.679 222.7L119.096 222.394C119.658 222.324 120.172 222.72 120.243 223.281C120.313 223.842 119.916 224.355 119.354 224.425L116.938 224.731C116.893 224.737 116.85 224.74 116.807 224.74Z" fill="#91E0F2"/>
<path d="M275.749 311.879V307.934L265.646 308.665C261.439 308.175 256.023 307.899 249.574 307.899C230.105 307.899 207.594 310.408 195.153 313.769L185.947 314.436V318.477C185.739 321.12 195.518 322.966 212.212 322.966C234.783 322.966 261.443 319.592 271.761 315.432C274.948 314.146 275.676 313.291 275.749 311.878V311.879Z" fill="#232D57"/>
<path d="M271.762 311.147C261.444 315.307 234.783 318.681 212.213 318.681C189.643 318.681 179.709 315.307 190.026 311.147C200.344 306.986 227.005 303.613 249.575 303.613C272.145 303.613 282.079 306.985 271.762 311.147Z" fill="#293463"/>
<path d="M241.113 310.476C241.113 310.476 238.986 312.355 228.473 312.355C217.96 312.355 215.833 310.476 215.833 310.476L200.559 269.812H225.838L241.113 310.476Z" fill="#232D57"/>
<path d="M331.616 269.168L148.341 296.268L94.3485 154.806C93.7364 153.203 94.0001 151.398 95.0439 150.036C96.0044 148.782 97.4591 148 99.0373 147.892L278.909 135.569L336.091 262.483C336.698 263.828 336.516 265.397 335.618 266.569L335.278 267.012C334.384 268.179 333.071 268.95 331.616 269.166V269.168Z" fill="#232D57"/>
<path d="M148.341 296.268L191.676 289.861L169.016 221.046C168.483 219.427 166.866 218.418 165.172 218.648L121.017 224.68L148.341 296.268Z" fill="#1C284C"/>
<path d="M334.685 265.02L151.531 292.102L97.8658 151.496C97.2079 149.772 98.3808 147.898 100.223 147.732L282.1 131.403L336.156 262.436C336.624 263.569 335.901 264.838 334.687 265.018L334.685 265.02Z" fill="#293463"/>
<path d="M151.531 292.104L190.515 286.339L169.016 221.045C168.483 219.425 166.866 218.417 165.172 218.647L125.56 224.058L151.531 292.102V292.104Z" fill="#232D57"/>
<path d="M282.099 131.406L223.207 136.693L250.135 203.428C250.8 205.073 252.492 206.067 254.256 205.847L309.936 198.883L282.099 131.406Z" fill="#232D57"/>
<path d="M328.633 260.954L156.114 286.464L104.996 152.534L277.517 137.046L328.633 260.954Z" fill="#DBE5FF"/>
<path d="M156.114 286.464L188.958 281.606L169.016 221.045C168.483 219.425 166.866 218.417 165.172 218.647L131.961 223.184L156.113 286.464H156.114Z" fill="#C9D3EF"/>
<path d="M254.256 205.847L303.367 199.705L277.517 137.046L225.243 141.738L250.135 203.428C250.8 205.073 252.492 206.067 254.256 205.847Z" fill="#C9D3EF"/>
<path d="M156.113 287.425C155.718 287.425 155.356 287.183 155.212 286.806L104.094 152.876C103.987 152.595 104.018 152.279 104.177 152.024C104.337 151.769 104.608 151.603 104.909 151.575L277.43 136.086C277.85 136.048 278.247 136.288 278.408 136.677L329.526 260.585C329.638 260.859 329.619 261.17 329.473 261.426C329.326 261.684 329.069 261.86 328.776 261.903L156.256 287.413C156.208 287.42 156.161 287.424 156.114 287.424L156.113 287.425ZM106.35 153.379L156.737 285.398L327.272 260.182L276.894 138.067L106.348 153.379H106.35Z" fill="#232D57"/>
<path d="M207.819 215.747L144.8 223.738C144.488 223.778 144.127 223.533 143.996 223.191L141.809 217.473C141.678 217.131 141.825 216.822 142.138 216.782L205.157 208.791C205.469 208.75 205.83 208.996 205.96 209.338L208.148 215.056C208.278 215.398 208.131 215.707 207.819 215.747Z" fill="#BACDFF"/>
<path d="M286.012 172.401L222.993 180.392C222.681 180.432 222.32 180.187 222.189 179.845L220.002 174.127C219.871 173.785 220.018 173.476 220.331 173.436L283.35 165.444C283.662 165.404 284.023 165.65 284.153 165.992L286.341 171.709C286.471 172.052 286.324 172.361 286.012 172.401Z" fill="#9DBAF9"/>
<path d="M290.116 183.124L227.097 191.115C226.785 191.155 226.424 190.91 226.294 190.568L224.106 184.85C223.976 184.508 224.123 184.199 224.435 184.159L287.454 176.168C287.766 176.128 288.127 176.373 288.258 176.715L290.445 182.433C290.576 182.775 290.429 183.084 290.116 183.124Z" fill="#BACDFF"/>
<path d="M302.055 214.619L239.411 223.288C239.099 223.328 238.738 223.083 238.607 222.741L236.42 217.023C236.289 216.681 236.436 216.372 236.749 216.332L299.393 207.663C299.705 207.623 300.066 207.868 300.196 208.21L302.384 213.928C302.514 214.27 302.367 214.579 302.055 214.619Z" fill="#91E0F2"/>
<path d="M306.222 225.111L243.515 234.012C243.203 234.053 242.842 233.807 242.712 233.465L240.524 227.748C240.394 227.405 240.541 227.096 240.853 227.056L303.56 218.155C303.872 218.115 304.233 218.36 304.363 218.702L306.551 224.42C306.681 224.762 306.534 225.071 306.222 225.111Z" fill="#9DBAF9"/>
<path d="M273.8 240.789L229.858 246.988C229.546 247.029 229.185 246.783 229.055 246.441L226.867 240.724C226.737 240.381 226.884 240.072 227.196 240.032L271.137 233.832C271.45 233.792 271.811 234.037 271.941 234.38L274.129 240.097C274.259 240.44 274.112 240.748 273.8 240.789Z" fill="#772A8C"/>
<path d="M314.632 245.839L233.853 257.424C233.541 257.464 233.18 257.218 233.049 256.876L230.862 251.159C230.731 250.816 230.878 250.507 231.191 250.467L311.97 238.882C312.282 238.842 312.643 239.087 312.773 239.429L314.961 245.147C315.091 245.489 314.944 245.798 314.632 245.839Z" fill="#9DBAF9"/>
<path d="M276.29 195.876L213.442 204.093C213.13 204.133 212.769 203.888 212.638 203.545L210.451 197.828C210.32 197.485 210.467 197.177 210.78 197.136L273.628 188.919C273.94 188.879 274.301 189.124 274.431 189.467L276.619 195.184C276.749 195.526 276.602 195.835 276.29 195.876Z" fill="#772A8C"/>
<path d="M289.621 204.896L226.713 213.351C226.401 213.392 226.04 213.146 225.909 212.804L223.722 207.087C223.591 206.744 223.738 206.435 224.051 206.395L286.958 197.94C287.271 197.9 287.632 198.145 287.762 198.487L289.95 204.205C290.08 204.547 289.933 204.856 289.621 204.896Z" fill="#9DBAF9"/>
<path d="M157.179 188.739L150.773 189.428C150.46 189.468 150.1 189.223 149.969 188.881L147.782 183.163C147.651 182.821 147.798 182.512 148.11 182.471L154.516 181.783C154.829 181.743 155.19 181.988 155.32 182.33L157.508 188.048C157.638 188.39 157.491 188.699 157.179 188.739Z" fill="#BACDFF"/>
<path d="M161.283 199.462L154.994 200.26C154.682 200.301 154.321 200.055 154.19 199.713L152.003 193.996C151.872 193.653 152.019 193.344 152.332 193.304L158.621 192.506C158.933 192.466 159.294 192.711 159.424 193.053L161.612 198.771C161.743 199.113 161.595 199.422 161.283 199.462Z" fill="#BACDFF"/>
<path d="M165.388 210.187L159.098 210.985C158.786 211.025 158.425 210.78 158.295 210.438L156.107 204.72C155.977 204.378 156.124 204.069 156.436 204.029L162.725 203.231C163.038 203.191 163.398 203.436 163.529 203.778L165.716 209.496C165.847 209.838 165.7 210.147 165.388 210.187Z" fill="#BACDFF"/>
<path d="M195.768 184.339L162.288 188.091C161.976 188.131 161.615 187.886 161.484 187.544L159.297 181.826C159.166 181.484 159.313 181.175 159.626 181.135L193.105 177.383C193.418 177.343 193.779 177.588 193.909 177.93L196.097 183.648C196.227 183.99 196.08 184.299 195.768 184.339Z" fill="#9DBAF9"/>
<path d="M199.721 194.589L166.392 198.815C166.08 198.856 165.719 198.61 165.589 198.268L163.401 192.551C163.271 192.208 163.418 191.899 163.73 191.859L197.059 187.632C197.371 187.592 197.732 187.837 197.862 188.179L200.05 193.897C200.18 194.239 200.033 194.548 199.721 194.589Z" fill="#91E0F2"/>
<path d="M203.825 205.312L170.497 209.539C170.185 209.579 169.824 209.334 169.693 208.991L167.506 203.274C167.375 202.932 167.522 202.623 167.835 202.582L201.163 198.356C201.475 198.315 201.836 198.561 201.967 198.903L204.154 204.62C204.285 204.963 204.138 205.272 203.825 205.312Z" fill="#9DBAF9"/>
<path d="M224.237 258.643L161.218 267.972C160.906 268.012 160.545 267.767 160.414 267.425L158.227 261.707C158.096 261.365 158.243 261.056 158.556 261.016L221.574 251.686C221.887 251.646 222.248 251.892 222.378 252.234L224.566 257.951C224.696 258.294 224.549 258.603 224.237 258.643Z" fill="#772A8C"/>
<path d="M173.596 231.635L167.307 232.433C166.995 232.473 166.634 232.228 166.504 231.886L164.316 226.168C164.185 225.826 164.333 225.517 164.645 225.477L170.934 224.679C171.246 224.639 171.607 224.884 171.738 225.226L173.925 230.944C174.056 231.286 173.909 231.595 173.596 231.635Z" fill="#BACDFF"/>
<path d="M177.701 242.358L171.412 243.156C171.099 243.197 170.738 242.951 170.608 242.609L168.42 236.891C168.29 236.549 168.437 236.24 168.749 236.2L175.039 235.402C175.351 235.362 175.712 235.607 175.842 235.949L178.03 241.667C178.16 242.009 178.013 242.318 177.701 242.358Z" fill="#BACDFF"/>
<path d="M181.805 253.083L175.516 253.881C175.204 253.921 174.843 253.676 174.712 253.334L172.525 247.616C172.394 247.274 172.542 246.965 172.854 246.925L179.143 246.127C179.455 246.087 179.816 246.332 179.947 246.674L182.134 252.392C182.265 252.734 182.118 253.043 181.805 253.083Z" fill="#BACDFF"/>
<path d="M212.034 226.76L178.706 230.987C178.394 231.027 178.033 230.782 177.902 230.439L175.715 224.722C175.584 224.38 175.731 224.071 176.044 224.03L209.372 219.803C209.684 219.763 210.045 220.008 210.176 220.351L212.363 226.068C212.494 226.411 212.347 226.72 212.034 226.76Z" fill="#9DBAF9"/>
<path d="M216.139 237.484L182.81 241.711C182.498 241.752 182.137 241.506 182.007 241.164L179.819 235.446C179.689 235.104 179.836 234.795 180.148 234.755L213.476 230.528C213.789 230.488 214.15 230.733 214.28 231.075L216.468 236.793C216.598 237.135 216.451 237.444 216.139 237.484Z" fill="#772A8C"/>
<path d="M220.243 248.208L186.915 252.435C186.602 252.475 186.242 252.23 186.111 251.887L183.924 246.17C183.793 245.827 183.94 245.518 184.253 245.478L217.581 241.251C217.893 241.211 218.254 241.456 218.385 241.799L220.572 247.516C220.703 247.859 220.556 248.167 220.243 248.208Z" fill="#9DBAF9"/>
<path d="M229.074 258.605C228.842 258.605 228.623 258.464 228.535 258.235L193.149 165.777C193.035 165.481 193.185 165.147 193.482 165.033C193.78 164.919 194.113 165.069 194.227 165.366L229.614 257.824C229.728 258.12 229.578 258.454 229.281 258.568C229.213 258.594 229.143 258.605 229.075 258.605H229.074Z" fill="#BACDFF"/>
<path d="M189.652 165.217C189.571 164.987 189.342 164.845 189.101 164.871L125.435 171.858C125.123 171.898 124.974 172.207 125.106 172.549L127.294 178.267C127.424 178.609 127.785 178.854 128.098 178.814L191.307 171.877C191.641 171.841 191.855 171.503 191.744 171.186L189.652 165.217Z" fill="#772A8C"/>
<path d="M265.147 163.12L262.959 157.402C262.829 157.06 262.468 156.815 262.155 156.855L198.198 163.873C197.86 163.911 197.646 164.257 197.765 164.576L200.007 170.528C200.092 170.751 200.316 170.889 200.554 170.863L264.818 163.811C265.13 163.771 265.279 163.462 265.147 163.12Z" fill="#9DBAF9"/>
<path d="M181.079 257.681L158.556 261.016C158.243 261.056 158.095 261.365 158.227 261.707L160.414 267.425C160.545 267.767 160.904 268.012 161.218 267.972L183.388 264.69L181.079 257.681Z" fill="#772A8C"/>
<path d="M174.712 253.332C174.843 253.675 175.204 253.92 175.516 253.88L179.655 253.355L177.35 246.353L172.854 246.923C172.542 246.964 172.393 247.272 172.525 247.615L174.712 253.332Z" fill="#ABBDEF"/>
<path d="M170.608 242.609C170.738 242.951 171.099 243.197 171.412 243.156L176.102 242.562L173.796 235.56L168.749 236.2C168.437 236.24 168.289 236.549 168.42 236.891L170.608 242.609Z" fill="#ABBDEF"/>
<path d="M166.504 231.884C166.634 232.227 166.995 232.472 167.307 232.432L172.547 231.767L170.242 224.765L164.645 225.474C164.333 225.514 164.184 225.823 164.316 226.165L166.504 231.883V231.884Z" fill="#ABBDEF"/>
<path d="M165.172 218.648L143.397 221.623L143.996 223.191C144.127 223.533 144.486 223.778 144.8 223.738L168.872 220.686C168.232 219.28 166.735 218.435 165.172 218.648Z" fill="#ABBDEF"/>
<path d="M287.762 198.487C287.632 198.145 287.271 197.9 286.959 197.94L249.928 202.916L250.135 203.428C250.8 205.073 252.492 206.067 254.256 205.847L288.92 201.512L287.762 198.487Z" fill="#91ACEA"/>
<path d="M189.652 165.217C189.571 164.987 189.342 164.845 189.101 164.871L125.435 171.858C125.123 171.898 124.974 172.207 125.106 172.549L127.294 178.267C127.424 178.609 127.785 178.854 128.098 178.814L191.307 171.877C191.641 171.841 191.855 171.503 191.744 171.186L189.652 165.217Z" fill="#772A8C"/>
<path d="M248.551 199.503L276.29 195.876C276.602 195.835 276.751 195.526 276.619 195.184L274.431 189.467C274.301 189.124 273.94 188.879 273.628 188.919L245.751 192.564L248.551 199.503Z" fill="#772A8C"/>
<path d="M244.287 188.936L290.116 183.124C290.429 183.084 290.577 182.775 290.445 182.433L288.258 176.715C288.127 176.373 287.768 176.128 287.454 176.168L241.487 181.998L244.287 188.936Z" fill="#ABBDEF"/>
<path d="M239.972 178.239L286.012 172.401C286.324 172.361 286.473 172.052 286.341 171.709L284.153 165.992C284.023 165.65 283.662 165.404 283.349 165.444L237.172 171.301L239.972 178.239Z" fill="#91ACEA"/>
<path d="M235.449 167.034L264.816 163.811C265.129 163.771 265.277 163.462 265.145 163.12L262.958 157.402C262.827 157.06 262.466 156.815 262.154 156.855L232.648 160.093L235.449 167.034Z" fill="#91ACEA"/>
<path d="M346.442 54.769C346.024 54.769 345.598 54.7579 345.176 54.7371C344.61 54.7094 344.174 54.2287 344.203 53.6648C344.231 53.0996 344.711 52.6645 345.277 52.6922C346.853 52.7698 348.42 52.6895 349.923 52.4539C350.481 52.3667 351.007 52.7477 351.095 53.306C351.182 53.8643 350.8 54.388 350.241 54.4753C349.004 54.6693 347.726 54.7676 346.443 54.7676L346.442 54.769ZM340.412 54.0472C340.333 54.0472 340.254 54.0375 340.173 54.0195C338.552 53.633 336.943 53.0954 335.39 52.4207C334.871 52.1949 334.632 51.5922 334.859 51.0741C335.085 50.5559 335.689 50.3176 336.208 50.5434C337.65 51.1697 339.145 51.6698 340.65 52.0286C341.201 52.1602 341.541 52.7116 341.409 53.2617C341.296 53.7313 340.876 54.0472 340.412 54.0472ZM354.769 53.2146C354.362 53.2146 353.976 52.9707 353.817 52.5703C353.607 52.0452 353.864 51.4495 354.39 51.2403C355.835 50.6654 357.199 49.9255 358.444 49.0416C358.907 48.7147 359.546 48.8227 359.874 49.2827C360.202 49.744 360.095 50.3827 359.633 50.7097C358.254 51.6878 356.747 52.5052 355.149 53.1411C355.024 53.191 354.897 53.2146 354.77 53.2146H354.769ZM331.516 50.1998C331.325 50.1998 331.13 50.1458 330.957 50.0336C329.558 49.1234 328.22 48.0871 326.98 46.9565C326.562 46.5755 326.533 45.9272 326.915 45.5101C327.297 45.0931 327.946 45.064 328.364 45.445C329.523 46.5021 330.772 47.4692 332.078 48.3184C332.553 48.6274 332.686 49.2619 332.377 49.7343C332.18 50.035 331.852 50.1985 331.518 50.1985L331.516 50.1998ZM362.618 47.6257C362.384 47.6257 362.148 47.5454 361.955 47.3819C361.523 47.0161 361.472 46.3691 361.838 45.9396C362.832 44.7731 363.683 43.4805 364.363 42.0978C364.613 41.5908 365.226 41.3816 365.736 41.6309C366.244 41.8803 366.453 42.4941 366.204 43.0011C365.447 44.5362 364.505 45.9715 363.4 47.2669C363.197 47.5052 362.908 47.6271 362.618 47.6271V47.6257ZM324.357 43.6689C324.054 43.6689 323.753 43.5359 323.552 43.2796C322.505 41.9551 321.568 40.5448 320.77 39.0887C320.498 38.5927 320.68 37.9706 321.177 37.6991C321.674 37.4275 322.297 37.6104 322.569 38.105C323.313 39.4613 324.185 40.7761 325.162 42.0105C325.513 42.4539 325.437 43.0981 324.992 43.4486C324.805 43.5969 324.58 43.6689 324.358 43.6689H324.357ZM366.886 38.9958C366.813 38.9958 366.738 38.9875 366.663 38.9709C366.111 38.849 365.761 38.3017 365.884 37.7503C366.213 36.2721 366.38 34.7245 366.38 33.1493C366.38 32.8778 366.485 32.6311 366.657 32.4483C366.474 32.2765 366.353 32.0354 366.337 31.7652C366.244 30.2357 365.994 28.691 365.594 27.1725C365.45 26.6253 365.777 26.0656 366.326 25.9229C366.874 25.7788 367.435 26.1057 367.578 26.653C368.012 28.3003 368.283 29.9794 368.384 31.6419C368.402 31.9343 368.294 32.2072 368.108 32.4053C368.306 32.5924 368.43 32.857 368.43 33.1507C368.43 34.8742 368.247 36.5713 367.886 38.1951C367.78 38.6716 367.356 38.9972 366.885 38.9972L366.886 38.9958ZM319.718 35.1734C319.289 35.1734 318.889 34.9033 318.745 34.4738C318.203 32.8584 317.819 31.2041 317.6 29.5555C317.526 28.9944 317.92 28.4804 318.482 28.407C319.045 28.3335 319.56 28.727 319.633 29.2881C319.834 30.8079 320.19 32.3333 320.689 33.8254C320.87 34.3616 320.58 34.9421 320.043 35.1208C319.934 35.1568 319.825 35.1734 319.718 35.1734ZM318.473 25.5959C318.448 25.5959 318.421 25.5959 318.396 25.5931C317.831 25.5516 317.408 25.0611 317.45 24.4973C317.577 22.7793 317.893 21.0988 318.388 19.5041C318.556 18.9638 319.129 18.6618 319.671 18.8294C320.212 18.9971 320.515 19.5693 320.347 20.1096C319.897 21.5574 319.611 23.0855 319.496 24.6497C319.455 25.1872 319.006 25.5973 318.474 25.5973L318.473 25.5959ZM364.921 23.3751C364.537 23.3751 364.167 23.1575 363.992 22.7862C363.334 21.3897 362.542 20.0278 361.638 18.7366C361.313 18.2739 361.427 17.6352 361.891 17.311C362.356 16.9868 362.994 17.1004 363.319 17.5632C364.289 18.9486 365.14 20.413 365.848 21.9148C366.09 22.426 365.869 23.0356 365.357 23.2767C365.215 23.3432 365.067 23.3737 364.921 23.3737V23.3751ZM321.35 16.4022C321.17 16.4022 320.986 16.3551 320.821 16.2539C320.337 15.9616 320.181 15.3326 320.474 14.8491C321.358 13.3888 322.423 12.0408 323.64 10.8438C324.044 10.4476 324.693 10.4517 325.091 10.8549C325.488 11.258 325.484 11.905 325.08 12.3027C323.985 13.3805 323.026 14.5928 322.229 15.9089C322.036 16.2276 321.697 16.4035 321.35 16.4035V16.4022ZM359.373 15.4365C359.106 15.4365 358.84 15.334 358.639 15.1276C357.544 14.0081 356.351 12.9718 355.094 12.0464C354.638 11.7111 354.541 11.0696 354.877 10.6152C355.213 10.1608 355.856 10.0638 356.311 10.3991C357.657 11.3897 358.934 12.4994 360.106 13.6964C360.501 14.101 360.495 14.7493 360.089 15.1442C359.889 15.3381 359.631 15.4351 359.373 15.4351V15.4365ZM351.562 9.69527C351.406 9.69527 351.247 9.65925 351.099 9.58443C349.695 8.87232 348.232 8.28213 346.753 7.83047C346.211 7.66422 345.906 7.09204 346.073 6.55172C346.238 6.0114 346.813 5.70799 347.354 5.87285C348.946 6.36053 350.519 6.99506 352.027 7.75982C352.533 8.01612 352.734 8.63126 352.477 9.13555C352.297 9.49161 351.936 9.69527 351.562 9.69527ZM328.211 9.64539C327.86 9.64539 327.519 9.46529 327.327 9.1411C327.04 8.65481 327.202 8.02721 327.689 7.73904C329.143 6.88422 330.711 6.19428 332.355 5.68859C332.896 5.52234 333.469 5.82436 333.637 6.36607C333.804 6.90639 333.5 7.47857 332.96 7.64621C331.469 8.10479 330.048 8.72962 328.732 9.50408C328.568 9.60106 328.389 9.64678 328.211 9.64678V9.64539ZM342.293 6.87452C342.253 6.87452 342.214 6.87175 342.174 6.8676C340.604 6.68472 339.03 6.65563 337.514 6.77893C336.949 6.82326 336.455 6.40486 336.409 5.84237C336.363 5.2785 336.784 4.78529 337.347 4.73957C338.996 4.60518 340.708 4.63705 342.411 4.83516C342.973 4.90028 343.377 5.40873 343.31 5.96983C343.249 6.49076 342.807 6.87452 342.293 6.87452Z" fill="#FFD03C"/>
<path d="M337.396 35.0875C337.303 34.9421 337.161 34.8285 336.973 34.7467L330.685 31.9661L336.15 27.8486C336.299 27.7253 336.406 27.5896 336.47 27.4399C336.534 27.2903 336.558 27.1421 336.54 26.9938C336.502 26.6849 336.336 26.4022 336.043 26.1459C335.75 25.8896 335.454 25.7802 335.16 25.8162C335.013 25.8342 334.857 25.8869 334.696 25.9741C334.535 26.0614 334.364 26.175 334.188 26.3163L327.496 31.3275C327.333 31.4521 327.216 31.6129 327.151 31.8068C327.084 32.0022 327.065 32.2031 327.09 32.4095C327.113 32.6007 327.18 32.7836 327.291 32.9567C327.402 33.1299 327.553 33.2657 327.745 33.3613L335.46 36.7057C335.68 36.7985 335.889 36.8817 336.086 36.9551C336.281 37.0285 336.46 37.0548 336.624 37.0355C336.875 37.005 337.106 36.8387 337.315 36.5367C337.526 36.2347 337.61 35.9063 337.565 35.553C337.546 35.3909 337.489 35.2372 337.396 35.0917V35.0875Z" fill="#FFD03C"/>
<path d="M348.278 17.9442C347.995 17.7765 347.729 17.7086 347.477 17.7391C347.286 17.7627 347.108 17.8444 346.946 17.9829C346.783 18.1229 346.663 18.3016 346.585 18.5205L339.843 37.9859C339.777 38.1729 339.753 38.3558 339.775 38.5331C339.815 38.8573 339.981 39.1067 340.271 39.2798C340.562 39.453 340.833 39.5251 341.084 39.4946C341.291 39.4697 341.471 39.3879 341.627 39.2494C341.782 39.1108 341.899 38.9321 341.977 38.7132L348.697 19.2506C348.764 19.0636 348.788 18.8807 348.766 18.7034C348.724 18.3639 348.561 18.1118 348.28 17.9442H348.278Z" fill="#FFD03C"/>
<path d="M361.834 28.3488C361.809 28.1423 361.741 27.9525 361.63 27.7794C361.519 27.6062 361.369 27.4787 361.179 27.397L353.464 24.0525C353.243 23.9597 353.034 23.8766 352.838 23.8032C352.641 23.7297 352.462 23.7034 352.299 23.7228C352.064 23.7519 351.836 23.9182 351.619 24.2202C351.401 24.5236 351.314 24.8519 351.358 25.2052C351.378 25.3673 351.435 25.5211 351.528 25.6666C351.621 25.812 351.762 25.9256 351.951 26.0074L358.239 28.788L352.774 32.9055C352.624 33.0288 352.517 33.1618 352.452 33.3031C352.387 33.4458 352.365 33.5982 352.384 33.7603C352.422 34.0692 352.588 34.3519 352.881 34.6082C353.174 34.8645 353.468 34.9739 353.764 34.9379C353.926 34.9185 354.085 34.8617 354.237 34.7675C354.39 34.6747 354.556 34.5638 354.735 34.4378L361.427 29.4266C361.592 29.3019 361.708 29.1426 361.773 28.9473C361.84 28.7519 361.859 28.5524 361.834 28.3446V28.3488Z" fill="#FFD03C"/>
<path d="M75.7139 99.2927C75.292 99.2927 74.8658 99.2817 74.4453 99.2609C73.8789 99.2332 73.4431 98.7524 73.4722 98.1886C73.5 97.6233 73.9817 97.1883 74.5466 97.2174C74.9339 97.2368 75.3322 97.2451 75.7139 97.2465C76.8896 97.2465 78.0597 97.1564 79.1924 96.9791C79.7518 96.8918 80.2765 97.2728 80.3639 97.8311C80.4513 98.3894 80.0696 98.9131 79.5103 99.0004C78.2735 99.1944 76.9951 99.2927 75.7139 99.2927ZM69.6829 98.5723C69.6037 98.5723 69.5232 98.5626 69.4441 98.5446C67.8229 98.1581 66.2127 97.6205 64.6609 96.9458C64.1418 96.72 63.903 96.1173 64.1293 95.5992C64.3555 95.081 64.9593 94.8441 65.4785 95.0686C66.9206 95.6948 68.4156 96.1949 69.9202 96.5537C70.4713 96.6854 70.8113 97.2368 70.6795 97.7868C70.5671 98.2564 70.1465 98.5723 69.6829 98.5723ZM84.0408 97.7383C83.6328 97.7383 83.2483 97.4945 83.0886 97.0941C82.879 96.569 83.1358 95.9732 83.6619 95.764C85.1069 95.1891 86.4713 94.4493 87.7164 93.5654C88.1786 93.2384 88.8185 93.3465 89.1461 93.8064C89.4737 94.2678 89.3668 94.9065 88.9046 95.2334C87.5262 96.2115 86.0188 97.0289 84.4212 97.6649C84.2962 97.7147 84.1685 97.7383 84.0422 97.7383H84.0408ZM60.7868 94.725C60.5953 94.725 60.401 94.6709 60.2275 94.5587C58.8283 93.6485 57.4902 92.6122 56.2507 91.4817C55.8329 91.1007 55.8038 90.4523 56.1855 90.0353C56.5672 89.6183 57.2168 89.5892 57.6346 89.9702C58.7922 91.0272 60.0429 91.9943 61.349 92.8436C61.8237 93.1525 61.957 93.787 61.6474 94.2595C61.4503 94.5601 61.1228 94.7236 60.7868 94.7236V94.725ZM91.8889 92.1508C91.6543 92.1508 91.4183 92.0705 91.224 91.907C90.7923 91.5412 90.741 90.8942 91.1074 90.4648C92.1012 89.2982 92.9521 88.0056 93.6323 86.6229C93.8821 86.1159 94.497 85.9067 95.005 86.1561C95.5131 86.4054 95.7227 87.0192 95.4728 87.5262C94.7163 89.0613 93.7738 90.4966 92.669 91.792C92.4663 92.0303 92.1776 92.1522 91.8875 92.1522L91.8889 92.1508ZM53.6273 88.1926C53.3247 88.1926 53.0235 88.0596 52.8222 87.8033C51.7756 86.4789 50.8387 85.0685 50.0406 83.6124C49.7685 83.1164 49.9503 82.4943 50.4473 82.2228C50.9442 81.9513 51.5674 82.1327 51.8395 82.6287C52.5835 83.9865 53.4566 85.2999 54.4324 86.5343C54.7835 86.9776 54.7072 87.6218 54.263 87.9724C54.0742 88.1206 53.8508 88.1926 53.6287 88.1926H53.6273ZM96.1571 83.5196C96.0836 83.5196 96.0086 83.5113 95.9337 83.4946C95.3812 83.3727 95.0314 82.8255 95.155 82.2741C95.4839 80.7958 95.6505 79.2483 95.6505 77.673C95.6505 77.4015 95.756 77.1549 95.9295 76.972C95.7463 76.8002 95.6255 76.5591 95.6088 76.289C95.5158 74.7595 95.266 73.2147 94.8649 71.6963C94.7205 71.149 95.0481 70.5893 95.5964 70.4466C96.1446 70.3039 96.7054 70.6295 96.8484 71.1767C97.2828 72.824 97.5535 74.5018 97.6548 76.1657C97.6729 76.4594 97.5646 76.7309 97.3786 76.9291C97.5771 77.1161 97.7006 77.3807 97.7006 77.6744C97.7006 79.3979 97.5174 81.0951 97.1565 82.7188C97.051 83.1968 96.6263 83.521 96.1557 83.521L96.1571 83.5196ZM48.9884 79.6972C48.5595 79.6972 48.1598 79.427 48.0154 78.9975C47.4741 77.3835 47.0896 75.7279 46.8703 74.0792C46.7967 73.5181 47.1909 73.0041 47.7531 72.9307C48.3138 72.8559 48.8302 73.2507 48.9038 73.8118C49.105 75.3317 49.4604 76.857 49.9601 78.3491C50.1391 78.8853 49.8504 79.4658 49.3132 79.6445C49.205 79.6805 49.0953 79.6972 48.987 79.6972H48.9884ZM47.7433 70.121C47.7184 70.121 47.692 70.121 47.667 70.1183C47.1021 70.0767 46.6787 69.5862 46.7204 69.0224C46.8481 67.3044 47.1631 65.6253 47.6573 64.0293C47.8252 63.4889 48.3985 63.1869 48.9398 63.3546C49.4812 63.5222 49.7838 64.0944 49.6158 64.6347C49.1661 66.0839 48.8802 67.6106 48.765 69.1734C48.7247 69.7109 48.275 70.121 47.7433 70.121ZM94.1917 67.9002C93.8072 67.9002 93.4379 67.6827 93.263 67.3127C92.6051 65.9162 91.8125 64.5543 90.9089 63.2631C90.5841 62.8004 90.6979 62.1617 91.1615 61.8375C91.6251 61.5133 92.265 61.6269 92.5898 62.0897C93.5601 63.4751 94.411 64.9395 95.1189 66.4413C95.3604 66.9525 95.1397 67.5621 94.6275 67.8032C94.4859 67.8697 94.3374 67.9002 94.1917 67.9002ZM50.6208 60.9273C50.4403 60.9273 50.2571 60.8802 50.0919 60.779C49.6075 60.4867 49.452 59.8577 49.7449 59.3742C50.6291 57.914 51.6951 56.5659 52.9111 55.3689C53.315 54.9727 53.9632 54.9768 54.3616 55.38C54.7586 55.7832 54.7544 56.4302 54.3505 56.8278C53.2553 57.9056 52.2961 59.1179 51.4994 60.4327C51.3065 60.7513 50.9678 60.9273 50.6208 60.9273ZM88.6436 59.9602C88.3771 59.9602 88.1106 59.8577 87.9093 59.6513C86.8142 58.5319 85.6218 57.4956 84.3643 56.5701C83.909 56.2348 83.8118 55.5934 84.1477 55.1389C84.4836 54.6845 85.1263 54.5875 85.5816 54.9228C86.928 55.9134 88.205 57.0231 89.3765 58.2215C89.7721 58.6261 89.7652 59.2745 89.3599 59.6693C89.16 59.8633 88.9018 59.9602 88.6436 59.9602ZM80.8331 54.2204C80.6762 54.2204 80.518 54.1844 80.3695 54.1096C78.9661 53.3974 77.5031 52.8072 76.0235 52.3556C75.4821 52.1907 75.1768 51.6172 75.3433 51.0768C75.5099 50.5365 76.0832 50.2317 76.6245 50.398C78.2166 50.8843 79.7893 51.5202 81.2981 52.2849C81.8033 52.5412 82.0046 53.1578 81.7478 53.6607C81.5673 54.0167 81.2064 54.2204 80.8331 54.2204ZM57.4819 54.1705C57.1307 54.1705 56.7893 53.9904 56.5977 53.6662C56.3104 53.1799 56.4728 52.5523 56.96 52.2642C58.4133 51.4093 59.9832 50.7194 61.6252 50.2137C62.1666 50.0475 62.7398 50.3509 62.9078 50.8912C63.0744 51.4315 62.7704 52.0037 62.229 52.1713C60.7383 52.6299 59.3169 53.2547 58.001 54.0292C57.8372 54.1262 57.6582 54.1719 57.4805 54.1719L57.4819 54.1705ZM71.5637 51.3996C71.5234 51.3996 71.4846 51.3969 71.4443 51.3927C69.8744 51.2098 68.299 51.1807 66.7846 51.304C66.2197 51.347 65.7255 50.93 65.6797 50.3675C65.6339 49.8036 66.0545 49.3104 66.618 49.2647C68.2671 49.1303 69.9785 49.1622 71.6817 49.3617C72.2438 49.4268 72.6477 49.9352 72.5811 50.4963C72.52 51.0173 72.0772 51.401 71.5637 51.401V51.3996Z" fill="#FFD03C"/>
<path d="M65.5895 79.0072C65.4937 78.8493 65.3452 78.726 65.144 78.6345L58.4938 75.5284L64.418 71.2529C64.5804 71.1255 64.697 70.9814 64.7692 70.8234C64.84 70.6655 64.8691 70.5062 64.8525 70.3496C64.8191 70.0185 64.6484 69.7137 64.3403 69.4339C64.0321 69.154 63.7212 69.0307 63.4047 69.0626C63.2465 69.0792 63.0799 69.1318 62.9064 69.2205C62.7315 69.3092 62.5483 69.4283 62.3554 69.5752L55.1028 74.7775C54.9251 74.9077 54.7974 75.0753 54.7225 75.2818C54.6475 75.4882 54.6211 75.7029 54.6434 75.9232C54.6642 76.1283 54.7322 76.325 54.8474 76.512C54.9626 76.6991 55.1208 76.8473 55.3235 76.954L63.4838 80.6919C63.7184 80.7958 63.9391 80.8886 64.1473 80.9718C64.3555 81.0549 64.5457 81.0868 64.7192 81.0687C64.9871 81.041 65.237 80.8692 65.4688 80.5506C65.6992 80.2333 65.7963 79.8842 65.7575 79.506C65.7394 79.3328 65.6825 79.1665 65.5867 79.01L65.5895 79.0072Z" fill="#FFD03C"/>
<path d="M77.5809 60.9467C77.2825 60.7624 76.9993 60.6834 76.7314 60.7098C76.526 60.7306 76.3344 60.8137 76.1581 60.9591C75.9819 61.1046 75.8486 61.293 75.7612 61.5258L68.1366 82.1563C68.0617 82.3544 68.0325 82.5484 68.0519 82.7382C68.0866 83.0846 68.2588 83.3547 68.5655 83.5459C68.8723 83.7385 69.1596 83.8202 69.4289 83.7925C69.6496 83.7703 69.8453 83.6858 70.0132 83.5417C70.1812 83.3963 70.3103 83.2092 70.3991 82.9765L78.0001 62.3487C78.075 62.1506 78.1042 61.9553 78.0848 61.7669C78.0473 61.4039 77.8807 61.1309 77.5823 60.9453L77.5809 60.9467Z" fill="#FFD03C"/>
<path d="M91.8223 72.3488C91.8 72.1285 91.7306 71.9235 91.6168 71.7364C91.5016 71.5494 91.3448 71.4095 91.1435 71.318L82.9832 67.5801C82.7486 67.4762 82.5279 67.3834 82.3211 67.3003C82.1128 67.2185 81.9227 67.1853 81.7492 67.2033C81.4966 67.2282 81.2509 67.4014 81.0121 67.7201C80.7734 68.0387 80.6734 68.3878 80.7109 68.7661C80.729 68.9393 80.7845 69.1055 80.8816 69.2621C80.9774 69.42 81.1259 69.5447 81.3272 69.6347L87.9774 72.7409L82.0532 77.0163C81.8908 77.1452 81.7728 77.2837 81.7006 77.4347C81.6284 77.5858 81.6007 77.7478 81.6187 77.921C81.652 78.2521 81.8227 78.5569 82.1309 78.8368C82.439 79.1167 82.75 79.24 83.0664 79.2081C83.2399 79.1901 83.4093 79.1333 83.5758 79.0377C83.741 78.9421 83.9215 78.8271 84.1158 78.6969L91.3684 73.4946C91.546 73.3657 91.6737 73.1967 91.7487 72.9903C91.8236 72.7838 91.85 72.5705 91.8278 72.3488H91.8223Z" fill="#FFD03C"/>
<path d="M428.365 135.202C427.801 135.202 427.342 134.747 427.339 134.184C427.336 133.618 427.793 133.158 428.359 133.156C429.936 133.147 431.493 132.985 432.988 132.672C433.542 132.556 434.086 132.91 434.203 133.465C434.319 134.017 433.964 134.56 433.409 134.677C431.779 135.018 430.083 135.195 428.369 135.203C428.367 135.203 428.366 135.203 428.363 135.203L428.365 135.202ZM423.518 134.775C423.458 134.775 423.397 134.77 423.336 134.759C421.695 134.465 420.059 134.023 418.471 133.445C417.939 133.251 417.664 132.664 417.859 132.133C418.053 131.602 418.64 131.328 419.173 131.522C420.651 132.06 422.174 132.471 423.699 132.744C424.257 132.844 424.628 133.376 424.527 133.933C424.438 134.427 424.006 134.775 423.519 134.775H423.518ZM437.821 133.196C437.431 133.196 437.058 132.973 436.886 132.594C436.653 132.079 436.882 131.474 437.397 131.24C438.814 130.599 440.148 129.801 441.361 128.868C441.809 128.523 442.453 128.606 442.799 129.053C443.145 129.501 443.061 130.144 442.613 130.489C441.275 131.518 439.804 132.398 438.242 133.103C438.105 133.165 437.962 133.194 437.82 133.194L437.821 133.196ZM414.401 131.474C414.23 131.474 414.058 131.431 413.898 131.342C412.448 130.526 411.045 129.583 409.727 128.541C409.283 128.189 409.21 127.546 409.562 127.103C409.915 126.659 410.559 126.586 411.003 126.938C412.236 127.914 413.549 128.796 414.906 129.559C415.4 129.836 415.574 130.461 415.296 130.953C415.107 131.287 414.76 131.474 414.402 131.474H414.401ZM445.456 127.31C445.231 127.31 445.005 127.237 444.814 127.086C444.373 126.733 444.302 126.088 444.656 125.646C445.617 124.449 446.437 123.135 447.092 121.735C447.332 121.223 447.943 121.003 448.455 121.242C448.969 121.482 449.19 122.091 448.949 122.603C448.225 124.149 447.318 125.605 446.255 126.928C446.053 127.18 445.756 127.312 445.454 127.312L445.456 127.31ZM406.8 125.457C406.524 125.457 406.247 125.346 406.046 125.127C404.907 123.893 403.861 122.565 402.938 121.181C402.625 120.71 402.752 120.076 403.224 119.763C403.696 119.449 404.332 119.577 404.646 120.048C405.508 121.342 406.486 122.585 407.554 123.74C407.937 124.156 407.91 124.803 407.494 125.187C407.297 125.368 407.047 125.458 406.799 125.458L406.8 125.457ZM449.562 118.592C449.491 118.592 449.419 118.585 449.348 118.57C448.794 118.452 448.44 117.909 448.558 117.356C448.874 115.871 449.034 114.319 449.034 112.744C449.034 111.861 448.984 110.965 448.884 110.078C448.822 109.517 449.226 109.01 449.789 108.946C450.35 108.883 450.859 109.287 450.923 109.85C451.032 110.811 451.086 111.784 451.086 112.743C451.086 114.462 450.911 116.156 450.565 117.78C450.462 118.261 450.036 118.59 449.563 118.59L449.562 118.592ZM401.438 117.388C401.046 117.388 400.672 117.163 400.502 116.784C399.807 115.236 399.249 113.636 398.845 112.028C398.708 111.479 399.041 110.923 399.59 110.786C400.14 110.649 400.697 110.982 400.834 111.53C401.209 113.021 401.727 114.508 402.373 115.946C402.605 116.461 402.373 117.067 401.858 117.298C401.722 117.359 401.579 117.388 401.439 117.388H401.438ZM399.102 108.004C398.562 108.004 398.109 107.583 398.079 107.039C398.052 106.558 398.039 106.07 398.039 105.59C398.039 104.372 398.127 103.158 398.301 101.985C398.384 101.425 398.907 101.04 399.465 101.122C400.026 101.205 400.412 101.726 400.33 102.284C400.171 103.359 400.09 104.47 400.09 105.59C400.09 106.032 400.103 106.48 400.128 106.924C400.159 107.488 399.726 107.971 399.161 108.003C399.142 108.003 399.123 108.004 399.103 108.004H399.102ZM448.909 106.237C448.471 106.237 448.064 105.953 447.929 105.512C447.478 104.041 446.885 102.582 446.169 101.176C445.912 100.671 446.114 100.055 446.619 99.7998C447.124 99.5435 447.74 99.7444 447.997 100.249C448.766 101.76 449.403 103.33 449.889 104.913C450.056 105.454 449.75 106.026 449.209 106.192C449.109 106.223 449.008 106.238 448.908 106.238L448.909 106.237ZM400.552 98.4684C400.429 98.4684 400.304 98.4462 400.182 98.3991C399.654 98.1941 399.392 97.6011 399.597 97.0747C400.218 95.4814 401.023 93.9685 401.99 92.5775C402.314 92.1134 402.952 91.9984 403.417 92.3212C403.882 92.644 403.997 93.2813 403.674 93.7455C402.798 95.0034 402.069 96.3723 401.509 97.8159C401.35 98.2204 400.963 98.4684 400.552 98.4684ZM444.533 97.5997C444.218 97.5997 443.905 97.4543 443.705 97.1813C442.782 95.9248 441.75 94.7277 440.634 93.6222C440.231 93.2245 440.23 92.5762 440.628 92.1744C441.026 91.7726 441.676 91.7712 442.079 92.1688C443.27 93.3492 444.374 94.628 445.36 95.9705C445.694 96.4263 445.596 97.0664 445.139 97.4016C444.956 97.536 444.744 97.5997 444.534 97.5997H444.533ZM437.645 90.7751C437.437 90.7751 437.227 90.7114 437.046 90.5811C435.77 89.6598 434.418 88.8383 433.029 88.14C432.523 87.8851 432.319 87.2699 432.575 86.7656C432.83 86.2613 433.446 86.0577 433.952 86.3126C435.438 87.0607 436.883 87.9391 438.248 88.9228C438.707 89.2539 438.81 89.894 438.478 90.3525C438.277 90.6296 437.964 90.7765 437.647 90.7765L437.645 90.7751ZM406.06 90.5617C405.777 90.5617 405.494 90.4454 405.291 90.2168C404.916 89.7928 404.955 89.1458 405.38 88.7718C406.649 87.6523 408.057 86.6756 409.569 85.8706C410.069 85.6046 410.691 85.7931 410.957 86.2918C411.224 86.7906 411.035 87.4099 410.535 87.6773C409.165 88.4074 407.888 89.2913 406.74 90.3054C406.545 90.4772 406.303 90.5631 406.061 90.5631L406.06 90.5617ZM428.98 86.4276C428.878 86.4276 428.777 86.4124 428.676 86.3819C427.279 85.9496 425.847 85.6282 424.418 85.4273C424.31 85.4121 424.203 85.3982 424.095 85.3844C423.533 85.3123 423.136 84.7997 423.208 84.2386C423.28 83.6775 423.795 83.2827 424.356 83.3533C424.471 83.3686 424.588 83.3838 424.703 83.4004C426.241 83.6165 427.782 83.9615 429.282 84.427C429.823 84.5947 430.126 85.1682 429.958 85.7086C429.822 86.1477 429.417 86.429 428.98 86.429V86.4276ZM414.569 86.0092C414.119 86.0092 413.705 85.7099 413.581 85.2555C413.431 84.711 413.753 84.1472 414.298 83.9975C415.908 83.557 417.592 83.2813 419.303 83.1774C419.868 83.1427 420.356 83.5722 420.389 84.1375C420.424 84.7013 419.993 85.1862 419.427 85.2209C417.856 85.3165 416.312 85.5686 414.839 85.9718C414.749 85.9967 414.658 86.0092 414.567 86.0092H414.569Z" fill="#BACDFF"/>
<path d="M418.87 113.331C418.59 113.331 418.321 113.421 418.06 113.597C417.752 113.822 417.423 113.994 417.071 114.114C416.72 114.236 416.365 114.323 416.004 114.377C415.349 114.476 414.727 114.472 414.136 114.362C413.544 114.254 413.013 114.03 412.537 113.693C412.062 113.355 411.662 112.903 411.337 112.339C411.013 111.774 410.789 111.086 410.666 110.271C410.56 109.577 410.568 108.928 410.689 108.323C410.81 107.719 411.039 107.176 411.376 106.695C411.714 106.214 412.149 105.818 412.682 105.505C413.215 105.193 413.844 104.981 414.566 104.873C414.953 104.815 415.331 104.798 415.697 104.826C416.064 104.853 416.418 104.916 416.761 105.013C417.062 105.105 417.346 105.116 417.617 105.048C417.886 104.98 418.09 104.812 418.228 104.546C418.435 104.201 418.48 103.847 418.364 103.482C418.247 103.118 418.001 102.875 417.628 102.754C417.095 102.575 416.538 102.461 415.957 102.413C415.375 102.364 414.791 102.384 414.202 102.472C413.16 102.629 412.224 102.952 411.396 103.438C410.567 103.924 409.877 104.534 409.325 105.265C408.772 105.997 408.385 106.823 408.162 107.743C407.938 108.664 407.905 109.636 408.06 110.664C408.241 111.852 408.592 112.866 409.115 113.708C409.638 114.551 410.284 115.22 411.05 115.718C411.816 116.217 412.653 116.555 413.561 116.731C414.469 116.909 415.404 116.924 416.368 116.778C416.755 116.72 417.131 116.633 417.496 116.516C417.861 116.4 418.219 116.257 418.569 116.088C418.919 115.919 419.255 115.723 419.577 115.497C419.886 115.286 420.052 114.999 420.071 114.634C420.09 114.269 419.942 113.94 419.624 113.647C419.401 113.435 419.148 113.33 418.869 113.331H418.87Z" fill="#BACDFF"/>
<path d="M430.76 107.557C430.515 107.382 430.233 107.32 429.911 107.367L427.104 107.79L426.653 104.808C426.596 104.435 426.432 104.146 426.163 103.941C425.893 103.736 425.564 103.662 425.176 103.722C424.802 103.779 424.506 103.946 424.288 104.224C424.07 104.502 423.989 104.828 424.046 105.202L424.498 108.183L421.751 108.597C421.43 108.646 421.177 108.786 420.994 109.019C420.811 109.251 420.743 109.527 420.791 109.847C420.84 110.167 420.987 110.418 421.233 110.599C421.479 110.781 421.763 110.847 422.084 110.799L424.831 110.385L425.228 113.006C425.285 113.38 425.454 113.668 425.738 113.87C426.022 114.073 426.351 114.146 426.725 114.091C427.113 114.032 427.408 113.865 427.614 113.589C427.818 113.312 427.891 112.988 427.836 112.614L427.439 109.992L430.245 109.57C430.566 109.521 430.817 109.379 431.001 109.139C431.182 108.901 431.25 108.621 431.202 108.301C431.153 107.981 431.006 107.733 430.762 107.558L430.76 107.557Z" fill="#BACDFF"/>
<path d="M442.789 106.552C442.741 106.232 442.594 105.986 442.349 105.81C442.104 105.635 441.822 105.573 441.5 105.62L438.693 106.043L438.242 103.061C438.185 102.688 438.023 102.399 437.752 102.194C437.481 101.989 437.152 101.915 436.765 101.974C436.39 102.03 436.095 102.198 435.877 102.476C435.659 102.755 435.578 103.081 435.635 103.455L436.086 106.436L433.339 106.85C433.019 106.899 432.766 107.039 432.583 107.271C432.4 107.504 432.332 107.78 432.38 108.1C432.429 108.42 432.576 108.671 432.822 108.852C433.067 109.034 433.352 109.1 433.673 109.052L436.419 108.638L436.816 111.259C436.873 111.633 437.043 111.921 437.327 112.123C437.61 112.326 437.939 112.399 438.314 112.342C438.701 112.284 438.997 112.116 439.202 111.841C439.407 111.564 439.48 111.239 439.425 110.865L439.028 108.244L441.834 107.821C442.155 107.773 442.406 107.63 442.589 107.391C442.771 107.152 442.839 106.872 442.791 106.552H442.789Z" fill="#BACDFF"/>
<path d="M288.984 34.8866L263.742 37.9969C261.589 38.2629 259.538 37.0105 258.792 34.9767L251.495 15.043C250.467 12.232 252.327 9.19513 255.303 8.82937L280.544 5.71907C282.697 5.45307 284.749 6.7055 285.494 8.73932L292.791 28.673C293.82 31.484 291.96 34.5209 288.984 34.8866Z" fill="#D0DDFF"/>
<path d="M280.725 26.8414C280.671 26.5796 280.539 26.3537 280.33 26.1639L274.269 21.0503L277.7 14.1037C277.776 13.961 277.826 13.8197 277.849 13.6784C277.872 13.5371 277.869 13.3958 277.84 13.2531C277.782 12.9704 277.624 12.7405 277.364 12.5617C277.106 12.383 276.794 12.3318 276.43 12.408C276.066 12.4828 275.779 12.7321 275.572 13.1533L272.541 19.5928L266.977 14.899C266.643 14.6108 266.283 14.5055 265.899 14.5845C265.555 14.6551 265.28 14.8338 265.076 15.1179C264.87 15.4033 264.807 15.7261 264.882 16.0904C264.94 16.3731 265.081 16.5975 265.305 16.761L271.398 21.8899L267.905 28.8281C267.773 29.108 267.734 29.3795 267.788 29.6414C267.855 29.9642 268.041 30.1997 268.346 30.348C268.651 30.4962 268.935 30.5419 269.198 30.4879C269.602 30.4048 269.894 30.1762 270.069 29.8021L273.218 23.4222L278.651 27.9955C279.009 28.3003 279.381 28.4125 279.766 28.3335C280.089 28.267 280.347 28.0869 280.54 27.7946C280.733 27.5023 280.793 27.185 280.722 26.8414H280.725Z" fill="white"/>
<path d="M54.9473 302.687C54.5253 302.687 54.0992 302.676 53.6786 302.655C53.1137 302.628 52.6765 302.147 52.7056 301.583C52.7334 301.018 53.2164 300.58 53.78 300.612C54.1672 300.631 54.5586 300.641 54.9459 300.641C56.123 300.641 57.2931 300.551 58.4258 300.373C58.9851 300.286 59.5098 300.667 59.5973 301.225C59.6847 301.784 59.303 302.307 58.7436 302.395C57.5069 302.589 56.2299 302.687 54.9487 302.687H54.9473Z" fill="#BACDFF"/>
<path d="M48.9162 301.965C48.8371 301.965 48.7566 301.956 48.6775 301.938C47.0563 301.551 45.4475 301.014 43.8943 300.339C43.3752 300.113 43.1364 299.51 43.3627 298.992C43.5889 298.474 44.1927 298.236 44.7118 298.462C46.154 299.088 47.649 299.588 49.1536 299.947C49.7047 300.078 50.0447 300.63 49.9129 301.18C49.8004 301.649 49.3799 301.965 48.9162 301.965Z" fill="#BACDFF"/>
<path d="M63.2729 301.131C62.8648 301.131 62.4803 300.887 62.3207 300.487C62.1111 299.962 62.3679 299.366 62.8939 299.157C64.3389 298.582 65.7034 297.842 66.9484 296.958C67.4107 296.631 68.0505 296.738 68.3781 297.199C68.7057 297.661 68.5988 298.299 68.1366 298.626C66.7583 299.605 65.2495 300.422 63.6532 301.058C63.5283 301.108 63.4006 301.131 63.2743 301.131H63.2729Z" fill="#BACDFF"/>
<path d="M40.0203 298.118C39.8287 298.118 39.6344 298.064 39.4609 297.952C38.0617 297.041 36.7236 296.007 35.4841 294.875C35.0663 294.494 35.0372 293.845 35.4189 293.428C35.8006 293.011 36.4502 292.982 36.868 293.363C38.027 294.42 39.2763 295.387 40.5824 296.236C41.0571 296.545 41.1904 297.18 40.8809 297.652C40.6837 297.953 40.3562 298.117 40.0203 298.117V298.118Z" fill="#BACDFF"/>
<path d="M71.1223 295.544C70.8877 295.544 70.6517 295.463 70.4588 295.3C70.0271 294.934 69.9758 294.287 70.3422 293.858C71.3361 292.691 72.1869 291.399 72.8671 290.016C73.1169 289.509 73.7318 289.3 74.2399 289.549C74.7479 289.798 74.9575 290.412 74.7076 290.919C73.9511 292.454 73.0087 293.89 71.9038 295.185C71.7011 295.423 71.4124 295.545 71.1223 295.545V295.544Z" fill="#BACDFF"/>
<path d="M32.8607 291.586C32.5581 291.586 32.2569 291.453 32.0556 291.196C31.009 289.872 30.0721 288.463 29.274 287.005C29.0019 286.509 29.1837 285.887 29.6807 285.616C30.1776 285.344 30.8008 285.526 31.0729 286.022C31.8169 287.378 32.69 288.693 33.6658 289.927C34.0169 290.371 33.9406 291.015 33.4964 291.365C33.3076 291.514 33.0842 291.586 32.8621 291.586H32.8607Z" fill="#BACDFF"/>
<path d="M75.3906 286.914C75.317 286.914 75.242 286.906 75.1671 286.889C74.6146 286.767 74.2648 286.22 74.3884 285.668C74.7174 284.19 74.8839 282.643 74.8839 281.067C74.8839 280.796 74.9894 280.549 75.1615 280.366C74.9783 280.195 74.8575 279.955 74.8409 279.683C74.7479 278.154 74.498 276.609 74.0983 275.091C73.9539 274.543 74.2815 273.984 74.8298 273.841C75.3767 273.697 75.9388 274.024 76.0818 274.571C76.5163 276.218 76.7869 277.896 76.8883 279.56C76.9063 279.852 76.798 280.125 76.612 280.323C76.8105 280.51 76.9341 280.775 76.9341 281.069C76.9341 282.792 76.7508 284.489 76.39 286.113C76.2845 286.59 75.8597 286.915 75.3892 286.915L75.3906 286.914Z" fill="#BACDFF"/>
<path d="M28.2204 283.09C27.7915 283.09 27.3918 282.82 27.2474 282.39C26.7061 280.776 26.3216 279.121 26.1023 277.472C26.0287 276.912 26.4229 276.397 26.9851 276.324C27.5458 276.249 28.0622 276.644 28.1358 277.205C28.337 278.725 28.6924 280.25 29.1921 281.742C29.3711 282.278 29.0824 282.859 28.5452 283.037C28.437 283.073 28.3273 283.09 28.219 283.09H28.2204Z" fill="#BACDFF"/>
<path d="M26.9767 273.514C26.9518 273.514 26.9254 273.514 26.9004 273.511C26.3355 273.47 25.9121 272.979 25.9538 272.415C26.0815 270.697 26.3965 269.018 26.8907 267.422C27.0586 266.882 27.6319 266.58 28.1732 266.748C28.7146 266.915 29.0172 267.487 28.8492 268.028C28.3995 269.477 28.1136 271.004 27.9984 272.566C27.9581 273.104 27.5084 273.514 26.9767 273.514Z" fill="#BACDFF"/>
<path d="M73.4251 271.293C73.0406 271.293 72.6714 271.076 72.4965 270.704C71.8385 269.308 71.0459 267.945 70.1423 266.655C69.8175 266.192 69.9313 265.553 70.395 265.229C70.8586 264.905 71.4985 265.018 71.8233 265.481C72.7935 266.867 73.6444 268.331 74.3523 269.833C74.5938 270.344 74.3731 270.954 73.8609 271.195C73.7193 271.261 73.5708 271.292 73.4251 271.292V271.293Z" fill="#BACDFF"/>
<path d="M29.8542 264.32C29.6737 264.32 29.4905 264.273 29.3253 264.172C28.8409 263.88 28.6855 263.251 28.9783 262.767C29.8625 261.307 30.9272 259.959 32.1445 258.762C32.5484 258.366 33.1966 258.37 33.595 258.773C33.992 259.176 33.9878 259.823 33.5839 260.221C32.4887 261.299 31.5296 262.512 30.7328 263.827C30.5399 264.146 30.2012 264.322 29.8542 264.322V264.32Z" fill="#BACDFF"/>
<path d="M67.877 263.355C67.6105 263.355 67.344 263.252 67.1427 263.046C66.0476 261.928 64.8552 260.89 63.5976 259.964C63.1424 259.629 63.0452 258.988 63.3811 258.533C63.717 258.079 64.3597 257.982 64.815 258.317C66.1614 259.308 67.4384 260.417 68.6099 261.614C69.0055 262.019 68.9985 262.667 68.5932 263.062C68.3934 263.256 68.1352 263.353 67.877 263.353V263.355Z" fill="#BACDFF"/>
<path d="M60.0665 257.613C59.9096 257.613 59.7514 257.577 59.6029 257.503C58.1995 256.79 56.7365 256.2 55.2569 255.749C54.7155 255.582 54.4102 255.01 54.5767 254.47C54.7433 253.929 55.3166 253.626 55.8579 253.791C57.45 254.277 59.0227 254.913 60.5315 255.678C61.0367 255.934 61.238 256.549 60.9812 257.054C60.8007 257.41 60.4399 257.613 60.0665 257.613Z" fill="#BACDFF"/>
<path d="M36.7153 257.563C36.3641 257.563 36.0227 257.383 35.8311 257.059C35.5438 256.573 35.7062 255.945 36.1934 255.657C37.6467 254.802 39.2152 254.112 40.8586 253.607C41.4 253.44 41.9733 253.744 42.1412 254.283C42.3078 254.823 42.0038 255.397 41.4624 255.563C39.9717 256.022 38.5503 256.646 37.2345 257.421C37.0707 257.516 36.8916 257.563 36.7139 257.563H36.7153Z" fill="#BACDFF"/>
<path d="M50.7971 254.793C50.7568 254.793 50.718 254.79 50.6777 254.786C49.1064 254.603 47.5338 254.572 46.018 254.697C45.4531 254.744 44.9589 254.323 44.9131 253.76C44.8673 253.197 45.2879 252.703 45.8515 252.658C47.5019 252.523 49.2105 252.555 50.9151 252.753C51.4772 252.818 51.8812 253.327 51.8145 253.888C51.7535 254.409 51.3107 254.793 50.7971 254.793Z" fill="#BACDFF"/>
<path d="M48.7886 290.925C48.2278 291.04 47.6226 290.979 47.0549 290.925C46.5538 290.878 46.0541 290.799 45.5697 290.66C44.6161 290.387 43.7236 289.851 43.1628 289.018C42.355 287.821 42.1856 286.397 41.9275 285.014C41.8414 284.555 41.7734 284.086 41.6554 283.633C41.3944 282.637 40.8059 281.681 39.7274 281.455C39.4359 281.394 39.1347 281.386 38.8377 281.419C38.617 281.444 38.4046 281.508 38.1797 281.494C37.6675 281.459 37.2192 281.106 37.0651 280.621C36.9027 280.114 37.0318 279.571 37.4413 279.221C37.7702 278.941 38.2172 278.928 38.6017 278.759C39.0681 278.554 39.4873 278.23 39.7399 277.784C39.9925 277.338 40.0869 276.822 40.0758 276.315C40.0633 275.742 39.9176 275.189 39.7912 274.632C39.4845 273.283 39.0334 271.871 39.2235 270.474C39.379 269.333 40.0175 268.398 40.8989 267.681C41.2987 267.356 41.7387 267.083 42.194 266.84C42.4577 266.7 42.7256 266.572 42.9976 266.45C43.2655 266.331 43.5362 266.211 43.8319 266.188C44.3316 266.149 44.7716 266.465 44.9742 266.912C45.2102 267.432 45.0395 267.975 44.6106 268.337C44.3885 268.524 44.1192 268.654 43.879 268.817C43.6611 268.967 43.4501 269.126 43.253 269.302C42.8755 269.643 42.5604 270.063 42.4341 270.563C42.2564 271.267 42.416 272.03 42.5729 272.724C42.7048 273.306 42.8366 273.888 42.9685 274.47C43.0865 274.991 43.2239 275.51 43.2586 276.045C43.2905 276.555 43.2392 277.075 43.0518 277.553C42.8741 278.006 42.5743 278.412 42.2356 278.759C41.865 279.139 41.4319 279.451 40.9697 279.71C40.9628 279.674 40.9544 279.636 40.9475 279.6C42.2592 279.74 43.6 280.286 44.251 281.497C44.6328 282.208 44.7424 283.004 44.8882 283.784C45.0048 284.413 45.1158 285.044 45.2393 285.671C45.3629 286.296 45.56 286.998 45.9944 287.485C46.4331 287.977 47.0729 288.213 47.6948 288.377C48.3277 288.543 49.1953 288.529 49.5534 289.181C49.9185 289.844 49.5492 290.768 48.7886 290.925Z" fill="#BACDFF"/>
<path d="M59.5113 288.691C59.1878 288.758 58.8825 288.665 58.6493 288.434C58.4258 288.211 58.2218 287.923 58.169 287.604C58.1107 287.252 58.2523 286.924 58.4911 286.669C58.7312 286.411 59.0629 286.261 59.353 286.067C59.8791 285.716 60.3941 285.297 60.6689 284.712C60.9715 284.07 60.9035 283.312 60.7813 282.633C60.6703 282.014 60.5093 281.4 60.3691 280.786C60.2081 280.075 59.9971 279.354 59.9818 278.621C59.9665 277.904 60.1525 277.238 60.569 276.652C61.0131 276.027 61.6183 275.537 62.2804 275.159C62.2874 275.195 62.2957 275.232 62.3026 275.268C61.2935 275.135 60.1872 274.78 59.471 274.021C58.9352 273.454 58.6632 272.697 58.523 271.943C58.4203 271.392 58.3175 270.84 58.2148 270.289C58.1288 269.827 58.058 269.36 57.9455 268.903C57.8234 268.406 57.6582 267.874 57.332 267.468C57.0253 267.086 56.5936 266.826 56.1383 266.656C55.8898 266.563 55.6344 266.493 55.3763 266.434C55.0959 266.371 54.8072 266.342 54.5296 266.27C54.1215 266.164 53.762 265.925 53.6204 265.514C53.4497 265.021 53.6162 264.431 54.0465 264.121C54.4935 263.799 55.1389 263.874 55.6567 263.895C56.681 263.936 57.7207 264.093 58.6354 264.577C59.0935 264.819 59.5127 265.136 59.8486 265.531C60.1859 265.93 60.4399 266.404 60.6356 266.887C60.8729 267.475 60.9937 268.083 61.1089 268.701C61.2213 269.309 61.3352 269.916 61.4476 270.524C61.5684 271.171 61.7113 271.824 62.075 272.383C62.3498 272.809 62.7468 273.159 63.2299 273.324C63.513 273.42 63.8114 273.466 64.1099 273.464C64.3445 273.464 64.5652 273.416 64.7942 273.384C65.3189 273.31 65.863 273.574 66.1045 274.05C66.346 274.527 66.2974 275.104 65.9435 275.512C65.7825 275.696 65.5729 275.829 65.3383 275.898C65.1662 275.948 64.9913 275.973 64.8206 276.03C64.3292 276.196 63.8836 276.504 63.5935 276.937C63.0813 277.705 63.1035 278.671 63.3006 279.538C63.5213 280.512 63.7823 281.486 63.9586 282.469C64.1709 283.651 64.1446 284.894 63.4908 285.939C62.9162 286.858 62 287.525 61.0548 288.026C60.7994 288.162 60.5384 288.288 60.2733 288.407C60.0235 288.52 59.7792 288.637 59.5099 288.693L59.5113 288.691Z" fill="#BACDFF"/>
<path d="M386.334 121.214L309.541 130.128C307.994 130.308 306.516 129.441 305.919 128.006L283.15 73.1482C282.264 71.016 283.669 68.6303 285.966 68.3629L362.76 59.449C364.306 59.2689 365.784 60.1362 366.381 61.5715L389.151 116.429C390.036 118.561 388.632 120.947 386.334 121.214Z" fill="#65E8EF"/>
<path d="M366.381 61.5739C365.786 60.1386 364.308 59.2713 362.76 59.4514L285.966 68.3653C283.669 68.6313 282.264 71.017 283.15 73.1506L284.79 77.1032L368.538 66.772L366.381 61.5753V61.5739Z" fill="#91E0F2"/>
<path d="M372.866 168.211L337.736 85.3691C336.949 83.514 335.072 82.4085 333.067 82.6177L212.011 95.196C210.574 95.3457 209.323 96.1395 208.578 97.3739C207.833 98.6084 207.715 100.084 208.255 101.421L242.748 186.904C243.449 188.639 245.137 189.753 246.976 189.753C247.163 189.753 247.353 189.742 247.543 189.717L369.235 174.497C370.665 174.318 371.899 173.501 372.618 172.254C373.338 171.007 373.428 169.533 372.866 168.208V168.211ZM371.507 171.618C370.99 172.514 370.104 173.102 369.075 173.229L247.384 188.45C245.91 188.634 244.492 187.803 243.937 186.427L209.444 100.944C209.057 99.9827 209.142 98.9228 209.677 98.0348C210.213 97.1467 211.113 96.5759 212.145 96.4692L333.201 83.8909C333.318 83.8784 333.433 83.8729 333.548 83.8729C334.856 83.8729 336.039 84.6432 336.558 85.8693L371.688 168.711C372.092 169.663 372.026 170.723 371.509 171.619L371.507 171.618Z" fill="white"/>
<path d="M384.025 181.031L262.334 196.252C260.569 196.472 258.877 195.479 258.213 193.833L223.72 108.35C222.746 105.939 224.358 103.27 226.948 103L348.004 90.4212C349.717 90.2439 351.347 91.2026 352.017 92.7861L387.147 175.628C388.16 178.017 386.604 180.71 384.027 181.033L384.025 181.031Z" fill="#D0DDFF"/>
<path d="M352.015 92.784C351.343 91.2004 349.715 90.2403 348.002 90.419L226.946 102.997C224.356 103.266 222.744 105.936 223.717 108.348L226.373 114.929L355.5 101.005L352.015 92.784Z" fill="#BACDFF"/>
<path d="M387.145 175.626L373.159 142.647L318.63 148.977C316.289 149.249 314.889 151.712 315.855 153.857L331.073 187.653L384.025 181.031C386.604 180.708 388.158 178.015 387.145 175.626Z" fill="#C2D3F9"/>
<path d="M274.559 140.153C272.956 138.149 269.758 135.094 264.766 134.373C265.741 133.203 266.233 131.618 266.02 129.872C265.577 126.269 262.29 123.347 258.68 123.347C255.069 123.347 252.501 126.269 252.944 129.872C253.23 132.193 254.695 134.228 256.664 135.385C252.611 137.261 251.322 140.979 250.914 143.142C250.757 143.974 251.451 144.723 252.295 144.626L273.716 142.187C274.702 142.075 275.177 140.925 274.559 140.152V140.153Z" fill="#BACDFF"/>
<path d="M284.731 121.845L350.499 114.327C351.153 114.253 351.776 114.618 352.029 115.225L359.313 132.74C359.69 133.643 359.094 134.655 358.12 134.765L292.518 142.286C291.868 142.36 291.248 141.999 290.992 141.399L283.541 123.881C283.157 122.977 283.752 121.956 284.731 121.845Z" fill="#BACDFF"/>
<path d="M251.58 153.045L308.282 146.447C308.633 146.406 308.969 146.605 309.103 146.932L311.308 152.334C311.503 152.815 311.188 153.35 310.673 153.412L253.809 160.313C253.444 160.357 253.096 160.142 252.972 159.796L250.93 154.091C250.76 153.614 251.077 153.103 251.581 153.045H251.58Z" fill="#BACDFF"/>
<path d="M255.809 163.792L312.511 157.194C312.862 157.153 313.198 157.352 313.333 157.679L315.537 163.081C315.733 163.562 315.418 164.096 314.903 164.159L258.038 171.06C257.673 171.104 257.325 170.889 257.201 170.543L255.16 164.838C254.989 164.361 255.307 163.85 255.811 163.792H255.809Z" fill="#BACDFF"/>
<path d="M260.04 174.539L316.742 167.941C317.093 167.899 317.429 168.099 317.564 168.426L319.768 173.828C319.963 174.309 319.648 174.843 319.133 174.906L262.269 181.807C261.904 181.851 261.556 181.636 261.432 181.29L259.39 175.585C259.22 175.108 259.538 174.597 260.041 174.539H260.04Z" fill="#BACDFF"/>
<path d="M249.712 109.449C249.712 117.838 242.706 123.656 234.065 122.443C225.425 121.231 218.419 113.449 218.419 105.06C218.419 96.6715 225.425 90.8541 234.065 92.0663C242.706 93.2786 249.712 101.061 249.712 109.449Z" fill="#772A8C"/>
<path d="M237.991 99.272C236.674 103.529 235.789 107.903 235.33 112.332C233.228 110.483 231.311 108.428 229.031 106.785C228.361 106.303 227.721 107.411 228.384 107.889C230.919 109.715 232.983 112.091 235.397 114.063C235.838 114.424 236.442 114.185 236.49 113.61C236.894 108.856 237.817 104.167 239.228 99.61C239.472 98.8217 238.235 98.4837 237.992 99.2706L237.991 99.272Z" fill="white"/>
<path d="M432.279 205.561L353.957 214.653C352.448 214.827 350.999 214.007 350.377 212.624L325.47 157.311C324.504 155.166 325.906 152.703 328.245 152.431L406.567 143.34C408.076 143.166 409.525 143.986 410.147 145.368L435.054 200.682C436.02 202.827 434.618 205.29 432.279 205.561Z" fill="#F5FFBA"/>
<path d="M410.146 145.368C409.523 143.986 408.076 143.164 406.567 143.34L328.245 152.431C325.904 152.703 324.504 155.166 325.47 157.311L327.599 162.038L413.084 151.887L410.148 145.368H410.146Z" fill="#FFD03C"/>
<path d="M384.15 205.452L355.992 208.72C355.449 208.782 354.928 208.487 354.705 207.991L336.337 167.107C335.99 166.335 336.494 165.45 337.335 165.353L365.493 162.085C366.036 162.022 366.556 162.318 366.78 162.814L385.148 203.698C385.495 204.469 384.991 205.355 384.15 205.452Z" fill="#FFD03C"/>
<path d="M393.098 204.494L382.356 205.741C382.149 205.765 381.951 205.653 381.865 205.463L368.286 174.455C368.154 174.162 368.345 173.824 368.666 173.786L379.408 172.539C379.615 172.516 379.813 172.628 379.899 172.818L393.479 203.825C393.611 204.119 393.419 204.457 393.098 204.494Z" fill="#FCFAD1"/>
<path d="M413.993 201.808L403.251 203.055C403.044 203.078 402.845 202.966 402.759 202.776L395.004 185.057C394.872 184.763 395.064 184.425 395.385 184.388L406.127 183.141C406.333 183.117 406.532 183.229 406.618 183.419L414.373 201.139C414.505 201.433 414.313 201.771 413.993 201.808Z" fill="#FFD03C"/>
<path d="M392.749 197.182C392.153 197.182 391.547 197.139 390.934 197.053C384.12 196.097 378.578 189.928 378.578 183.3C378.578 180.122 379.834 177.283 382.113 175.305C384.509 173.227 387.718 172.347 391.15 172.828C397.964 173.783 403.506 179.953 403.506 186.581C403.506 189.759 402.25 192.598 399.971 194.576C398.002 196.283 395.487 197.182 392.75 197.182H392.749ZM389.34 174.235C386.972 174.235 384.805 175.004 383.121 176.464C381.183 178.146 380.115 180.573 380.115 183.3C380.115 189.192 385.064 194.68 391.147 195.533C394.13 195.952 396.904 195.201 398.959 193.418C400.896 191.736 401.965 189.309 401.965 186.581C401.965 180.688 397.015 175.201 390.933 174.347C390.393 174.271 389.861 174.234 389.338 174.234L389.34 174.235Z" fill="white"/>
<path d="M391.758 190.515C391.487 190.515 391.212 190.496 390.933 190.457C387.867 190.028 385.373 187.244 385.373 184.253C385.373 182.79 385.953 181.482 387.008 180.567C388.11 179.609 389.581 179.203 391.148 179.424C394.214 179.853 396.709 182.636 396.709 185.628C396.709 187.091 396.129 188.398 395.074 189.314C394.167 190.101 393.011 190.515 391.758 190.515ZM390.329 180.902C389.444 180.902 388.639 181.186 388.015 181.726C387.302 182.345 386.909 183.242 386.909 184.253C386.909 186.507 388.809 188.609 391.147 188.936C392.267 189.093 393.302 188.815 394.065 188.155C394.778 187.535 395.169 186.639 395.169 185.628C395.169 183.373 393.269 181.272 390.932 180.945C390.728 180.916 390.525 180.902 390.328 180.902H390.329Z" fill="white"/>
<path d="M182.544 303.913L98.7209 317.362C96.9969 317.639 95.3271 316.618 94.79 314.959L71.5498 243.162C70.8725 241.068 72.255 238.873 74.4384 238.575L158.506 227.091C160.199 226.859 161.815 227.868 162.349 229.488L185.344 299.319C186.024 301.383 184.693 303.565 182.542 303.91L182.544 303.913Z" fill="#F5FFBA"/>
<path d="M162.351 229.491C161.818 227.871 160.201 226.863 158.507 227.093L74.4403 238.577C72.2569 238.875 70.8744 241.071 71.5517 243.164L74.3653 251.856L165.451 238.901L162.352 229.491H162.351Z" fill="#FFD03C"/>
<path d="M101.128 277.557C100.857 277.557 100.631 277.345 100.616 277.072C100.6 276.789 100.818 276.548 101.101 276.534C101.951 276.49 102.774 276.331 103.549 276.062C103.816 275.969 104.108 276.11 104.201 276.376C104.294 276.644 104.152 276.935 103.886 277.027C103.021 277.328 102.102 277.505 101.156 277.555C101.146 277.555 101.137 277.555 101.128 277.555V277.557ZM98.496 277.36C98.4627 277.36 98.4294 277.357 98.3961 277.35C97.5022 277.173 96.6194 276.889 95.7713 276.505C95.5131 276.389 95.3993 276.085 95.5159 275.828C95.6325 275.57 95.9365 275.456 96.1947 275.573C96.9706 275.923 97.7784 276.184 98.596 276.346C98.8736 276.401 99.054 276.67 98.9985 276.947C98.9499 277.191 98.7362 277.359 98.496 277.359V277.36ZM106.044 275.825C105.889 275.825 105.735 275.754 105.633 275.62C105.463 275.394 105.508 275.073 105.736 274.904C106.402 274.405 106.977 273.808 107.448 273.127C107.609 272.895 107.928 272.837 108.161 272.997C108.394 273.158 108.453 273.477 108.292 273.709C107.758 274.48 107.106 275.157 106.352 275.722C106.259 275.792 106.153 275.825 106.044 275.825ZM93.7087 275.208C93.6018 275.208 93.4949 275.175 93.4019 275.107C92.6676 274.56 91.9875 273.934 91.3837 273.245C91.1977 273.033 91.2185 272.709 91.4309 272.523C91.6432 272.336 91.968 272.359 92.154 272.571C92.712 273.205 93.3381 273.783 94.0154 274.287C94.2431 274.456 94.2889 274.776 94.1195 275.003C94.0196 275.138 93.8641 275.208 93.7087 275.208ZM109.002 271.556C108.954 271.556 108.905 271.549 108.856 271.536C108.584 271.455 108.43 271.171 108.511 270.9C108.741 270.12 108.859 269.293 108.859 268.441C108.859 268.35 108.859 268.26 108.855 268.17C108.847 267.888 109.07 267.652 109.353 267.644C109.635 267.633 109.872 267.859 109.881 268.141C109.884 268.241 109.885 268.341 109.885 268.441C109.885 269.391 109.753 270.316 109.495 271.191C109.428 271.414 109.224 271.558 109.004 271.558L109.002 271.556ZM90.251 271.263C90.0706 271.263 89.8943 271.167 89.8013 270.998C89.3502 270.181 88.9976 269.323 88.7547 268.45C88.6784 268.177 88.8394 267.896 89.1114 267.82C89.3835 267.745 89.6667 267.904 89.743 268.176C89.9637 268.973 90.2857 269.755 90.6994 270.503C90.8354 270.751 90.7452 271.062 90.4981 271.199C90.419 271.242 90.3343 271.263 90.251 271.263ZM88.8699 266.218C88.5895 266.218 88.3619 265.994 88.3577 265.714C88.3577 265.664 88.3577 265.616 88.3577 265.566C88.3577 264.667 88.4757 263.79 88.7061 262.96C88.7825 262.687 89.0642 262.527 89.3377 262.604C89.6111 262.68 89.7708 262.961 89.6944 263.234C89.4876 263.975 89.3835 264.759 89.3835 265.564C89.3835 265.609 89.3835 265.654 89.3835 265.699C89.3877 265.981 89.1614 266.214 88.8782 266.218H88.8713H88.8699ZM108.952 266.067C108.73 266.067 108.526 265.922 108.459 265.699C108.228 264.905 107.896 264.125 107.474 263.382C107.334 263.137 107.421 262.824 107.667 262.685C107.913 262.546 108.226 262.633 108.366 262.878C108.827 263.69 109.19 264.543 109.444 265.413C109.523 265.685 109.367 265.969 109.095 266.048C109.048 266.062 108.999 266.069 108.951 266.069L108.952 266.067ZM106.377 261.502C106.237 261.502 106.097 261.445 105.996 261.332C105.431 260.703 104.798 260.132 104.115 259.636C103.886 259.47 103.836 259.15 104.002 258.921C104.169 258.693 104.49 258.643 104.719 258.809C105.46 259.348 106.146 259.967 106.759 260.649C106.948 260.859 106.931 261.182 106.72 261.372C106.623 261.459 106.5 261.502 106.379 261.502H106.377ZM90.2913 261.215C90.1941 261.215 90.0956 261.188 90.0081 261.13C89.7722 260.973 89.7083 260.656 89.8651 260.42C90.3857 259.64 91.0256 258.952 91.7696 258.374C91.993 258.201 92.3151 258.241 92.4886 258.464C92.6621 258.687 92.6218 259.008 92.3983 259.182C91.7418 259.691 91.1769 260.298 90.7174 260.987C90.6189 261.135 90.4565 261.215 90.2899 261.215H90.2913ZM102.129 258.42C102.059 258.42 101.99 258.406 101.923 258.377C101.143 258.036 100.332 257.785 99.5135 257.633C99.2345 257.581 99.0513 257.314 99.1026 257.036C99.154 256.759 99.4219 256.574 99.7009 256.626C100.598 256.792 101.483 257.065 102.335 257.437C102.595 257.551 102.713 257.853 102.599 258.112C102.514 258.305 102.327 258.418 102.13 258.418L102.129 258.42ZM94.3916 258.019C94.182 258.019 93.9863 257.89 93.9099 257.684C93.8128 257.418 93.9488 257.124 94.2153 257.027C95.0759 256.713 95.992 256.522 96.9373 256.458C97.2204 256.438 97.4647 256.652 97.4828 256.934C97.5022 257.217 97.2884 257.461 97.0053 257.479C96.1558 257.536 95.3354 257.708 94.5665 257.989C94.5082 258.01 94.4485 258.021 94.3902 258.021L94.3916 258.019Z" fill="#FFD87F"/>
<path d="M128.526 273.417C128.256 273.417 128.03 273.205 128.014 272.932C127.999 272.649 128.217 272.408 128.499 272.395C129.35 272.35 130.173 272.191 130.946 271.922C131.214 271.829 131.505 271.971 131.598 272.237C131.691 272.504 131.55 272.795 131.283 272.888C130.418 273.188 129.5 273.366 128.553 273.416C128.543 273.416 128.535 273.416 128.525 273.416L128.526 273.417ZM125.895 273.22C125.861 273.22 125.828 273.218 125.795 273.211C124.901 273.033 124.018 272.749 123.171 272.365C122.913 272.249 122.799 271.946 122.916 271.688C123.033 271.43 123.337 271.317 123.595 271.433C124.371 271.784 125.178 272.044 125.996 272.206C126.274 272.262 126.454 272.53 126.399 272.807C126.35 273.051 126.136 273.219 125.896 273.219L125.895 273.22ZM133.444 271.685C133.289 271.685 133.135 271.615 133.033 271.48C132.864 271.254 132.91 270.933 133.136 270.764C133.802 270.265 134.377 269.668 134.848 268.988C135.009 268.755 135.328 268.697 135.561 268.858C135.794 269.018 135.853 269.337 135.692 269.57C135.159 270.34 134.506 271.017 133.751 271.581C133.659 271.651 133.551 271.684 133.444 271.684V271.685ZM121.109 271.07C121.002 271.07 120.895 271.037 120.802 270.969C120.068 270.422 119.388 269.795 118.784 269.107C118.598 268.895 118.619 268.571 118.831 268.385C119.043 268.198 119.368 268.22 119.554 268.432C120.112 269.067 120.738 269.644 121.415 270.149C121.643 270.318 121.689 270.638 121.52 270.865C121.42 270.999 121.264 271.071 121.109 271.071V271.07ZM136.402 267.418C136.354 267.418 136.305 267.411 136.257 267.397C135.984 267.317 135.83 267.033 135.911 266.761C136.141 265.981 136.259 265.154 136.259 264.302C136.259 264.212 136.259 264.122 136.255 264.032C136.247 263.749 136.47 263.514 136.753 263.506C137.038 263.5 137.273 263.72 137.281 264.003C137.284 264.103 137.285 264.202 137.285 264.302C137.285 265.253 137.153 266.178 136.895 267.052C136.828 267.275 136.624 267.419 136.404 267.419L136.402 267.418ZM117.651 267.123C117.471 267.123 117.294 267.027 117.201 266.858C116.75 266.041 116.398 265.183 116.155 264.311C116.078 264.038 116.239 263.756 116.512 263.68C116.784 263.604 117.067 263.765 117.143 264.036C117.364 264.833 117.686 265.616 118.099 266.364C118.235 266.612 118.145 266.922 117.898 267.059C117.819 267.102 117.734 267.123 117.651 267.123ZM116.27 262.079C115.99 262.079 115.762 261.854 115.758 261.574C115.758 261.524 115.758 261.476 115.758 261.426C115.758 260.527 115.876 259.651 116.106 258.82C116.183 258.549 116.464 258.388 116.738 258.464C117.011 258.54 117.171 258.821 117.095 259.094C116.888 259.836 116.784 260.62 116.784 261.426C116.784 261.47 116.784 261.516 116.784 261.56C116.788 261.843 116.561 262.076 116.278 262.08H116.271L116.27 262.079ZM136.352 261.929C136.13 261.929 135.926 261.784 135.861 261.56C135.629 260.767 135.297 259.987 134.875 259.244C134.735 258.999 134.823 258.686 135.068 258.547C135.315 258.407 135.628 258.494 135.768 258.74C136.229 259.552 136.591 260.405 136.845 261.275C136.924 261.547 136.769 261.831 136.497 261.91C136.449 261.923 136.401 261.93 136.352 261.93V261.929ZM133.777 257.364C133.637 257.364 133.497 257.307 133.396 257.194C132.831 256.565 132.198 255.994 131.515 255.498C131.286 255.332 131.236 255.011 131.403 254.783C131.569 254.554 131.89 254.504 132.119 254.671C132.86 255.21 133.546 255.829 134.159 256.511C134.348 256.721 134.331 257.044 134.12 257.234C134.022 257.321 133.9 257.364 133.779 257.364H133.777ZM117.691 257.076C117.594 257.076 117.496 257.048 117.408 256.99C117.172 256.833 117.108 256.516 117.265 256.281C117.786 255.501 118.426 254.812 119.17 254.234C119.393 254.061 119.715 254.101 119.889 254.324C120.062 254.547 120.022 254.869 119.798 255.042C119.142 255.552 118.577 256.159 118.117 256.847C118.019 256.995 117.857 257.076 117.69 257.076H117.691ZM129.529 254.28C129.459 254.28 129.39 254.266 129.323 254.237C128.543 253.896 127.733 253.645 126.914 253.493C126.635 253.442 126.451 253.174 126.503 252.896C126.554 252.619 126.822 252.435 127.101 252.486C127.998 252.652 128.883 252.925 129.735 253.298C129.995 253.411 130.113 253.713 129.999 253.972C129.915 254.165 129.727 254.279 129.53 254.279L129.529 254.28ZM121.79 253.88C121.581 253.88 121.385 253.751 121.309 253.544C121.211 253.278 121.347 252.985 121.614 252.888C122.475 252.573 123.391 252.382 124.336 252.318C124.618 252.3 124.863 252.512 124.881 252.795C124.901 253.077 124.687 253.321 124.404 253.339C123.554 253.396 122.734 253.568 121.965 253.849C121.907 253.87 121.847 253.881 121.789 253.881L121.79 253.88Z" fill="#FFD87F"/>
<path d="M157.408 269.722C157.137 269.722 156.911 269.51 156.895 269.237C156.88 268.955 157.098 268.713 157.381 268.7C158.231 268.655 159.054 268.496 159.828 268.227C160.096 268.134 160.388 268.276 160.481 268.542C160.574 268.809 160.432 269.1 160.166 269.193C159.301 269.493 158.382 269.671 157.435 269.721C157.426 269.721 157.417 269.721 157.408 269.721V269.722ZM154.776 269.525C154.743 269.525 154.709 269.523 154.676 269.516C153.782 269.338 152.899 269.054 152.053 268.671C151.794 268.554 151.681 268.251 151.797 267.993C151.914 267.735 152.218 267.622 152.476 267.738C153.252 268.089 154.06 268.349 154.877 268.511C155.155 268.567 155.335 268.835 155.28 269.112C155.231 269.356 155.017 269.524 154.777 269.524L154.776 269.525ZM162.324 267.99C162.169 267.99 162.015 267.92 161.913 267.785C161.743 267.559 161.788 267.238 162.016 267.069C162.682 266.57 163.257 265.973 163.727 265.293C163.888 265.06 164.208 265.002 164.441 265.163C164.674 265.323 164.732 265.642 164.571 265.875C164.038 266.645 163.386 267.322 162.632 267.888C162.539 267.957 162.432 267.99 162.324 267.99ZM149.988 267.374C149.882 267.374 149.775 267.34 149.682 267.273C148.947 266.725 148.267 266.099 147.664 265.411C147.478 265.199 147.498 264.874 147.711 264.689C147.923 264.502 148.248 264.524 148.434 264.736C148.992 265.37 149.618 265.948 150.295 266.452C150.523 266.621 150.569 266.941 150.399 267.169C150.298 267.303 150.144 267.375 149.988 267.375V267.374ZM165.283 263.722C165.235 263.722 165.186 263.715 165.138 263.701C164.866 263.621 164.712 263.337 164.792 263.065C165.022 262.285 165.14 261.458 165.14 260.606C165.14 260.516 165.14 260.426 165.136 260.336C165.128 260.053 165.351 259.818 165.635 259.809C165.918 259.8 166.154 260.024 166.162 260.307C166.165 260.406 166.166 260.506 166.166 260.606C166.166 261.556 166.034 262.482 165.776 263.356C165.71 263.579 165.506 263.723 165.285 263.723L165.283 263.722ZM146.531 263.427C146.35 263.427 146.174 263.331 146.081 263.162C145.63 262.345 145.277 261.487 145.035 260.614C144.958 260.341 145.119 260.06 145.391 259.984C145.665 259.909 145.947 260.068 146.023 260.34C146.244 261.137 146.566 261.919 146.979 262.667C147.115 262.915 147.025 263.226 146.778 263.363C146.699 263.406 146.614 263.427 146.531 263.427ZM145.15 258.384C144.869 258.384 144.642 258.159 144.638 257.879C144.638 257.829 144.638 257.781 144.638 257.731C144.638 256.832 144.756 255.955 144.986 255.125C145.062 254.852 145.344 254.693 145.618 254.769C145.891 254.845 146.051 255.126 145.974 255.399C145.767 256.141 145.663 256.925 145.663 257.73C145.663 257.774 145.663 257.82 145.663 257.864C145.668 258.147 145.441 258.379 145.158 258.384H145.151H145.15ZM165.232 258.233C165.01 258.233 164.806 258.087 164.741 257.864C164.509 257.07 164.177 256.29 163.755 255.548C163.615 255.302 163.702 254.989 163.948 254.851C164.194 254.711 164.508 254.798 164.648 255.043C165.109 255.855 165.471 256.709 165.725 257.579C165.804 257.85 165.648 258.134 165.376 258.213C165.328 258.227 165.281 258.234 165.232 258.234V258.233ZM162.657 253.668C162.517 253.668 162.377 253.611 162.276 253.497C161.711 252.868 161.078 252.297 160.395 251.801C160.166 251.635 160.116 251.315 160.282 251.087C160.449 250.858 160.769 250.808 160.999 250.974C161.74 251.513 162.425 252.133 163.039 252.814C163.228 253.025 163.211 253.348 163 253.537C162.903 253.625 162.779 253.668 162.659 253.668H162.657ZM146.571 253.381C146.474 253.381 146.375 253.353 146.288 253.295C146.052 253.138 145.988 252.821 146.145 252.586C146.666 251.806 147.305 251.117 148.049 250.539C148.273 250.366 148.595 250.406 148.768 250.629C148.942 250.852 148.902 251.174 148.678 251.347C148.022 251.857 147.457 252.464 146.997 253.152C146.899 253.3 146.736 253.381 146.57 253.381H146.571ZM158.408 250.585C158.339 250.585 158.27 250.571 158.203 250.542C157.423 250.201 156.612 249.951 155.793 249.798C155.514 249.747 155.331 249.479 155.382 249.201C155.434 248.924 155.702 248.74 155.981 248.791C156.877 248.957 157.763 249.23 158.615 249.603C158.875 249.716 158.993 250.018 158.879 250.277C158.794 250.47 158.607 250.584 158.41 250.584L158.408 250.585ZM150.671 250.185C150.462 250.185 150.266 250.056 150.19 249.849C150.093 249.583 150.229 249.29 150.495 249.193C151.356 248.878 152.272 248.687 153.217 248.623C153.499 248.605 153.745 248.817 153.763 249.1C153.782 249.382 153.568 249.626 153.285 249.644C152.436 249.701 151.615 249.873 150.846 250.154C150.788 250.175 150.728 250.186 150.67 250.186L150.671 250.185Z" fill="#FFD87F"/>
<path d="M96.3418 292.619C95.7213 292.619 95.1758 292.169 95.0773 291.537C94.9676 290.839 95.4451 290.185 96.1447 290.075L169.724 278.561C170.422 278.452 171.079 278.928 171.188 279.627C171.298 280.325 170.82 280.979 170.121 281.088L96.5417 292.602C96.475 292.614 96.407 292.618 96.3418 292.618V292.619Z" fill="#FFD87F"/>
<path d="M98.8417 303.173C98.2212 303.173 97.6757 302.723 97.5771 302.091C97.4675 301.393 97.945 300.739 98.6445 300.63L172.224 289.115C172.923 289.006 173.578 289.483 173.688 290.181C173.798 290.879 173.32 291.533 172.621 291.642L99.0415 303.157C98.9749 303.168 98.9069 303.172 98.8417 303.172V303.173Z" fill="#FFD87F"/>
<path d="M135.879 199.641C135.879 214.35 123.596 224.551 108.444 222.426C93.2923 220.301 81.0094 206.654 81.0094 191.945C81.0094 177.236 93.2923 167.035 108.444 169.16C123.596 171.285 135.879 184.932 135.879 199.641Z" fill="#772A8C"/>
<path d="M100.972 200.696C100.877 200.538 100.728 200.414 100.527 200.323L93.8766 197.217L99.8008 192.941C99.9632 192.814 100.08 192.67 100.152 192.512C100.224 192.354 100.252 192.194 100.235 192.038C100.202 191.707 100.031 191.402 99.7231 191.122C99.4149 190.842 99.1026 190.719 98.7875 190.751C98.6293 190.767 98.4627 190.82 98.2892 190.909C98.1143 190.999 97.9311 191.117 97.7382 191.263L90.4856 196.466C90.3066 196.596 90.1802 196.764 90.1053 196.97C90.0303 197.177 90.004 197.391 90.0262 197.612C90.047 197.817 90.115 198.013 90.2302 198.2C90.3454 198.387 90.5037 198.536 90.7063 198.642L98.8667 202.38C99.1012 202.484 99.3219 202.577 99.5301 202.66C99.7383 202.743 99.9285 202.775 100.102 202.757C100.37 202.729 100.62 202.558 100.852 202.239C101.082 201.92 101.179 201.572 101.14 201.194C101.122 201.021 101.065 200.855 100.97 200.698L100.972 200.696Z" fill="white"/>
<path d="M112.964 182.635C112.665 182.451 112.382 182.372 112.114 182.398C111.909 182.419 111.717 182.502 111.541 182.647C111.365 182.793 111.231 182.981 111.144 183.214L103.519 203.845C103.444 204.044 103.415 204.238 103.435 204.426C103.469 204.773 103.642 205.043 103.948 205.234C104.255 205.425 104.542 205.509 104.812 205.481C105.032 205.459 105.228 205.376 105.396 205.23C105.565 205.086 105.693 204.898 105.782 204.665L113.383 184.037C113.458 183.838 113.487 183.644 113.468 183.455C113.43 183.092 113.264 182.819 112.965 182.634L112.964 182.635Z" fill="white"/>
<path d="M127.206 194.037C127.184 193.817 127.115 193.612 127.001 193.425C126.886 193.238 126.729 193.098 126.528 193.006L118.367 189.268C118.133 189.165 117.912 189.072 117.704 188.989C117.496 188.907 117.305 188.874 117.132 188.892C116.879 188.918 116.634 189.09 116.395 189.408C116.156 189.728 116.056 190.076 116.094 190.454C116.112 190.628 116.167 190.794 116.264 190.95C116.36 191.108 116.509 191.233 116.71 191.323L123.36 194.429L117.436 198.706C117.274 198.833 117.156 198.973 117.083 199.124C117.011 199.275 116.983 199.438 117.002 199.611C117.035 199.942 117.206 200.247 117.514 200.526C117.82 200.806 118.133 200.93 118.449 200.898C118.623 200.88 118.792 200.823 118.959 200.726C119.124 200.63 119.304 200.515 119.499 200.385L126.751 195.183C126.929 195.054 127.057 194.885 127.131 194.679C127.206 194.472 127.233 194.259 127.211 194.037H127.206Z" fill="white"/>
<path d="M209.058 329.833L287.535 341.525C288.49 341.712 289.479 341.701 290.444 341.493L389.956 320.048C391.059 319.81 391.867 318.832 391.883 317.712L391.909 315.964L329.927 307.492L207.727 325.886L207.694 328.143C207.681 328.97 208.249 329.674 209.057 329.833H209.058Z" fill="#232D57"/>
<path d="M207.729 325.886L287.589 337.848C288.544 338.035 289.534 338.024 290.498 337.816L391.909 315.962L331.004 304.099C330.331 303.912 329.619 303.88 328.921 304.006L207.729 325.885V325.886Z" fill="#293463"/>
<path d="M475.871 367.124C475.871 367.124 436.85 359.591 420.836 361.98C409.611 363.653 400.958 368.777 395.619 378.882L470.717 396.334L475.871 367.124Z" fill="#232D57"/>
<path d="M359.878 391.563C359.878 391.563 356.229 399.091 356.229 426.28C356.229 453.47 355.677 468 355.677 468H398.195C398.195 468 403.717 439.693 403.902 435.467C404.086 431.242 373.835 391.935 359.878 391.563Z" fill="#293463"/>
<path d="M402.641 444.043C403.337 439.999 403.847 436.702 403.902 435.466C403.967 433.979 400.259 428.145 394.822 421.194L379.443 419.702C379.443 419.702 387.989 430.926 402.643 444.043H402.641Z" fill="#1B1F3F"/>
<path d="M482.851 388.99C482.851 388.99 412.16 375.393 396.698 373.555C381.233 371.718 365.403 373.922 359.88 391.561C354.357 409.201 402.588 443.01 438.671 445.949C474.752 448.889 482.852 388.989 482.852 388.989L482.851 388.99Z" fill="#293463"/>
<path d="M448.698 250.646C448.698 250.646 424.985 222.116 418.319 219.557C412.556 217.344 402.339 219.695 399.085 214.453C398.244 213.098 397.968 211.47 398.24 209.9C398.689 207.299 399.665 202.021 400.429 200.499C401.454 198.451 394.148 193.59 389.662 187.704C385.336 182.031 392.254 183.141 394.917 185.913C397.865 188.983 406.068 195.892 408.12 196.405C410.171 196.916 409.573 191.873 413.76 192.182C417.22 192.438 418.63 188.599 421.194 190.647C423.758 192.695 429.142 203.569 433.756 207.664C438.371 211.758 467.596 227.624 467.596 227.624C467.596 227.624 456.902 244.507 448.698 250.647V250.646Z" fill="#FFB1A4"/>
<path d="M494.404 188.045C494.404 188.045 493.732 191.36 493.363 194.483C493.138 196.383 492.481 198.256 490.949 199.367C486.899 202.307 460.889 213.748 456.341 217.373C449.367 222.93 442.246 268.323 451.093 294.426C453.598 301.818 462.874 314.273 464.169 322.833C466.658 339.292 463.56 359.349 461.865 368.778C459.288 383.11 451.924 400.75 469.229 411.406C486.534 422.063 567.164 413.611 581.893 393.4C581.893 393.4 583.733 280.948 578.947 244.2C574.161 207.451 566.798 194.589 547.284 193.119C535.505 192.232 529.898 192.415 527.302 189.791C525.598 188.067 525.194 185.133 523.495 180.082L494.407 188.044L494.404 188.045Z" fill="#A74EBF"/>
<path d="M578.946 244.201C574.16 207.452 566.796 194.59 547.283 193.12C535.504 192.233 529.896 192.416 527.301 189.792C525.596 188.069 525.192 185.134 523.493 180.083L516.4 182.024C516.832 188.128 517.755 194.162 519.358 199.731C526.793 225.577 532.689 242.465 548.585 252.188C555.536 256.44 567.979 257.365 580.102 256.074C579.767 251.577 579.384 247.57 578.946 244.2V244.201Z" fill="#A74EBF"/>
<path d="M491.049 199.292C497.831 198.997 513.688 197.589 529.116 191.004C524.741 189.239 518.331 149.932 518.331 143.179L492.182 178.236C492.182 178.236 494.992 196.287 491.049 199.292Z" fill="#FFB1A4"/>
<path d="M518.499 145.924C516.2 159.105 514.657 178.412 518.153 194.881C521.747 193.845 525.445 192.571 529.118 191.004C525.157 189.407 519.532 157.058 518.499 145.924Z" fill="#E37E73"/>
<path d="M482.948 100.461C482.948 100.461 470.282 106.836 466.596 119.382C463.359 130.4 459.385 145.394 461.091 166.597C462.798 187.8 479.138 194.425 500.32 181.184C521.501 167.944 534.352 137.816 527.616 118.528C520.879 99.2401 496.579 94.3855 482.947 100.459L482.948 100.461Z" fill="#FFB1A4"/>
<path d="M468.553 114.988C471.55 117.402 492.182 146.377 491.54 154.95C490.979 162.451 501.469 170.783 505.336 177.61C506.272 179.261 508.122 179.687 509.985 180.069C516.024 181.306 522.946 182.33 527.432 176.445C527.432 176.445 540.384 145.997 538.395 131.665C536.663 119.183 531.022 96.8627 501.283 95.5839C479.802 94.6598 470.288 105.861 467.694 110.983C466.998 112.355 467.355 114.023 468.553 114.988Z" fill="#212851"/>
<path d="M488.133 156.955C488.326 154.587 489.065 152.295 490.258 150.239C492.215 146.866 494.537 142.8 499.038 143.711C505.841 145.09 505.326 156.471 500.111 160.71C495.145 164.748 487.196 168.43 488.133 156.953V156.955Z" fill="#FFB1A4"/>
<path d="M499.921 154.15C498.049 152.718 495.714 153.677 494.473 154.389C495.706 151.924 497.592 149.121 499.759 149.247C499.805 149.25 499.852 149.254 499.899 149.26C500.102 149.282 500.284 149.139 500.307 148.937C500.331 148.736 500.186 148.553 499.984 148.53C495.505 148.012 492.392 157.36 492.263 157.759C492.201 157.952 492.306 158.16 492.499 158.222C492.53 158.232 492.562 158.237 492.592 158.24C492.755 158.25 492.91 158.149 492.963 157.987C492.973 157.956 493.311 156.937 493.901 155.604C493.957 155.593 494.011 155.572 494.058 155.534C494.09 155.51 497.294 153.066 499.474 154.734C499.635 154.857 499.867 154.827 499.991 154.666C500.114 154.505 500.084 154.274 499.923 154.15H499.921Z" fill="#E37E73"/>
<path d="M524.998 115.288C524.998 115.288 525.255 124.756 522.177 131.409C519.801 136.547 514.978 159.09 516.331 180.995C520.456 181.202 524.475 180.327 527.432 176.445C527.432 176.445 540.384 145.997 538.395 131.665C537.758 127.079 536.595 121.165 533.902 115.455C528.48 115.141 524.998 115.288 524.998 115.288Z" fill="#1B2449"/>
<path d="M511.474 96.3487C511.474 96.3487 506.09 102.107 511.09 108.248C516.089 114.39 519.167 116.694 521.858 119.764C524.551 122.835 531.089 122.835 534.935 120.531C538.781 118.229 539.55 115.541 536.857 110.167C534.164 104.793 516.089 87.5179 511.474 96.3473V96.3487Z" fill="#A74EBF"/>
<path d="M523.51 105.979C520.718 103.294 520.968 98.74 524.008 96.3376C528.63 92.6842 535.627 89.0128 544.548 89.8233C561.47 91.3584 567.625 113.624 565.316 129.362C563.009 145.101 563.01 173.124 574.163 186.175C585.315 199.227 605.314 231.472 594.93 249.514C584.546 267.557 523.396 226.097 522.241 179.649C521.088 133.201 531.087 119.382 527.241 111.32C526.098 108.927 524.788 107.211 523.508 105.979H523.51Z" fill="#212851"/>
<path d="M448.705 284.531C449.278 288.053 450.063 291.386 451.093 294.426C453.598 301.818 462.874 314.273 464.169 322.833C464.215 323.137 464.26 323.444 464.301 323.75C478.559 295.562 481.091 257.958 481.091 257.958L448.705 284.531Z" fill="#A74EBF"/>
<path d="M402.398 317.075C402.398 317.075 372.365 317.957 354.323 320.53C336.283 323.103 317.806 322.097 314.493 319.157C311.18 316.217 300.801 312.33 291.228 314.168C288.283 315.271 287.833 317.373 285.255 317.373C282.678 317.373 268.688 320.313 268.688 323.252C268.925 327.218 278.997 322.885 281.574 323.62C284.152 324.354 291.515 333.175 297.406 334.645C303.297 336.115 305.507 335.381 307.347 335.748C309.188 336.115 377.322 349.555 421.935 343.413C429.667 339.004 409.025 328.836 402.398 317.076V317.075Z" fill="#FFB1A4"/>
<path d="M464.093 216.032C460.193 215.552 456.324 217.149 453.792 220.148C450.07 224.561 442.999 234.326 437.565 250.081C429.833 272.497 417.217 296.257 413.168 302.873C409.118 309.487 394.659 319.422 393.554 328.976C392.449 338.531 401.116 342.687 414.738 344.157C428.36 345.627 436.71 334.082 453.029 316.228C472.174 295.282 486.166 265.147 482.483 245.671C479.525 230.02 473.714 217.217 464.093 216.032Z" fill="#A74EBF"/>
<path d="M402.196 316.544C402.196 316.544 372.2 317.952 360.407 319.614C360.407 319.614 353.1 329.21 357.971 343.156C357.971 343.156 408.733 349.681 421.937 343.412L402.196 316.544Z" fill="#A74EBF"/>
<path d="M493.234 241.952C493.234 241.952 474.775 288.524 471.698 334.584C468.622 380.644 458.367 411.862 439.908 425.68C421.449 439.499 398.888 432.846 387.095 434.381C387.095 434.381 386.583 444.105 388.121 447.176C389.659 450.246 405.555 462.882 422.987 468H578.95C578.95 468 591.168 446.152 593.731 416.981C596.295 387.81 588.092 360.174 600.397 313.09C612.703 266.006 611.164 241.441 610.652 227.623C610.652 227.623 550.66 223.529 493.234 241.952Z" fill="#E0DAD7"/>
<path d="M493.234 241.952C493.234 241.952 490.678 248.4 487.311 258.867C501.865 256.372 569.898 245.139 610.946 245.895C611.118 238.256 610.826 232.318 610.652 227.623C610.652 227.623 550.66 223.529 493.234 241.952Z" fill="#D4CDCA"/>
<path d="M389.313 437.069C388.003 437.069 386.941 436.009 386.941 434.702V404.632C386.941 398.088 389.852 391.96 394.926 387.818C400.001 383.677 406.597 382.046 413.021 383.346L466.022 394.192C467.305 394.456 468.132 395.705 467.868 396.987C467.606 398.267 466.351 399.093 465.069 398.829L412.073 387.984C407.054 386.969 401.896 388.245 397.927 391.484C393.959 394.723 391.683 399.515 391.683 404.632V434.702C391.683 436.01 390.621 437.069 389.31 437.069H389.313Z" fill="#C9C3C0"/>
<path d="M493.234 241.952C493.234 241.952 474.775 288.524 471.698 334.584C468.622 380.644 458.367 411.862 439.908 425.68C421.449 439.499 398.888 432.846 387.095 434.381C387.095 434.381 386.962 436.912 387.035 439.801C446.656 451.229 460.005 427.383 464.519 411.864C469.134 395.999 477.85 354.033 480.927 322.302C483.56 295.149 497.456 251.509 501.411 239.482C498.683 240.257 495.956 241.08 493.232 241.954L493.234 241.952Z" fill="#C9C3C0"/>
<path d="M504.055 291.593C501.322 291.593 499.782 291.566 499.737 291.566C499.417 291.561 499.165 291.299 499.17 290.98C499.176 290.666 499.433 290.415 499.746 290.415C499.891 290.418 513.392 290.641 532.161 289.737C549.477 288.903 574.947 286.914 597.947 282.165C598.259 282.1 598.564 282.3 598.628 282.612C598.694 282.924 598.492 283.229 598.18 283.292C575.105 288.058 549.568 290.053 532.207 290.889C519.684 291.491 509.5 291.593 504.053 291.593H504.055Z" fill="#D4CDCA"/>
<path d="M516.15 330.432C503.919 330.432 495.965 329.947 495.867 329.94C495.549 329.921 495.307 329.646 495.327 329.329C495.346 329.012 495.622 328.772 495.939 328.79C496.062 328.798 508.433 329.552 526.085 329.172C542.369 328.822 566.607 327.409 589.599 322.661C589.913 322.597 590.217 322.797 590.281 323.108C590.346 323.42 590.144 323.725 589.832 323.789C566.75 328.555 542.432 329.973 526.096 330.324C522.549 330.4 519.215 330.43 516.149 330.43L516.15 330.432Z" fill="#D4CDCA"/>
<path d="M531.796 370.799C527.673 370.799 523.812 370.729 520.299 370.619C502.026 370.05 489.035 368.329 488.906 368.312C488.591 368.269 488.369 367.98 488.41 367.665C488.453 367.35 488.745 367.128 489.058 367.171C489.188 367.187 502.132 368.901 520.349 369.469C537.153 369.992 562.006 369.62 584.985 364.875C585.299 364.81 585.603 365.011 585.667 365.323C585.732 365.634 585.531 365.939 585.218 366.003C566.932 369.78 547.477 370.799 531.795 370.799H531.796Z" fill="#D4CDCA"/>
<path d="M542.876 415.32C533.053 415.32 522.862 414.702 512.53 413.48C493.099 411.181 479.731 407.483 479.597 407.447C479.291 407.361 479.112 407.044 479.198 406.737C479.284 406.431 479.602 406.253 479.908 406.338C480.04 406.376 493.341 410.053 512.689 412.34C530.532 414.45 557.316 415.776 583.585 410.111C583.896 410.043 584.204 410.241 584.27 410.552C584.337 410.862 584.14 411.169 583.829 411.236C572.154 413.753 559.41 415.121 545.949 415.299C544.929 415.313 543.903 415.32 542.876 415.32Z" fill="#D4CDCA"/>
<path d="M540.207 457.805C536.696 457.805 533.13 457.727 529.516 457.57C518.095 457.076 506.161 455.8 494.044 453.78C473.414 450.341 459.21 445.869 459.068 445.825C458.764 445.728 458.596 445.405 458.693 445.102C458.789 444.798 459.114 444.63 459.418 444.727C459.558 444.772 473.7 449.222 494.255 452.648C513.213 455.807 541.661 458.715 569.522 454.629C569.839 454.582 570.13 454.801 570.177 455.115C570.223 455.43 570.005 455.722 569.69 455.769C560.447 457.124 550.567 457.806 540.207 457.806V457.805Z" fill="#D4CDCA"/>
</g>
<defs>
<clipPath id="clip0_2013_33">
<rect width="611" height="468" fill="white"/>
</clipPath>
</defs>
</svg>
