<svg width="155" height="158" viewBox="0 0 155 158" fill="none" xmlns="http://www.w3.org/2000/svg">
<path fill-rule="evenodd" clip-rule="evenodd" d="M45.9534 32.1654C46.0428 30.6992 46.5168 29.2825 47.3277 28.0577C48.1386 26.8329 49.2578 25.8434 50.5727 25.1885C51.8875 24.5337 53.3516 24.2368 54.8177 24.3276C56.2838 24.4183 57.7001 24.8937 58.9241 25.7057L139.181 78.8768C140.404 79.6876 141.393 80.8062 142.048 82.1202C142.702 83.4343 142.999 84.8975 142.909 86.3627C142.819 87.8279 142.344 89.2435 141.534 90.4673C140.723 91.6911 139.604 92.6799 138.29 93.3343L52.1113 136.253C50.7973 136.907 49.3341 137.204 47.8689 137.114C46.4037 137.024 44.9881 136.549 43.7643 135.738C42.5406 134.928 41.5518 133.809 40.8974 132.495C40.243 131.181 39.946 129.718 40.0362 128.252L45.9584 32.1629L45.9534 32.1654Z" fill="#772A8C"/>
</svg>
