<svg width="99" height="97" viewBox="0 0 99 97" fill="none" xmlns="http://www.w3.org/2000/svg">
<path fill-rule="evenodd" clip-rule="evenodd" d="M83.7387 57.9729C84.3011 58.7246 84.6556 59.6111 84.7665 60.5433C84.8774 61.4755 84.7409 62.4205 84.3705 63.2832C84.0002 64.1459 83.4092 64.8958 82.657 65.4575C81.9048 66.0192 81.0179 66.3728 80.0856 66.4829L18.9855 73.7348C18.0538 73.8453 17.1094 73.7087 16.2473 73.3386C15.3852 72.9685 14.6356 72.378 14.074 71.6265C13.5124 70.8749 13.1585 69.9888 13.048 69.0571C12.9374 68.1254 13.074 67.181 13.4441 66.3189L37.7153 9.77755C38.0854 8.91542 38.676 8.1659 39.4276 7.60432C40.1791 7.04274 41.0653 6.6889 41.997 6.57834C42.9287 6.46779 43.873 6.60443 44.7352 6.97452C45.5973 7.34462 46.3468 7.93512 46.9084 8.6867L83.7373 57.9762L83.7387 57.9729Z" fill="#772A8C"/>
</svg>
