<svg width="239" height="239" viewBox="0 0 239 239" fill="none" xmlns="http://www.w3.org/2000/svg">
<path d="M49.1388 148.408C44.6729 145.499 41.5452 140.936 40.4435 135.721C39.3419 130.506 40.3564 125.068 43.2641 120.601L89.8175 49.1348C92.7265 44.6689 97.2901 41.5412 102.505 40.4395C107.72 39.3378 113.158 40.3524 117.625 43.2601L189.107 89.7896C193.572 92.6986 196.7 97.2623 197.802 102.477C198.904 107.692 197.889 113.13 194.981 117.597L148.428 189.063C145.519 193.529 140.955 196.657 135.741 197.758C130.526 198.86 125.087 197.846 120.62 194.938L49.1388 148.408Z" fill="#542859" fill-opacity="0.72"/>
</svg>
