<svg width="165" height="175" viewBox="0 0 165 175" fill="none" xmlns="http://www.w3.org/2000/svg">
<path d="M113.188 18.3471C113.188 28.2311 99.4116 36.2776 82.4478 36.2776C65.5013 36.2776 51.716 28.2311 51.716 18.3384C51.716 8.4719 65.5536 0.416687 82.4565 0.416687C99.3593 0.416687 113.188 8.46319 113.188 18.3471ZM113.197 156.653C113.197 166.537 99.4203 174.583 82.4565 174.583C65.51 174.583 51.7247 166.537 51.7247 156.653C51.7247 146.769 65.5623 138.722 82.4652 138.722C99.368 138.722 113.206 146.769 113.206 156.662M38.1485 62.6552C46.8568 47.6507 46.9003 31.4096 38.3487 26.4894C29.7449 21.5257 15.8116 29.7115 7.10325 44.7247C-1.60509 59.7379 -1.60509 75.9789 6.89425 80.8904C15.5068 85.8106 29.4401 77.6683 38.1485 62.6552ZM157.905 94.0574C166.518 98.9254 166.466 114.853 157.81 129.605C149.101 144.357 135.116 152.351 126.564 147.483C117.899 142.615 117.952 126.688 126.608 111.936C135.316 97.1837 149.302 89.1894 157.905 94.0574ZM38.401 147.588C47.0048 142.72 46.9526 126.792 38.2442 112.04C29.5882 97.2882 15.6026 89.2939 6.99875 94.1619C-1.65734 99.0734 -1.60509 114.957 7.10325 129.709C15.7593 144.461 29.7449 152.508 38.3487 147.64L38.401 147.588ZM157.905 44.7769C166.614 59.7901 166.614 75.9789 158.062 80.8904C149.511 85.8542 135.525 77.7206 126.817 62.6552C118.213 47.6507 118.108 31.4619 126.66 26.5417C135.264 21.5779 149.206 29.7202 157.905 44.7769Z" fill="#772A8C"/>
</svg>
