<svg width="182" height="162" viewBox="0 0 182 162" fill="none" xmlns="http://www.w3.org/2000/svg">
<path d="M121.333 20.25C121.333 14.6496 125.852 10.125 131.444 10.125H171.889C177.482 10.125 182 14.6496 182 20.25C182 25.8504 177.482 30.375 171.889 30.375H141.556V60.75C141.556 66.3504 137.037 70.875 131.444 70.875H101.111V101.25C101.111 106.85 96.5927 111.375 91 111.375H60.6667V141.75C60.6667 147.35 56.1483 151.875 50.5556 151.875H10.1111C4.5184 151.875 0 147.35 0 141.75C0 136.15 4.5184 131.625 10.1111 131.625H40.4444V101.25C40.4444 95.6496 44.9628 91.125 50.5556 91.125H80.8889V60.75C80.8889 55.1496 85.4073 50.625 91 50.625H121.333V20.25Z" fill="#91E0F2"/>
</svg>
