<svg width="253" height="266" viewBox="0 0 253 266" fill="none" xmlns="http://www.w3.org/2000/svg">
<path d="M155.539 40.2068C139.24 43.0289 123.918 49.9208 110.993 60.2436L108.339 62.4197C91.1041 77.1552 70.2129 86.9682 47.8675 90.8242C38.2736 92.4651 28.0051 93.3739 18.2834 91.9993C14.7443 91.5087 11.53 89.6742 9.30759 86.8766C7.08515 84.0791 6.02521 80.5332 6.34774 76.9749C6.67026 73.4165 8.35048 70.119 11.0397 67.7666C13.7289 65.4142 17.2207 64.1876 20.7903 64.3413L22.1209 64.4636C29.0552 65.2742 36.3316 64.593 43.1711 63.4225C55.5899 61.2875 71.7961 56.0115 87.7138 43.3769L90.3676 41.2008C107.603 26.4653 128.494 16.6524 150.839 12.7963C160.433 11.1554 170.696 10.2584 180.403 11.6183C184.043 12.166 187.321 14.122 189.532 17.0645C191.743 20.007 192.71 23.7006 192.223 27.3489C191.146 34.9194 185.023 38.6156 176.577 39.1598L155.539 40.2068ZM173.154 92.948C156.855 95.77 141.533 102.662 128.608 112.985L125.954 115.161C108.719 129.896 87.828 139.709 65.4826 143.565C55.8887 145.206 45.6202 146.115 35.8985 144.74C32.3594 144.25 29.1451 142.415 26.9227 139.618C24.7002 136.82 23.6403 133.274 23.9628 129.716C24.2854 126.158 25.9656 122.86 28.6548 120.508C31.344 118.155 34.8358 116.929 38.4054 117.082L39.736 117.205C46.6703 118.015 53.9467 117.334 60.7861 116.164C73.205 114.029 89.4112 108.753 105.329 96.1181L107.983 93.9419C125.218 79.2064 146.109 69.3935 168.454 65.5375C178.048 63.8965 188.311 62.9995 198.018 64.3595C201.658 64.9072 204.936 66.8631 207.147 69.8057C209.358 72.7482 210.325 76.4417 209.838 80.09C208.764 87.6693 202.638 91.3567 194.192 91.901L173.154 92.948ZM140.781 170.201L143.569 167.902C157.013 156.379 173.321 148.704 190.769 145.689L211.816 144.639C220.253 144.098 226.379 140.41 227.462 132.828C227.945 129.181 226.977 125.49 224.765 122.55C222.553 119.609 219.274 117.656 215.636 117.109C205.926 115.741 195.666 116.646 186.072 118.287C164.933 121.939 145.076 130.925 128.381 144.396L125.601 146.692C108.828 160.892 91.5058 166.658 78.4012 168.905C72.5405 169.905 66.3485 170.556 60.3405 170.208L57.3481 169.937C53.6955 169.429 49.9905 170.392 47.0481 172.615C44.1058 174.838 42.1671 178.139 41.6586 181.792C41.1501 185.445 42.1134 189.15 44.3367 192.092C46.5599 195.034 49.8609 196.973 53.5136 197.482C63.2265 198.859 73.5037 197.947 83.0948 196.298C99.2879 193.527 120.335 186.596 140.778 170.193L140.781 170.201Z" fill="#91E0F2" fill-opacity="0.72"/>
</svg>
