<?xml version="1.0" encoding="UTF-8"?>
<svg xmlns="http://www.w3.org/2000/svg" xmlns:xlink="http://www.w3.org/1999/xlink" width="165px" height="48px" viewBox="0 0 164 48" version="1.1">
<g id="surface1">
<path style=" stroke:none;fill-rule:nonzero;fill:rgb(13.333334%,13.333334%,13.333334%);fill-opacity:1;" d="M 1.066406 37.242188 L 1.066406 18.898438 L 23.855469 18.898438 L 23.855469 17.824219 L 1.066406 17.824219 L 1.066406 1.089844 L 25.296875 1.089844 L 25.296875 0.015625 L 0 0.015625 L 0 38.3125 L 25.507812 38.3125 L 25.507812 37.242188 Z M 46.058594 10.742188 L 36.609375 23.242188 L 27.378906 10.742188 L 25.988281 10.742188 L 35.96875 24.046875 L 25.027344 38.3125 L 26.308594 38.3125 L 36.609375 24.851562 L 46.964844 38.3125 L 48.296875 38.3125 L 37.304688 24.046875 L 47.335938 10.742188 L 46.054688 10.742188 Z M 51.5 47.753906 L 51.5 30.589844 L 51.605469 30.589844 C 52.246094 33.09375 53.511719 35.105469 55.394531 36.625 C 57.28125 38.144531 59.683594 38.90625 62.601562 38.90625 C 64.484375 38.90625 66.160156 38.519531 67.617188 37.75 C 69.074219 36.980469 70.292969 35.9375 71.273438 34.613281 C 72.25 33.289062 73 31.753906 73.515625 30 C 74.03125 28.25 74.289062 26.40625 74.289062 24.476562 C 74.289062 22.402344 74.019531 20.488281 73.488281 18.734375 C 72.953125 16.984375 72.179688 15.464844 71.167969 14.175781 C 70.152344 12.890625 68.925781 11.886719 67.484375 11.171875 C 66.042969 10.457031 64.414062 10.101562 62.601562 10.101562 C 61.214844 10.101562 59.921875 10.304688 58.730469 10.714844 C 57.539062 11.128906 56.480469 11.707031 55.554688 12.460938 C 54.625 13.214844 53.816406 14.113281 53.15625 15.113281 C 52.480469 16.132812 51.960938 17.25 51.605469 18.46875 L 51.5 18.46875 L 51.5 10.742188 L 50.433594 10.742188 L 50.433594 47.753906 Z M 62.601562 37.886719 C 59.257812 37.886719 56.570312 36.730469 54.542969 34.425781 C 52.515625 32.117188 51.5 28.800781 51.5 24.476562 C 51.5 22.6875 51.75 20.988281 52.246094 19.378906 C 52.746094 17.769531 53.464844 16.355469 54.410156 15.140625 C 55.351562 13.925781 56.515625 12.960938 57.902344 12.246094 C 59.292969 11.53125 60.859375 11.171875 62.601562 11.171875 C 64.378906 11.171875 65.9375 11.53125 67.269531 12.246094 C 68.605469 12.960938 69.707031 13.933594 70.578125 15.167969 C 71.449219 16.402344 72.109375 17.816406 72.554688 19.40625 C 73 20.996094 73.222656 22.6875 73.222656 24.476562 C 73.222656 26.085938 73.015625 27.683594 72.605469 29.277344 C 72.199219 30.867188 71.566406 32.296875 70.710938 33.566406 C 69.859375 34.835938 68.765625 35.875 67.429688 36.679688 C 66.097656 37.484375 64.484375 37.886719 62.601562 37.886719 Z M 80.160156 38.3125 L 80.160156 22.703125 C 80.160156 21.203125 80.371094 19.738281 80.800781 18.304688 C 81.226562 16.875 81.882812 15.617188 82.773438 14.523438 C 83.664062 13.433594 84.792969 12.574219 86.164062 11.949219 C 87.53125 11.324219 89.160156 11.066406 91.046875 11.171875 L 91.046875 10.097656 C 89.410156 10.0625 87.976562 10.242188 86.75 10.636719 C 85.523438 11.027344 84.464844 11.566406 83.574219 12.246094 C 82.683594 12.925781 81.972656 13.71875 81.441406 14.632812 C 80.90625 15.542969 80.511719 16.527344 80.265625 17.554688 L 80.160156 17.554688 L 80.160156 10.742188 L 79.089844 10.742188 L 79.089844 38.3125 Z M 92.378906 24.742188 L 115.328125 24.742188 C 115.398438 22.847656 115.210938 21.023438 114.769531 19.273438 C 114.324219 17.519531 113.613281 15.964844 112.632812 14.605469 C 111.65625 13.246094 110.390625 12.15625 108.84375 11.332031 C 107.296875 10.511719 105.457031 10.097656 103.320312 10.097656 C 101.789062 10.097656 100.296875 10.421875 98.835938 11.066406 C 97.378906 11.707031 96.097656 12.648438 94.996094 13.882812 C 93.890625 15.113281 93.003906 16.625 92.328125 18.414062 C 91.652344 20.203125 91.3125 22.238281 91.3125 24.527344 C 91.3125 26.566406 91.542969 28.472656 92.007812 30.242188 C 92.46875 32.011719 93.179688 33.550781 94.140625 34.855469 C 95.101562 36.160156 96.339844 37.167969 97.851562 37.886719 C 99.363281 38.601562 101.1875 38.941406 103.320312 38.902344 C 106.453125 38.902344 109.085938 38.019531 111.21875 36.25 C 113.355469 34.480469 114.617188 31.984375 115.007812 28.765625 L 113.941406 28.765625 C 113.476562 31.804688 112.296875 34.085938 110.390625 35.605469 C 108.488281 37.125 106.097656 37.886719 103.214844 37.886719 C 101.257812 37.886719 99.601562 37.546875 98.25 36.867188 C 96.898438 36.1875 95.796875 35.257812 94.941406 34.078125 C 94.089844 32.894531 93.457031 31.511719 93.046875 29.917969 C 92.636719 28.328125 92.414062 26.601562 92.378906 24.742188 Z M 114.261719 23.671875 L 92.378906 23.671875 C 92.488281 21.738281 92.84375 20.003906 93.449219 18.46875 C 94.050781 16.929688 94.84375 15.617188 95.824219 14.523438 C 96.800781 13.433594 97.9375 12.601562 99.238281 12.03125 C 100.535156 11.457031 101.933594 11.171875 103.425781 11.171875 C 105.207031 11.171875 106.769531 11.503906 108.125 12.164062 C 109.476562 12.828125 110.605469 13.730469 111.511719 14.875 C 112.417969 16.019531 113.105469 17.351562 113.566406 18.871094 C 114.03125 20.390625 114.261719 21.988281 114.261719 23.671875 Z M 137.476562 18.898438 L 138.542969 18.898438 C 138.542969 15.820312 137.652344 13.585938 135.875 12.191406 C 134.097656 10.796875 131.675781 10.097656 128.617188 10.097656 C 126.910156 10.097656 125.46875 10.3125 124.292969 10.742188 C 123.121094 11.171875 122.160156 11.726562 121.414062 12.40625 C 120.664062 13.085938 120.132812 13.835938 119.8125 14.660156 C 119.492188 15.480469 119.332031 16.269531 119.332031 17.019531 C 119.332031 18.519531 119.597656 19.71875 120.132812 20.613281 C 120.664062 21.507812 121.5 22.203125 122.640625 22.703125 C 123.421875 23.0625 124.3125 23.382812 125.308594 23.671875 C 126.304688 23.957031 127.460938 24.261719 128.777344 24.582031 C 129.949219 24.867188 131.109375 25.15625 132.246094 25.441406 C 133.382812 25.726562 134.390625 26.109375 135.261719 26.59375 C 136.132812 27.078125 136.84375 27.691406 137.394531 28.445312 C 137.949219 29.195312 138.222656 30.179688 138.222656 31.394531 C 138.222656 32.574219 137.949219 33.574219 137.394531 34.398438 C 136.847656 35.214844 136.128906 35.902344 135.289062 36.410156 C 134.433594 36.929688 133.480469 37.304688 132.433594 37.535156 C 131.382812 37.769531 130.359375 37.886719 129.363281 37.886719 C 126.125 37.886719 123.644531 37.160156 121.917969 35.710938 C 120.195312 34.265625 119.332031 31.984375 119.332031 28.875 L 118.261719 28.875 C 118.261719 32.34375 119.199219 34.882812 121.066406 36.492188 C 122.933594 38.097656 125.699219 38.902344 129.363281 38.902344 C 130.539062 38.902344 131.722656 38.769531 132.914062 38.5 C 134.105469 38.234375 135.171875 37.796875 136.113281 37.1875 C 137.050781 36.589844 137.835938 35.78125 138.410156 34.828125 C 138.996094 33.863281 139.289062 32.683594 139.289062 31.289062 C 139.289062 29.964844 139.03125 28.890625 138.515625 28.070312 C 138 27.246094 137.324219 26.566406 136.488281 26.03125 C 135.652344 25.492188 134.710938 25.074219 133.660156 24.769531 C 132.605469 24.464844 131.546875 24.167969 130.484375 23.882812 C 129.179688 23.539062 127.871094 23.199219 126.5625 22.867188 C 125.441406 22.578125 124.402344 22.238281 123.441406 21.847656 C 122.515625 21.453125 121.777344 20.890625 121.226562 20.15625 C 120.675781 19.425781 120.398438 18.378906 120.398438 17.019531 C 120.398438 16.769531 120.46875 16.320312 120.613281 15.679688 C 120.753906 15.035156 121.09375 14.382812 121.625 13.71875 C 122.160156 13.058594 122.976562 12.46875 124.082031 11.949219 C 125.183594 11.429688 126.695312 11.171875 128.617188 11.171875 C 129.933594 11.171875 131.132812 11.316406 132.21875 11.601562 C 133.304688 11.886719 134.238281 12.34375 135.019531 12.96875 C 135.804688 13.59375 136.410156 14.390625 136.835938 15.355469 C 137.261719 16.320312 137.476562 17.5 137.476562 18.898438 Z M 162.183594 18.898438 L 163.253906 18.898438 C 163.253906 15.820312 162.363281 13.585938 160.585938 12.191406 C 158.804688 10.796875 156.386719 10.097656 153.328125 10.097656 C 151.617188 10.097656 150.175781 10.3125 149.003906 10.742188 C 147.828125 11.171875 146.867188 11.726562 146.121094 12.40625 C 145.375 13.085938 144.839844 13.835938 144.519531 14.660156 C 144.199219 15.480469 144.039062 16.269531 144.039062 17.019531 C 144.039062 18.519531 144.308594 19.71875 144.839844 20.613281 C 145.375 21.507812 146.210938 22.203125 147.347656 22.703125 C 148.132812 23.0625 149.019531 23.382812 150.015625 23.671875 C 151.011719 23.957031 152.167969 24.261719 153.488281 24.582031 C 154.660156 24.867188 155.816406 25.15625 156.957031 25.441406 C 158.09375 25.726562 159.097656 26.109375 159.972656 26.59375 C 160.84375 27.078125 161.554688 27.691406 162.105469 28.445312 C 162.65625 29.195312 162.933594 30.179688 162.933594 31.394531 C 162.933594 32.574219 162.65625 33.574219 162.105469 34.398438 C 161.558594 35.214844 160.839844 35.902344 159.996094 36.410156 C 159.144531 36.929688 158.191406 37.304688 157.140625 37.535156 C 156.09375 37.769531 155.070312 37.886719 154.074219 37.886719 C 150.835938 37.886719 148.355469 37.160156 146.628906 35.710938 C 144.902344 34.265625 144.039062 31.984375 144.039062 28.875 L 142.972656 28.875 C 142.972656 32.34375 143.90625 34.882812 145.773438 36.492188 C 147.644531 38.097656 150.410156 38.902344 154.074219 38.902344 C 155.246094 38.902344 156.429688 38.769531 157.621094 38.5 C 158.8125 38.234375 159.882812 37.796875 160.824219 37.1875 C 161.757812 36.589844 162.542969 35.78125 163.121094 34.828125 C 163.707031 33.863281 164 32.683594 164 31.289062 C 164 29.964844 163.742188 28.890625 163.226562 28.070312 C 162.710938 27.246094 162.035156 26.566406 161.199219 26.03125 C 160.363281 25.492188 159.417969 25.074219 158.371094 24.769531 C 157.3125 24.464844 156.253906 24.167969 155.195312 23.882812 C 153.886719 23.539062 152.582031 23.199219 151.273438 22.867188 C 150.152344 22.578125 149.109375 22.238281 148.148438 21.847656 C 147.222656 21.453125 146.484375 20.890625 145.933594 20.15625 C 145.382812 19.425781 145.109375 18.378906 145.109375 17.019531 C 145.109375 16.769531 145.179688 16.320312 145.320312 15.679688 C 145.464844 15.035156 145.800781 14.382812 146.335938 13.71875 C 146.867188 13.058594 147.6875 12.46875 148.789062 11.949219 C 149.894531 11.429688 151.40625 11.171875 153.328125 11.171875 C 154.644531 11.171875 155.84375 11.316406 156.929688 11.601562 C 158.015625 11.886719 158.949219 12.34375 159.730469 12.96875 C 160.511719 13.59375 161.117188 14.390625 161.546875 15.355469 C 161.972656 16.320312 162.1875 17.5 162.1875 18.898438 Z M 162.183594 18.898438 "/>
</g>
</svg>
