<svg width="43" height="64" viewBox="0 0 43 64" fill="none" xmlns="http://www.w3.org/2000/svg">
<g clip-path="url(#clip0_2004_764)">
<path d="M10.6683 64C16.5563 64 21.335 59.2213 21.335 53.3333V42.6666H10.6683C4.78033 42.6666 0.00166512 47.4453 0.00166512 53.3333C0.00166512 59.2213 4.78033 64 10.6683 64Z" fill="#0ACF83"/>
<path d="M0.00166512 32C0.00166512 26.112 4.78033 21.3334 10.6683 21.3334H21.335V42.6667H10.6683C4.78033 42.6667 0.00166512 37.888 0.00166512 32Z" fill="#A259FF"/>
<path d="M0.00166512 10.6667C0.00166512 4.77867 4.78033 0 10.6683 0H21.335V21.3333H10.6683C4.78033 21.3333 0.00166512 16.5547 0.00166512 10.6667Z" fill="#F24E1E"/>
<path d="M21.335 0H32.0017C37.8897 0 42.6683 4.77867 42.6683 10.6667C42.6683 16.5547 37.8897 21.3333 32.0017 21.3333H21.335V0Z" fill="#FF7262"/>
<path d="M42.6683 32C42.6683 37.888 37.8897 42.6667 32.0017 42.6667C26.1137 42.6667 21.335 37.888 21.335 32C21.335 26.112 26.1137 21.3334 32.0017 21.3334C37.8897 21.3334 42.6683 26.112 42.6683 32Z" fill="#1ABCFE"/>
</g>
<defs>
<clipPath id="clip0_2004_764">
<rect width="42.67" height="64" fill="white"/>
</clipPath>
</defs>
</svg>
