<svg width="64" height="64" viewBox="0 0 64 64" fill="none" xmlns="http://www.w3.org/2000/svg">
<g clip-path="url(#clip0_2004_760)">
<path d="M62.3685 29.1889L34.8105 1.6319C33.2245 0.0449004 30.6505 0.0449004 29.062 1.6319L23.34 7.3549L30.599 14.6139C32.2865 14.0444 34.2205 14.4264 35.565 15.7709C36.9165 17.1239 37.2955 19.0744 36.712 20.7674L43.708 27.7639C45.4005 27.1804 47.354 27.5574 48.705 28.9114C50.595 30.7999 50.595 33.8614 48.705 35.7509C48.2559 36.2003 47.7226 36.5567 47.1356 36.7999C46.5487 37.0431 45.9196 37.1683 45.2843 37.1683C44.6489 37.1683 44.0198 37.0431 43.4329 36.7999C42.8459 36.5567 42.3126 36.2003 41.8635 35.7509C41.1889 35.0756 40.729 34.2158 40.5417 33.2798C40.3545 32.3438 40.4481 31.3733 40.811 30.4904L34.287 23.9664L34.286 41.1369C34.7594 41.3699 35.1916 41.6787 35.5655 42.0509C37.4545 43.9394 37.4545 46.9999 35.5655 48.8924C33.676 50.7809 30.6135 50.7809 28.726 48.8924C26.837 47.0004 26.837 43.9399 28.726 42.0509C29.179 41.5981 29.7172 41.2396 30.3095 40.9959V23.6664C29.7165 23.4238 29.1781 23.0649 28.726 22.6109C27.295 21.1809 26.9505 19.0809 27.6845 17.3229L20.528 10.1664L1.63201 29.0614C0.869665 29.824 0.441406 30.8581 0.441406 31.9364C0.441406 33.0147 0.869665 34.0488 1.63201 34.8114L29.1905 62.3684C30.7775 63.9554 33.3505 63.9554 34.94 62.3684L62.369 34.9394C63.1312 34.1766 63.5593 33.1424 63.5592 32.064C63.5591 30.9857 63.1308 29.9516 62.3685 29.1889Z" fill="#F34F29"/>
</g>
<defs>
<clipPath id="clip0_2004_760">
<rect width="64" height="64" fill="white"/>
</clipPath>
</defs>
</svg>
