<svg width="74" height="74" viewBox="0 0 74 74" fill="none" xmlns="http://www.w3.org/2000/svg">
<path d="M13.6484 62.9023L8.45219 4.625H65.5478L60.3447 62.8931L36.9653 69.375L13.6484 62.9023Z" fill="#E44F26"/>
<path d="M37 64.4217L55.8931 59.1839L60.3377 9.39111H37V64.4217Z" fill="#F1662A"/>
<path d="M37 31.0037H27.5419L26.8898 23.6847H37V16.5367H19.0781L19.2493 18.4561L21.0044 38.1517H37V31.0037ZM37 49.5662L36.9676 49.5754L29.008 47.4271L28.4993 41.7268H21.3236L22.3249 52.9471L36.9676 57.0124L37 57.0032V49.5662Z" fill="#EBEBEB"/>
<path d="M36.9746 31.0037V38.1517H45.7759L44.9481 47.4225L36.9746 49.5731V57.0101L51.6289 52.9471L51.7352 51.7399L53.4141 32.9231L53.5899 31.0037H36.9746ZM36.9746 16.5367V23.6847H54.2397L54.3831 22.0798L54.7091 18.4561L54.8803 16.5367H36.9746Z" fill="white"/>
</svg>
