<svg width="105" height="64" viewBox="0 0 105 64" fill="none" xmlns="http://www.w3.org/2000/svg">
<g clip-path="url(#clip0_2004_733)">
<path d="M51.591 63.8154C51.2377 63.8154 50.908 63.7213 50.6016 63.5564L47.4687 61.6955C46.9974 61.4362 47.233 61.3421 47.3745 61.295C48.0104 61.083 48.1282 61.0357 48.7878 60.659C48.8585 60.6118 48.9529 60.6354 49.0234 60.6825L51.4263 62.1194C51.5204 62.1665 51.6382 62.1665 51.7088 62.1194L61.108 56.6778C61.2022 56.6307 61.2495 56.5363 61.2495 56.4187V45.5591C61.2495 45.4411 61.2022 45.3471 61.108 45.2999L51.7088 39.8819C51.6146 39.8346 51.4968 39.8346 51.4263 39.8819L42.027 45.2999C41.9329 45.3469 41.8856 45.4648 41.8856 45.5589V56.4185C41.8856 56.5129 41.9329 56.6305 42.027 56.6778L44.5948 58.1618C45.9846 58.8685 46.8562 58.044 46.8562 57.2196V46.5012C46.8562 46.3599 46.974 46.2185 47.1389 46.2185H48.3402C48.4817 46.2185 48.6229 46.3363 48.6229 46.5012V57.2196C48.6229 59.0804 47.6099 60.1642 45.8432 60.1642C45.3014 60.1642 44.8775 60.1642 43.676 59.5751L41.2026 58.1618C40.5901 57.8086 40.2132 57.1488 40.2132 56.4422V45.5826C40.2132 44.8759 40.5901 44.2161 41.2026 43.8629L50.6016 38.4213C51.1907 38.0915 51.9917 38.0915 52.5805 38.4213L61.9795 43.8629C62.592 44.2161 62.9691 44.8759 62.9691 45.5826V56.4422C62.9691 57.1488 62.592 57.8086 61.9795 58.1618L52.5805 63.6035C52.2742 63.7449 51.9207 63.8154 51.591 63.8154ZM54.4887 56.348C50.3664 56.348 49.5183 54.4635 49.5183 52.8616C49.5183 52.7202 49.6361 52.5789 49.801 52.5789H51.026C51.1672 52.5789 51.285 52.6731 51.285 52.8146C51.4736 54.063 52.0153 54.6755 54.5123 54.6755C56.491 54.6755 57.3393 54.2279 57.3393 53.1678C57.3393 52.5553 57.1035 52.1079 54.0177 51.8016C51.4499 51.5423 49.8481 50.9771 49.8481 48.9277C49.8481 47.0195 51.4501 45.8887 54.1355 45.8887C57.1506 45.8887 58.6348 46.9253 58.8234 49.1865C58.8234 49.2573 58.7998 49.3281 58.7526 49.3987C58.7054 49.4458 58.6348 49.4929 58.5641 49.4929H57.3391C57.2213 49.4929 57.1035 49.3987 57.0801 49.2809C56.7974 47.9854 56.0671 47.5613 54.1355 47.5613C51.9682 47.5613 51.709 48.3152 51.709 48.8804C51.709 49.5636 52.0153 49.7756 54.9363 50.1524C57.8338 50.5295 59.2002 51.0713 59.2002 53.0971C59.1766 55.1701 57.4806 56.348 54.4887 56.348Z" fill="#539E43"/>
<path d="M22.4277 21.3426C22.4277 20.9187 22.1921 20.518 21.8153 20.306L11.8272 14.5582C11.6621 14.4638 11.4738 14.4168 11.2854 14.3931H11.1911C11.0027 14.3931 10.8142 14.4638 10.6493 14.5582L0.661221 20.306C0.284151 20.518 0.0487366 20.9185 0.0487366 21.3426L0.0723799 36.7958C0.0723799 37.0077 0.190189 37.2197 0.37852 37.3141C0.567055 37.4319 0.802469 37.4319 0.967565 37.3141L6.90387 33.9219C7.28074 33.7099 7.51635 33.3094 7.51635 32.8854V25.6535C7.51635 25.2295 7.75177 24.829 8.12884 24.617L10.6493 23.1564C10.8378 23.0386 11.0498 22.9913 11.2618 22.9913C11.4738 22.9913 11.6857 23.0386 11.8508 23.1564L14.3713 24.617C14.7484 24.829 14.9838 25.2293 14.9838 25.6535V32.8854C14.9838 33.3094 15.2194 33.7099 15.5963 33.9219L21.5326 37.3141C21.6243 37.3718 21.7304 37.4025 21.8388 37.4025C21.9472 37.4025 22.0533 37.3718 22.145 37.3141C22.3336 37.2197 22.4514 37.0077 22.4514 36.7958L22.4277 21.3426ZM70.4365 0.0707771C70.2482 -0.0235924 70.0126 -0.0235924 69.8475 0.0707771C69.6591 0.188586 69.5413 0.376917 69.5413 0.588892V15.901C69.5413 16.0422 69.4708 16.1835 69.3294 16.2779C69.188 16.3484 69.0467 16.3484 68.9054 16.2779L66.4084 14.8409C66.2253 14.7367 66.0183 14.682 65.8076 14.682C65.597 14.682 65.3899 14.7367 65.2069 14.8409L55.2188 20.6123C54.8419 20.8243 54.6063 21.2248 54.6063 21.6488V33.1679C54.6063 33.5919 54.8419 33.9926 55.2188 34.2046L65.2069 39.976C65.3899 40.0802 65.597 40.135 65.8076 40.135C66.0183 40.135 66.2253 40.0802 66.4084 39.976L76.3965 34.2046C76.7733 33.9926 77.0089 33.5921 77.0089 33.1679V4.45233C77.0089 4.00474 76.7733 3.60443 76.3965 3.39225L70.4365 0.0707771ZM69.5179 29.3754C69.5179 29.4932 69.4708 29.5874 69.3764 29.6345L65.9608 31.6132C65.9131 31.6365 65.8607 31.6487 65.8076 31.6487C65.7545 31.6487 65.7021 31.6365 65.6544 31.6132L62.2388 29.6345C62.1444 29.5874 62.0974 29.4696 62.0974 29.3754V25.4178C62.0974 25.3 62.1444 25.2059 62.2388 25.1588L65.6544 23.1799C65.7021 23.1565 65.7545 23.1444 65.8076 23.1444C65.8607 23.1444 65.9131 23.1565 65.9608 23.1799L69.3764 25.1588C69.4708 25.2057 69.5179 25.3237 69.5179 25.4178V29.3754ZM103.675 25.3237C104.052 25.1117 104.264 24.7112 104.264 24.287V21.4839C104.264 21.0599 104.029 20.6594 103.675 20.4474L93.7578 14.6997C93.5747 14.5955 93.3677 14.5407 93.157 14.5407C92.9464 14.5407 92.7393 14.5955 92.5563 14.6997L82.5682 20.4709C82.1911 20.6829 81.9557 21.0834 81.9557 21.5073V33.0267C81.9557 33.4506 82.1913 33.8512 82.5682 34.0631L92.4855 39.7167C92.8626 39.9287 93.3102 39.9287 93.6636 39.7167L99.6704 36.372C99.859 36.2777 99.9768 36.0657 99.9768 35.8537C99.9768 35.6417 99.859 35.4298 99.6704 35.3354L89.6353 29.564C89.4468 29.4462 89.3289 29.2578 89.3289 29.0459V25.4417C89.3289 25.2297 89.4468 25.0177 89.6353 24.9234L92.7682 23.133C92.8599 23.0753 92.9661 23.0446 93.0745 23.0446C93.1828 23.0446 93.289 23.0753 93.3807 23.133L96.5139 24.9234C96.7024 25.0412 96.82 25.2295 96.82 25.4417V28.2685C96.82 28.4805 96.9378 28.6924 97.1264 28.7866C97.2181 28.8443 97.3242 28.875 97.4326 28.875C97.541 28.875 97.6471 28.8443 97.7388 28.7866L103.675 25.3237Z" fill="#333333"/>
<path d="M93.0039 24.7817C93.0388 24.7586 93.0798 24.7463 93.1217 24.7463C93.1636 24.7463 93.2045 24.7586 93.2395 24.7817L95.1477 25.8888C95.2182 25.9361 95.2653 26.0067 95.2653 26.1008V28.3153C95.2653 28.4095 95.2184 28.4802 95.1477 28.5273L93.2395 29.6345C93.2045 29.6575 93.1636 29.6698 93.1217 29.6698C93.0798 29.6698 93.0388 29.6575 93.0039 29.6345L91.0959 28.5273C91.0252 28.4802 90.9781 28.4095 90.9781 28.3153V26.101C90.9781 26.0067 91.025 25.9359 91.0959 25.889L93.0039 24.7817Z" fill="#539E43"/>
<path d="M39.1295 14.7468C38.9464 14.6426 38.7395 14.5879 38.5288 14.5879C38.3182 14.5879 38.1112 14.6426 37.9282 14.7468L28.0108 20.4707C27.6338 20.6827 27.4218 21.0832 27.4218 21.5071V32.9794C27.4218 33.4034 27.6574 33.8039 28.0108 34.0159L37.9282 39.7402C38.1112 39.8444 38.3182 39.8991 38.5288 39.8991C38.7395 39.8991 38.9464 39.8444 39.1295 39.7402L49.0471 34.0159C49.4239 33.8039 49.6361 33.4034 49.6361 32.9794V21.5073C49.6361 21.0834 49.4003 20.6829 49.0471 20.4709L39.1295 14.7468Z" fill="url(#paint0_linear_2004_733)"/>
<mask id="mask0_2004_733" style="mask-type:luminance" maskUnits="userSpaceOnUse" x="27" y="14" width="23" height="26">
<path d="M39.1295 14.7468C38.9464 14.6426 38.7395 14.5879 38.5288 14.5879C38.3182 14.5879 38.1112 14.6426 37.9282 14.7468L28.0108 20.4707C27.6338 20.6827 27.4218 21.0832 27.4218 21.5071V32.9794C27.4218 33.4034 27.6574 33.8039 28.0108 34.0159L37.9282 39.7402C38.1112 39.8444 38.3182 39.8991 38.5288 39.8991C38.7395 39.8991 38.9464 39.8444 39.1295 39.7402L49.0471 34.0159C49.4239 33.8039 49.6361 33.4034 49.6361 32.9794V21.5073C49.6361 21.0834 49.4003 20.6829 49.0471 20.4709L39.1295 14.7468Z" fill="white"/>
</mask>
<g mask="url(#mask0_2004_733)">
<path d="M49.0705 20.4708L39.1061 14.7467C39.0082 14.6972 38.9055 14.6578 38.7997 14.6289L27.6338 33.7572C27.7263 33.87 27.838 33.9657 27.9637 34.0399L37.9282 39.7642C38.2109 39.9291 38.5407 39.9762 38.8468 39.8818L49.3298 20.7067C49.259 20.6125 49.1647 20.5414 49.0705 20.4708Z" fill="url(#paint1_linear_2004_733)"/>
</g>
<mask id="mask1_2004_733" style="mask-type:luminance" maskUnits="userSpaceOnUse" x="27" y="14" width="23" height="26">
<path d="M39.1295 14.7468C38.9464 14.6426 38.7395 14.5879 38.5288 14.5879C38.3182 14.5879 38.1112 14.6426 37.9282 14.7468L28.0108 20.4707C27.6338 20.6827 27.4218 21.0832 27.4218 21.5071V32.9794C27.4218 33.4034 27.6574 33.8039 28.0108 34.0159L37.9282 39.7402C38.1112 39.8444 38.3182 39.8991 38.5288 39.8991C38.7395 39.8991 38.9464 39.8444 39.1295 39.7402L49.0471 34.0159C49.4239 33.8039 49.6361 33.4034 49.6361 32.9794V21.5073C49.6361 21.0834 49.4003 20.6829 49.0471 20.4709L39.1295 14.7468Z" fill="white"/>
</mask>
<g mask="url(#mask1_2004_733)">
<path fill-rule="evenodd" clip-rule="evenodd" d="M49.0941 34.0161C49.3768 33.8512 49.5888 33.5685 49.6832 33.2623L38.7524 14.6053C38.4697 14.5582 38.1634 14.5817 37.9045 14.7466L28.0106 20.4474L38.6817 39.9053C38.8369 39.88 38.9877 39.8325 39.1293 39.764L49.0941 34.0161Z" fill="url(#paint2_linear_2004_733)"/>
<path fill-rule="evenodd" clip-rule="evenodd" d="M49.0941 34.016L39.1531 39.7404C39.0128 39.8118 38.8615 39.8596 38.7055 39.8816L38.8941 40.235L49.9186 33.8513V33.7099L49.6359 33.2386C49.5888 33.5684 49.3768 33.8511 49.0941 34.016Z" fill="url(#paint3_linear_2004_733)"/>
<path fill-rule="evenodd" clip-rule="evenodd" d="M49.0941 34.016L39.1531 39.7404C39.0128 39.8118 38.8615 39.8596 38.7055 39.8816L38.8941 40.235L49.9186 33.8513V33.7099L49.6359 33.2386C49.5888 33.5684 49.3768 33.8511 49.0941 34.016Z" fill="url(#paint4_linear_2004_733)"/>
</g>
</g>
<defs>
<linearGradient id="paint0_linear_2004_733" x1="1542.17" y1="457.205" x2="455.145" y2="2165.26" gradientUnits="userSpaceOnUse">
<stop stop-color="#41873F"/>
<stop offset="0.3288" stop-color="#418B3D"/>
<stop offset="0.6352" stop-color="#419637"/>
<stop offset="0.9319" stop-color="#3FA92D"/>
<stop offset="1" stop-color="#3FAE2A"/>
</linearGradient>
<linearGradient id="paint1_linear_2004_733" x1="966.572" y1="1410.46" x2="3689.01" y2="-68.6483" gradientUnits="userSpaceOnUse">
<stop offset="0.1376" stop-color="#41873F"/>
<stop offset="0.4032" stop-color="#54A044"/>
<stop offset="0.7136" stop-color="#66B848"/>
<stop offset="0.9081" stop-color="#6CC04A"/>
</linearGradient>
<linearGradient id="paint2_linear_2004_733" x1="-67.1103" y1="1280.58" x2="2227.75" y2="1280.58" gradientUnits="userSpaceOnUse">
<stop offset="0.09192" stop-color="#6CC04A"/>
<stop offset="0.2864" stop-color="#66B848"/>
<stop offset="0.5968" stop-color="#54A044"/>
<stop offset="0.8624" stop-color="#41873F"/>
</linearGradient>
<linearGradient id="paint3_linear_2004_733" x1="-1125.89" y1="384.982" x2="1168.95" y2="384.982" gradientUnits="userSpaceOnUse">
<stop offset="0.09192" stop-color="#6CC04A"/>
<stop offset="0.2864" stop-color="#66B848"/>
<stop offset="0.5968" stop-color="#54A044"/>
<stop offset="0.8624" stop-color="#41873F"/>
</linearGradient>
<linearGradient id="paint4_linear_2004_733" x1="1503.27" y1="-1443.48" x2="921.903" y2="1602.89" gradientUnits="userSpaceOnUse">
<stop stop-color="#41873F"/>
<stop offset="0.3288" stop-color="#418B3D"/>
<stop offset="0.6352" stop-color="#419637"/>
<stop offset="0.9319" stop-color="#3FA92D"/>
<stop offset="1" stop-color="#3FAE2A"/>
</linearGradient>
<clipPath id="clip0_2004_733">
<rect width="104.36" height="64" fill="white"/>
</clipPath>
</defs>
</svg>
