<svg width="72" height="72" viewBox="0 0 72 72" fill="none" xmlns="http://www.w3.org/2000/svg">
<path d="M7.12573 7.91333H64.8742V64.0868H7.12573V7.91333Z" fill="#0C0824"/>
<path d="M7.12575 7.91335H64.8743V64.0868H7.12575V7.91335ZM4.5 66.7126H67.5V5.2876H4.5V66.7126ZM46.9733 30.4876C44.8988 30.4876 44.19 31.5383 44.19 32.4046C44.19 33.3496 44.6625 34.0066 47.4458 35.4488C51.5677 37.4446 52.8457 39.3593 52.8457 42.1696C52.8457 46.3703 49.644 48.6271 45.3128 48.6271C43.4541 48.6938 41.6071 48.3077 39.9307 47.5021C39.7463 47.4233 39.7215 47.2928 39.7215 47.0813V43.2181C39.7215 42.9548 39.852 42.8761 40.0365 43.0088C41.6101 44.0208 43.4418 44.5582 45.3128 44.5568C47.3872 44.5568 48.2535 43.6906 48.2535 42.5093C48.2535 41.5643 47.6505 40.7251 44.9977 39.3593C41.2695 37.5751 39.7215 35.7593 39.7215 32.7444C39.7215 29.3581 42.372 26.5501 46.9665 26.5501C48.5657 26.4835 50.1622 26.7336 51.6645 27.2858C51.7506 27.3423 51.8204 27.4205 51.8666 27.5126C51.9128 27.6046 51.9339 27.7073 51.9277 27.8101V31.4101C51.9277 31.6193 51.7972 31.7521 51.534 31.6733C50.1461 30.8743 48.5677 30.4661 46.9665 30.4921L46.9733 30.4876ZM24.3968 33.6106C24.9998 33.6623 25.4722 33.6623 26.523 33.6623C29.5942 33.6623 32.481 32.5868 32.481 28.4131C32.481 25.0786 30.4065 23.4001 26.9167 23.4001C25.866 23.4001 24.8693 23.4518 24.3968 23.4788V33.6106ZM19.7235 19.6606C19.7235 19.4761 20.0902 19.3456 20.3017 19.3456C22.5581 19.2536 24.8161 19.21 27.0742 19.2151C34.3463 19.2151 37.1812 23.2043 37.1812 28.2983C37.1812 34.9651 32.3505 37.8271 26.4195 37.8271C25.4227 37.8271 25.0807 37.7753 24.372 37.7753V47.8553C24.372 48.0646 24.2933 48.1703 24.057 48.1703H20.0407C19.8315 48.1703 19.7257 48.0916 19.7257 47.8553V19.6718L19.7235 19.6606Z" fill="#31C5F0"/>
</svg>
