<svg width="76" height="76" viewBox="0 0 76 76" fill="none" xmlns="http://www.w3.org/2000/svg">
<path fill-rule="evenodd" clip-rule="evenodd" d="M0.723755 33.3426C0.723755 33.76 0.846661 34.0355 0.915536 34.3033C1.36441 36.0448 2.32925 37.5392 3.474 38.9025C5.10444 40.8452 7.10122 42.4092 9.14669 43.8799C10.9208 45.1553 12.7312 46.4022 14.5124 47.668C14.8182 47.8853 15.1073 48.1353 15.4393 48.4019C15.1537 48.5563 14.9162 48.6922 14.6692 48.8175C12.3185 50.0098 10.0569 51.3463 7.97225 52.9655C6.71588 53.9416 5.50107 54.9789 4.6431 56.3344C3.26263 58.5147 2.77397 60.8374 3.80294 63.3175C4.10338 64.0419 4.56175 64.6677 5.20835 65.1302C5.41794 65.2798 5.65307 65.4283 5.89829 65.4865C6.52647 65.6343 7.16654 65.7311 7.80244 65.8481L9.60328 65.8469C11.5947 65.6693 13.4074 64.9871 15.0456 63.8566C17.6058 62.0896 19.3307 59.7206 20.0723 56.68C20.6114 54.47 20.6334 52.2577 19.9981 50.0579C19.937 49.8541 19.8669 49.6533 19.7879 49.4558C19.7107 49.2581 19.6198 49.0657 19.513 48.8193L23.5956 46.4716L23.6567 46.5239C23.5825 46.7667 23.5036 47.009 23.4365 47.2542C22.9514 49.0259 22.629 50.8286 22.7448 52.6674C22.8683 54.6268 23.4151 56.4609 24.5622 58.0978C25.4897 59.4219 27.6996 59.4712 28.6852 58.1424C29.0349 57.6703 29.374 57.1769 29.6287 56.6503C30.2943 55.2758 30.9106 53.8769 31.5465 52.4875L31.6575 52.2334C31.6118 52.8913 31.5584 53.469 31.534 54.0473C31.496 54.9504 31.5489 55.8481 31.8576 56.7073C32.1218 57.4423 32.5713 57.9916 33.4132 58.0883C33.9892 58.1543 34.4482 57.8906 34.8715 57.5563C35.5272 57.0379 36.0707 56.3917 36.4693 55.6569C37.598 53.5842 38.757 51.5238 39.78 49.3988C40.8868 47.1004 41.8546 44.7349 42.8824 42.3973L43.0522 41.9829C43.295 42.937 43.4642 43.8716 43.776 44.7563C44.1382 45.7829 44.5864 46.7851 45.0745 47.7595C45.3055 48.2196 45.2788 48.5183 44.9587 48.9042C43.6192 50.5192 42.3029 52.1538 40.9853 53.7866C40.6938 54.147 40.4035 54.514 40.1606 54.9076C40.0133 55.1562 39.9164 55.4314 39.8756 55.7175C39.8348 55.9809 39.8974 56.2498 40.0505 56.468C40.2036 56.6862 40.4352 56.8366 40.6968 56.8878C41.2247 57.0012 41.766 57.0397 42.3047 57.0024C44.1435 56.867 45.8131 56.2216 47.2892 55.1279C49.2017 53.7112 49.8156 51.778 49.3525 49.4867C49.2272 48.865 49.0057 48.2606 48.7902 47.6615C48.6934 47.3913 48.6869 47.2019 48.8632 46.9502C50.3921 44.767 51.6984 42.4507 52.9132 40.0811C52.9613 39.9879 53.0106 39.8947 53.0949 39.7949C53.4885 41.8433 54.0811 43.8176 55.1427 45.6089C54.6012 46.1308 54.0651 46.604 53.58 47.1253C52.5118 48.2737 51.5856 49.5205 51.1022 51.0411C50.8944 51.6966 50.7347 52.3628 50.8273 53.0628C50.971 54.15 51.8617 54.8566 52.931 54.609C55.2193 54.0793 57.1947 53.0011 58.6381 51.091C59.6095 49.8049 59.698 48.3704 59.2912 46.8677C59.1796 46.4592 59.0472 46.0572 58.9047 45.5887C59.4694 45.4136 60.0198 45.2034 60.5892 45.0733C63.5455 44.3988 66.4697 44.5164 69.3185 45.584C70.9816 46.2074 72.3252 47.2506 73.1221 48.8918C74.0952 50.898 73.5573 52.8016 71.6662 54.0698C71.4898 54.188 71.288 54.2812 71.1419 54.4291C71.0951 54.4833 71.0602 54.5467 71.0392 54.6152C71.0183 54.6837 71.0118 54.7557 71.0202 54.8269C71.0327 54.8999 71.2256 54.9913 71.3367 54.9902C71.9583 54.9854 72.4624 54.6594 72.9463 54.3246C74.1587 53.4856 75.0434 52.3569 75.234 50.8707L75.2714 50.7591L75.2257 49.7913C75.2073 49.7355 75.2394 49.6802 75.2352 49.6381C74.9775 47.4739 73.8215 45.7953 72.14 44.4796C70.1925 42.9566 67.8929 42.3296 65.4609 42.2305C63.4885 42.1456 61.5186 42.4488 59.6629 43.1229C59.1303 43.3158 58.6025 43.5444 58.0669 43.76C57.9951 43.6299 57.9179 43.5052 57.8544 43.3764C57.3046 42.2507 56.6384 41.1748 56.4911 39.884C56.3866 38.9672 56.2584 38.0517 56.4763 37.145C56.6859 36.2728 56.959 35.4154 57.2161 34.5551C57.3485 34.1121 57.2553 33.8639 56.8325 33.6644C56.6848 33.5921 56.5277 33.5405 56.3658 33.5112C55.3268 33.3604 54.302 33.4465 53.2956 33.7393C52.9393 33.8432 52.6804 34.0427 52.6015 34.4369C52.5563 34.6631 52.4643 34.8798 52.4002 35.1031C52.1372 36.0311 51.9507 36.977 51.5256 37.8611C50.4604 40.0787 49.2444 42.2127 47.9999 44.3312C47.8651 44.5597 47.7232 44.7842 47.5534 45.0615C47.1164 44.1471 46.6503 43.3265 46.509 42.3647C46.3493 41.2769 46.2234 40.1909 46.4942 39.1115C46.6954 38.3064 46.9585 37.5161 47.2007 36.7217C47.3153 36.344 47.2625 36.1457 46.9205 35.9468C46.7477 35.8465 46.5523 35.7574 46.3576 35.7283C45.2922 35.566 44.2035 35.655 43.1787 35.9884C42.8563 36.0929 42.687 36.3013 42.5885 36.6338C42.2987 37.6147 42.0517 38.6193 41.645 39.5521C39.9979 43.3283 38.3034 47.085 36.6106 50.841C36.2573 51.6254 35.8435 52.3824 35.4451 53.146C35.3441 53.3395 35.1969 53.5099 35.071 53.6916C34.9701 53.5723 34.9309 53.4903 34.9315 53.4084C34.9344 52.9257 34.8768 52.4287 34.9689 51.962C35.2514 50.5506 35.5638 49.1453 35.9058 47.747C36.1849 46.5916 36.5097 45.4468 36.819 44.2991C36.9229 43.9149 36.9247 43.5557 36.6486 43.2327C36.1849 42.6918 35.2159 42.5731 34.6411 42.9899L34.387 43.1336L34.4363 42.7239C34.5574 41.8457 34.5818 40.9705 34.3407 40.1054C34.0403 39.0272 33.2708 38.4067 32.1521 38.4412C31.6308 38.4572 31.0834 38.5462 30.6007 38.7362C28.5706 39.5319 27.0097 40.9408 25.6808 42.636C25.5576 42.7933 25.4049 42.9252 25.2314 43.0243C23.5137 43.9767 21.7906 44.9172 20.0681 45.8612L18.1509 46.9116C17.6367 46.4212 17.1694 45.9123 16.6392 45.4807C15.0201 44.1602 13.3748 42.8723 11.7443 41.5667C10.2992 40.4094 8.8991 39.2041 7.82797 37.6717C7.03116 36.5317 6.51757 35.2842 6.46829 33.8746C6.40594 32.0785 6.91538 30.4374 7.82975 28.9097C8.99944 26.9551 10.5948 25.3864 12.3488 23.9655C14.2043 22.4633 16.2111 21.188 18.291 20.0236C21.201 18.395 24.1941 16.9533 27.4033 16.0016C30.6939 15.0254 34.0325 14.4667 37.4763 14.8562C38.83 15.0094 40.1446 15.3193 41.3517 15.9814C42.2762 16.4878 43.0344 17.1511 43.3871 18.1877C43.735 19.2078 43.7243 20.2415 43.4832 21.2776C42.9934 23.3759 41.8445 25.1055 40.3987 26.6511C38.0273 29.1846 35.1345 30.9094 31.8778 32.0488C30.0053 32.7047 28.057 33.1203 26.0798 33.2856C24.4595 33.4216 22.873 33.2779 21.3388 32.7144C20.3228 32.341 19.4382 31.7698 18.7268 30.9409C18.5998 30.7925 18.4371 30.6316 18.2002 30.7705C17.968 30.9071 17.9271 31.1279 18.0048 31.3518C18.1349 31.7235 18.2548 32.1106 18.4573 32.4431C18.9661 33.2773 19.7083 33.8823 20.5253 34.4013C22.0946 35.3994 23.8485 35.7348 25.6672 35.8126C28.4269 35.932 31.1196 35.5199 33.7743 34.7795C37.5642 33.7226 40.8595 31.8559 43.5022 28.9109C45.7027 26.4587 47.2743 23.6912 47.611 20.3496C47.7755 18.7186 47.6003 17.1208 46.8368 15.6328C46.0085 14.0208 44.6915 12.822 43.1169 11.9961C40.8238 10.7938 38.3491 10.0938 35.7948 10.0938H33.2357C30.1423 10.0938 27.1516 10.9802 24.2446 12.0377C22.0441 12.8387 19.8864 13.7839 17.7917 14.8301C13.2299 17.1095 8.98163 19.858 5.49216 23.6372C3.75366 25.52 2.28175 27.5975 1.43507 30.0437C1.17996 30.7742 0.959824 31.5165 0.775411 32.2679M17.3048 53.6507C17.1071 56.2982 15.9071 58.4446 13.946 60.1831C12.8428 61.1604 11.5775 61.8563 10.1038 62.1009C9.56944 62.1894 9.0226 62.2108 8.50425 61.9893C7.76504 61.6734 7.59938 61.0173 7.58513 60.3185C7.56316 59.2046 7.95325 58.1976 8.48822 57.2393C9.18647 55.99 10.2101 55.0377 11.3032 54.1482C13.0251 52.7464 14.893 51.5601 16.8061 50.4403L16.9503 50.3809C17.246 51.4734 17.3868 52.5522 17.3048 53.6507ZM32.2424 42.1444C32.1028 42.9899 31.9283 43.836 31.6813 44.6553C30.8275 47.4917 29.7308 50.2402 28.5451 52.9518C28.326 53.4535 28.0072 53.9113 27.7299 54.3869C27.6826 54.46 27.6262 54.5266 27.5618 54.5852C27.2187 54.9242 26.8933 54.9064 26.7199 54.4629C26.518 53.9475 26.3939 53.3959 26.2871 52.8503C26.2152 52.4839 26.2324 52.0992 26.2099 51.7239C26.233 49.0556 27.0471 46.6308 28.4281 44.3733C28.9975 43.4423 29.6174 42.5553 30.5644 41.9662C30.8592 41.7833 31.1779 41.6422 31.5115 41.5471C32.0162 41.4052 32.3261 41.6385 32.2424 42.1444ZM42.4335 55.1285L46.0963 50.8517C46.2489 52.44 43.5492 55.6106 42.4335 55.1285ZM54.1322 52.2506C53.8733 52.399 53.5912 52.5059 53.3258 52.6431C53.083 52.7689 53.0028 52.6419 52.9957 52.4329C52.9923 52.2882 53.0109 52.1438 53.0509 52.0048C53.5455 50.2603 54.4557 48.7712 55.8101 47.56L55.9051 47.5113C56.5493 49.3133 55.8047 51.2923 54.1322 52.2506Z" fill="#CB6699"/>
</svg>
